<?xml version="1.0" standalone="no"?>
<!DOCTYPE svg PUBLIC "-//W3C//DTD SVG 20010904//EN"
 "http://www.w3.org/TR/2001/REC-SVG-20010904/DTD/svg10.dtd">
<svg version="1.0" xmlns="http://www.w3.org/2000/svg"
 width="500.000000pt" height="500.000000pt" viewBox="0 0 500.000000 500.000000"
 preserveAspectRatio="xMidYMid meet">
<metadata>
Created by potrace 1.14, written by Peter Selinger 2001-2017
</metadata>
<g transform="translate(0.000000,500.000000) scale(0.100000,-0.100000)"
fill="#000000" stroke="none">
<path d="M0 2500 l0 -2500 2500 0 2500 0 0 2500 0 2500 -2500 0 -2500 0 0
-2500z m4024 2026 c18 -7 96 -61 172 -119 l140 -105 53 -111 c39 -83 53 -125
55 -164 l3 -52 102 -5 c87 -4 105 -8 117 -24 11 -16 14 -80 14 -342 0 -391 11
-363 -135 -366 l-100 -3 -5 -605 c-5 -545 -7 -608 -22 -636 -28 -50 -59 -57
-218 -49 l-140 7 0 -135 c0 -119 2 -137 18 -146 13 -8 15 -14 7 -27 -6 -9 -14
-16 -18 -15 -4 0 -138 1 -298 1 l-290 0 3 22 c3 23 5 23 171 26 l167 2 0 130
c0 75 -4 131 -10 135 -5 3 -604 3 -1330 -1 l-1320 -7 0 -128 0 -128 68 -3 c61
-3 67 -5 70 -25 l3 -23 -421 0 -421 0 3 23 c3 22 3 22 228 25 l225 2 -2 128
-1 127 -162 5 -162 5 -24 30 c-13 17 -29 46 -34 65 -6 21 -10 265 -10 617 l0
582 -107 3 c-103 3 -108 4 -120 28 -17 34 -18 627 -1 665 14 31 27 34 143 38
l90 2 3 55 c3 44 15 78 60 165 l57 110 125 88 c69 48 148 101 175 117 l50 30
1498 0 c1251 0 1503 -2 1531 -14z m-1626 -2745 l3 -52 87 3 87 3 1 40 c1 60 3
65 19 65 20 0 29 -42 21 -106 l-6 -54 167 -2 c166 -3 168 -3 171 -25 l3 -23
-460 0 -461 0 0 25 0 25 165 0 165 0 0 73 c0 41 3 77 7 81 16 16 28 -4 31 -53z
m-1748 -779 c84 -63 103 -198 41 -298 -27 -44 -76 -64 -160 -64 l-71 0 0 -130
c0 -79 -4 -130 -10 -131 -5 -1 -17 -1 -25 -1 -8 0 -19 0 -25 1 -14 1 -14 638
0 643 5 2 58 2 117 1 87 -2 112 -6 133 -21z m383 19 c37 -14 74 -59 87 -105 7
-27 10 -110 8 -236 -3 -221 -14 -259 -79 -293 -48 -26 -130 -19 -165 14 -56
52 -59 67 -59 289 0 113 3 217 7 232 10 33 55 87 82 98 29 12 89 12 119 1z
m447 -14 c40 -26 67 -70 72 -112 3 -27 0 -30 -29 -33 -27 -3 -33 0 -33 17 0
30 -40 70 -77 77 -27 5 -37 1 -63 -24 -23 -24 -30 -39 -30 -70 0 -56 28 -86
105 -112 105 -35 151 -106 143 -221 -5 -66 -24 -100 -79 -137 -28 -20 -44 -23
-92 -20 -36 3 -67 12 -85 24 -33 25 -72 98 -72 137 0 26 3 28 32 25 27 -3 33
-8 42 -43 21 -74 114 -96 164 -39 17 19 22 37 22 80 0 68 -21 93 -101 119 -73
24 -97 41 -119 84 -26 53 -33 102 -21 149 13 46 53 99 85 112 41 17 102 11
136 -13z m540 -22 l0 -35 -70 0 -70 0 0 -284 c0 -303 0 -302 -49 -289 -21 5
-21 9 -21 289 l0 283 -67 3 c-62 3 -68 5 -71 26 -7 47 -4 47 177 44 l171 -3 0
-34z m307 35 c27 0 79 -43 100 -84 23 -43 22 -150 -1 -195 -10 -19 -31 -46
-47 -61 l-30 -27 50 -133 c28 -74 49 -135 48 -136 -10 -10 -58 -10 -65 -1 -5
7 -31 69 -57 140 l-48 127 -43 0 -44 0 0 -135 c0 -82 -4 -135 -10 -136 -48 -6
-45 -28 -48 311 -1 173 -1 319 2 325 2 6 38 9 87 8 46 -1 94 -2 106 -3z m425
-11 c4 -8 31 -126 59 -264 28 -137 57 -276 64 -308 10 -42 10 -57 2 -58 -7 0
-20 -2 -29 -4 -24 -4 -28 5 -47 94 l-16 76 -74 3 c-48 2 -77 -1 -81 -9 -4 -6
-13 -44 -20 -85 -7 -41 -16 -75 -19 -75 -30 -7 -53 -4 -57 6 -5 11 111 580
126 620 6 16 16 20 46 19 21 -1 42 -7 46 -15z m300 -255 c3 -257 4 -264 25
-286 33 -33 89 -30 119 6 24 27 24 28 24 287 l0 259 35 0 35 0 -1 -257 c0
-218 -3 -265 -17 -302 -22 -56 -58 -83 -120 -89 -66 -6 -112 17 -143 71 -23
41 -24 48 -27 306 -3 190 0 266 8 271 6 4 22 5 35 2 l24 -4 3 -264z m588 253
c40 -26 67 -70 72 -112 3 -27 0 -30 -29 -33 -27 -3 -33 0 -33 17 0 30 -40 70
-77 77 -27 5 -37 1 -63 -24 -23 -24 -30 -39 -30 -70 0 -56 28 -86 105 -112
105 -35 151 -106 143 -221 -5 -66 -24 -100 -79 -137 -28 -20 -44 -23 -92 -20
-36 3 -67 12 -85 24 -33 25 -72 98 -72 137 0 26 3 28 32 25 27 -3 33 -8 42
-43 21 -74 114 -96 164 -39 17 19 22 37 22 80 0 68 -21 93 -101 119 -73 24
-97 41 -119 84 -26 53 -33 102 -21 149 13 46 53 99 85 112 41 17 102 11 136
-13z m450 0 c41 -27 66 -68 75 -124 l7 -43 -35 0 c-32 0 -35 2 -41 38 -7 45
-30 70 -72 77 -41 8 -77 -14 -91 -55 -18 -53 -17 -361 2 -405 34 -83 147 -64
161 27 6 36 9 38 42 38 l35 0 -7 -42 c-26 -164 -220 -205 -291 -63 -18 36 -20
60 -20 245 0 185 2 209 20 245 41 82 143 111 215 62z m260 -121 c0 -73 2 -135
4 -137 2 -2 41 -3 85 -1 l80 4 3 136 c3 149 -1 140 58 133 6 -1 10 -115 10
-320 0 -338 1 -334 -46 -327 -17 3 -19 16 -24 152 l-5 149 -60 3 c-110 6 -105
14 -105 -153 0 -89 -4 -145 -10 -146 -48 -6 -45 -28 -48 311 -1 173 0 320 2
326 2 7 16 9 30 7 l26 -5 0 -132z"/>
<path d="M3630 4430 c0 -11 19 -41 42 -66 l42 -45 192 3 c106 2 196 6 200 11
9 9 -61 83 -98 103 -20 10 -70 14 -203 14 -169 0 -175 -1 -175 -20z m160 -71
c0 -12 -37 -12 -44 0 -3 4 -3 11 0 14 8 7 44 -4 44 -14z m155 1 c0 -11 -14
-16 -52 -18 -48 -3 -53 -1 -53 18 0 19 5 21 53 18 38 -2 52 -7 52 -18z"/>
<path d="M625 4170 l-45 -90 1906 0 c1048 0 1904 3 1902 8 -2 4 -22 44 -44 89
l-39 83 -1817 0 -1818 0 -45 -90z"/>
<path d="M570 3032 l0 -999 24 -22 24 -23 1871 8 c1490 5 1875 10 1889 20 16
12 17 75 20 1013 l2 1001 -1915 0 -1915 0 0 -998z m2913 121 c746 -6 797 -7
797 -24 0 -9 -7 -20 -16 -23 -9 -3 -376 -7 -817 -8 l-802 -3 780 -5 c429 -3
781 -6 783 -8 7 -7 0 -313 -8 -342 -9 -31 -6 -41 29 -100 64 -107 81 -147 81
-185 0 -43 -23 -90 -49 -105 -27 -14 -3525 -14 -3552 0 -10 6 -26 25 -35 42
-27 52 -14 110 45 215 29 51 51 99 48 107 -3 8 -7 92 -8 187 l-2 173 309 2
c170 2 523 7 784 11 l475 8 -822 3 -823 2 0 25 0 25 568 3 c312 1 763 3 1003
5 240 1 794 -1 1232 -5z"/>
<path d="M1410 2910 l0 -130 1074 0 c591 0 1076 3 1078 8 2 4 2 62 0 130 l-3
122 -1075 0 -1074 0 0 -130z"/>
<path d="M3610 3035 c-1 -3 -1 -44 -1 -92 l-1 -88 225 -3 c218 -2 225 -2 230
18 8 30 45 26 52 -5 3 -14 7 -35 10 -47 2 -13 11 -32 18 -43 13 -17 16 -6 22
108 4 69 5 133 1 142 -5 13 -43 15 -281 15 -151 0 -275 -2 -275 -5z"/>
<path d="M800 2894 c0 -96 3 -125 13 -122 6 3 13 25 15 51 4 58 31 80 59 47
17 -19 29 -20 250 -20 l233 0 0 85 0 85 -285 0 -285 0 0 -126z"/>
<path d="M884 2793 c-9 -7 -154 -247 -154 -255 0 -5 3493 2 3497 6 4 3 -69
127 -137 234 -15 22 -18 22 -235 22 -121 0 -230 -3 -242 -6 -30 -8 -29 -28 7
-119 17 -42 30 -78 30 -80 0 -3 -520 -5 -1155 -5 -635 0 -1155 3 -1155 8 0 4
10 47 21 95 12 48 18 91 14 95 -9 10 -478 15 -491 5z"/>
<path d="M709 2474 c-17 -21 -1 -73 24 -79 12 -3 807 -4 1767 -3 l1744 3 16
27 c11 21 12 32 4 45 -11 17 -103 18 -1778 19 -1416 0 -1769 -2 -1777 -12z"/>
<path d="M335 3904 c-12 -12 -15 -26 -11 -47 3 -16 6 -150 6 -298 l0 -269 93
0 94 0 6 288 c4 158 5 298 4 312 -2 24 -4 25 -88 28 -71 2 -90 0 -104 -14z"/>
<path d="M4445 3908 c-3 -7 -4 -148 -3 -313 l3 -300 95 0 95 0 0 310 0 310
-93 3 c-69 2 -94 -1 -97 -10z"/>
<path d="M3860 1825 l0 -125 58 0 c107 0 103 -5 100 129 l-3 116 -77 3 -78 3
0 -126z"/>
<path d="M960 1820 l0 -120 80 0 80 0 0 120 0 120 -80 0 -80 0 0 -120z"/>
<path d="M2443 1673 c26 -2 67 -2 90 0 23 2 2 3 -48 3 -49 0 -68 -1 -42 -3z"/>
<path d="M460 830 l0 -120 64 0 c49 0 69 5 89 21 54 41 60 147 12 195 -21 21
-34 24 -95 24 l-70 0 0 -120z"/>
<path d="M940 947 c-44 -23 -50 -49 -50 -247 0 -201 5 -225 53 -248 37 -18 90
-1 106 34 7 16 11 94 11 219 0 187 -1 195 -22 219 -28 31 -65 40 -98 23z"/>
<path d="M2190 841 c0 -123 -2 -120 84 -117 54 2 82 25 96 78 14 48 -2 111
-33 133 -14 9 -44 15 -84 15 l-63 0 0 -109z"/>
<path d="M2676 792 c-16 -81 -31 -153 -34 -159 -3 -10 13 -13 62 -13 36 0 66
2 66 5 0 5 -60 297 -63 307 -1 4 -15 -59 -31 -140z"/>
</g>
</svg>
