<svg xmlns="http://www.w3.org/2000/svg" viewBox="0 0 3000 3000" width="3000" height="3000"><g transform="translate(1698.0 548.4) rotate(0.0 580.8 385.2) scale(1.6292319215006434 1.632144604961262)"><svg width="712.974" height="472.017" viewBox="0 0 712.974 472.017"><g stroke="#000" stroke-linecap="round" stroke-linejoin="round" stroke-miterlimit="10" stroke-width="2"><path d="M209.963 120.744s22.188-48.142 70.234-36.29c38.708 9.548 45.865 69.228 80.643 90.728 28.8 17.805 73.495 21.83 97.612 20.811 75.169-3.175 113.023-41.005 184.383-29.112 19.122 3.187 47.397 20.944 37.845 45.016-9.862 24.855 26.943 25.384 26.943 25.384l3.37-88.412c1.713-11.322 1.36-27.458-6.154-43.822-13.226-28.804-41.196-39.862-47.329-41.065C586.518 50.063 533.621 92.825 458.452 96c-24.117 1.019-64.967 1.349-87.001-24.36-9.754-11.38-25.55-58.599-64.258-68.147-48.047-11.852-123.102 26.141-123.102 26.141z" fill="#adc4cb"/><path d="M707.624 245.327C688.47 299.5 601.83 335.113 601.83 335.113V251.21s82.129-37.426 105.794-89.786c1.222-2.704 2.539-7.063 3.37-12.555l.846 67.588c.001.001 1.3 13.27-4.216 28.87z" fill="#87c159"/><path d="m577.232 242.461-110.29 63.804-.049 88.863 150.5-86.493-2.555-53.789-19.634-12.448a18.067 18.067 0 0 0-17.972.063z" fill="#fff"/><path d="M617.393 325.829v-65.142c0-6.133-6.641-9.965-11.951-6.896l-138.5 80.058-.816 89.606 142.266-82.045a17.985 17.985 0 0 0 9.001-15.581z" fill="#adc4cb"/><g fill="#fff"><path d="m549.821 303.871 37.81-21.855c5.31-3.069 11.951.763 11.951 6.896v.708a17.985 17.985 0 0 1-9.001 15.581l-38.708 20.894c-4.395 2.372-9.73-.81-9.73-5.805v-3.113a15.37 15.37 0 0 1 7.678-13.306zm7.073 32.778 29.768-17.207c4.181-2.417 9.409.6 9.409 5.429v.558c0 5.062-2.702 9.738-7.086 12.267l-30.475 16.45c-3.46 1.868-7.66-.638-7.66-4.57v-2.451a12.096 12.096 0 0 1 6.044-10.476zM187.086 17.704 76.796 81.508l-.049 88.863 150.5-86.493-2.555-53.789-19.634-12.449a18.07 18.07 0 0 0-17.972.064z"/></g><path d="M227.247 101.072V35.93c0-6.133-6.641-9.965-11.951-6.896l-138.5 80.058-.816 89.606 142.266-82.045a17.987 17.987 0 0 0 9.001-15.581z"/><path d="M464.805 207.273 106.297 3.442C94.214-3.427 79.213 5.3 79.213 19.199v182.165a27.415 27.415 0 0 0 13.844 23.821l97.933 55.797c3.93 2.239 8.552 3.033 12.969 2.063 5.521-1.213 12.071-4.222 13.119-11.642 1.31-9.274 3.374-40.519 26.633-40.519 18.603 0 26.1 18.614 24.06 54.025-1.716 29.788.419 39.981 23.32 53.357l148.834 84.607c18.407 10.464 41.256-2.831 41.256-24.004V235.423a32.381 32.381 0 0 0-16.376-28.15z" fill="#fff"/><path d="m383.535 469.743 82.591-46.288 3.672-2.56a26.05 26.05 0 0 0 11.101-19.74l.283-4.512V234.199c0-6.09-1.95-12.021-5.565-16.922l-90.197 53.83z"/><path d="m12.653 46.769 77.954-44.4a17.074 17.074 0 0 1 12.507-.351l.972.351 358.586 203.879c2.932 1.631 6.202 3.951 8.809 6.062 3.452 2.795 5.408 6.844 5.408 6.844l-78.252 44.586s-3.343-5.46-6.982-8.409c-3.142-2.546-7.125-4.328-11.001-6.653C286.864 192.419 74.872 75.576 26.999 47.369c-6.573-3.873-14.346-.6-14.346-.6z" fill="#fff"/><path d="M386.591 251.769 28.083 47.938C16 41.069 1 49.795 1 63.695V245.86a27.415 27.415 0 0 0 13.844 23.821l97.933 55.797c3.93 2.239 8.552 3.033 12.969 2.063 5.521-1.213 12.071-4.222 13.119-11.642 1.31-9.274 3.374-40.519 26.633-40.519 18.603 0 26.1 18.614 24.06 54.025-1.716 29.788.419 39.981 23.32 53.357l148.834 84.607c18.407 10.464 41.256-2.831 41.256-24.004V279.919a32.379 32.379 0 0 0-16.377-28.15z" fill="#fff"/><path d="m211.425 210.473-57.188-32.514a4.173 4.173 0 0 1-2.11-3.586l-.13-13.539c-.031-3.217 3.437-5.257 6.233-3.667l57.318 32.588a4.173 4.173 0 0 1 2.11 3.627v13.465c.001 3.199-3.452 5.207-6.233 3.626z" fill="#dbf301"/></g></svg></g><g transform="translate(205.2 1057.2) rotate(0.0 1224.6000000000001 849.6) scale(1.368592336955793 1.3692956089384574)"><svg width="1789.576" height="1240.93" viewBox="0 0 1789.576 1240.93"><path d="M893.6 1240.93a.994.994 0 0 1-.501-.135L.498 723.31a1 1 0 0 1 .003-1.732L892.598 207.99a.997.997 0 0 1 .997 0l893.527 513.498a1 1 0 0 1 .003 1.732l-893.024 517.575a.997.997 0 0 1-.501.135zM2.999 722.448 893.6 1238.774l891.024-516.416L893.097 210.01z"/><path d="M357.32 722.163 179.488 619.687l179.8-103.512 178.405 102.043z" fill="#fff"/><path d="M357.32 723.163a.989.989 0 0 1-.499-.134L178.989 620.554a1 1 0 0 1 0-1.733l179.8-103.512c.308-.177.687-.177.996-.001L538.19 617.35a.998.998 0 0 1 .002 1.734L357.819 723.029a.999.999 0 0 1-.499.134zM181.492 619.688 357.32 721.009l178.365-102.787L359.29 517.328z"/><path d="M537.54 825.338 357.32 722.163l180.373-103.945 177.298 102.88z" fill="#fff"/><path d="M537.54 826.338c-.171 0-.343-.044-.497-.132L356.823 723.03a.999.999 0 0 1-.002-1.734l180.374-103.944a1 1 0 0 1 1.001.001l177.298 102.879a.999.999 0 0 1 .004 1.727l-177.451 104.24a.993.993 0 0 1-.507.139zM359.328 722.16l178.206 102.022 175.474-103.079-175.316-101.73z"/><path d="m535.51 824.481 179.481-103.383 179.978 104.579-178.87 102.818z" fill="#87c159"/><path d="M716.099 929.495a.989.989 0 0 1-.499-.134L535.011 825.348a1 1 0 0 1 0-1.732l179.481-103.384a.998.998 0 0 1 1.001.002l179.978 104.579a1 1 0 0 1-.003 1.732l-178.87 102.817a1.01 1.01 0 0 1-.499.133zM537.514 824.481l178.585 102.86L892.97 825.673l-177.981-103.42z"/><path d="M893.957 1032.428 716.099 928.495l178.403-102.818 178.893 103.375z" fill="#fff"/><path d="M893.957 1033.428a.997.997 0 0 1-.504-.137L715.594 929.358a1 1 0 0 1 .004-1.73l178.403-102.817c.31-.178.691-.178 1 0l178.893 103.375a1.002 1.002 0 0 1-.001 1.733l-179.438 103.375a.99.99 0 0 1-.498.134zM718.091 928.501l175.87 102.771 177.434-102.22-176.893-102.22z"/><path d="m893.957 1032.428 179.438-103.376 178.508 103.189-179.117 103.812z" fill="#fff"/><path d="M1072.786 1137.053a.997.997 0 0 1-.501-.135l-178.829-103.625a1 1 0 0 1 .002-1.731l179.438-103.375a1 1 0 0 1 1 .001l178.508 103.189a.999.999 0 0 1 .001 1.731l-179.117 103.812a1.016 1.016 0 0 1-.502.133zm-176.83-104.623 176.83 102.467 177.121-102.655-176.513-102.035z"/><path d="M178.32 825.246 1 722.445l178.488-102.758L357.32 722.163z" fill="#fff"/><path d="M178.32 826.246a.997.997 0 0 1-.501-.135L.499 723.31a.998.998 0 0 1 .002-1.732l178.488-102.757a1 1 0 0 1 .998 0l177.832 102.475a1 1 0 0 1 0 1.733l-179 103.083a1.002 1.002 0 0 1-.499.134zM2.999 722.448l175.323 101.643 176.995-101.928-175.829-101.322z"/><path d="M355.712 928.113 178.32 825.246l179-103.083 178.19 102.318z" fill="#87c159"/><path d="M355.712 929.113c-.173 0-.346-.045-.502-.135L177.818 826.111a.998.998 0 0 1 .003-1.731l179-103.083a1 1 0 0 1 .997-.001l178.19 102.319a1 1 0 0 1 .001 1.733L356.211 928.98a1 1 0 0 1-.499.133zM180.318 825.249l175.395 101.71 177.792-102.475-176.184-101.168z"/><path d="M355.712 928.113 535.54 824.481l180.559 104.014-180.345 103.919z" fill="#fff"/><path d="M535.754 1033.413a.997.997 0 0 1-.501-.135l-180.042-104.3a1 1 0 0 1 .002-1.731l179.828-103.632c.309-.178.689-.178.999 0l180.559 104.013a1 1 0 0 1 0 1.732l-180.346 103.92a1 1 0 0 1-.499.133zM357.71 928.116l178.044 103.143 178.341-102.764-178.555-102.86z"/><path d="m714.327 1135.941-178.573-103.527 180.345-103.919 177.858 103.933z" fill="#dbf301"/><path d="M714.327 1136.941a.994.994 0 0 1-.501-.135l-178.573-103.528a.998.998 0 0 1 .002-1.731L715.6 927.628a.999.999 0 0 1 1.003.003l177.858 103.933a1 1 0 0 1-.004 1.73l-179.63 103.514a1.004 1.004 0 0 1-.5.133zm-176.575-104.525 176.576 102.37 177.637-102.365-175.87-102.771z"/><path d="m714.307 1135.958 179.65-103.53 178.76 103.69L893.6 1239.93z" fill="#fff"/><path d="M893.6 1240.93a.994.994 0 0 1-.501-.135l-179.292-103.972a1 1 0 0 1 .001-1.731l179.65-103.53a1 1 0 0 1 1.001.001l178.759 103.69a1.001 1.001 0 0 1-.001 1.73L894.1 1240.795a.99.99 0 0 1-.5.135zm-177.295-104.969L893.6 1238.774l177.123-102.656-176.767-102.535z"/><path d="m714.295 516.452-176.98-102.745 178.527-102.804 177.234 102.542z" fill="#87c159"/><path d="M714.295 517.452a1 1 0 0 1-.502-.135l-176.98-102.744a.999.999 0 0 1 .003-1.731l178.527-102.804c.309-.178.69-.177 1 .001L893.577 412.58a.999.999 0 0 1-.002 1.731L714.794 517.318a.996.996 0 0 1-.499.134zM539.313 413.711l174.984 101.586 176.779-101.853-175.234-101.386z"/><path d="M892.48 618.829 714.295 516.452l178.781-103.007 179.145 101.818z" fill="#87c159"/><path d="M892.48 619.829a.994.994 0 0 1-.498-.133L713.797 517.319a.998.998 0 0 1-.001-1.733L892.577 412.58a1 1 0 0 1 .993-.003l179.146 101.817a1 1 0 0 1 .006 1.735L892.979 619.696a1 1 0 0 1-.499.133zM716.301 516.451 892.48 617.676l177.729-102.407-177.13-100.671z"/><path d="m892.48 618.829 179.741-103.566 179.426 104.651L1072.8 722.933z" fill="#fff"/><path d="M1072.801 723.933c-.173 0-.345-.045-.5-.134L891.98 619.695a1 1 0 0 1 .001-1.732l179.742-103.566a.999.999 0 0 1 1.003.003l179.426 104.651a1 1 0 0 1-.005 1.73L1073.3 723.8a1 1 0 0 1-.499.133zM894.481 618.83l178.32 102.949 176.852-101.871-177.435-103.49z"/><path d="M1252.417 825.884 1072.8 722.933l178.847-103.019 178.476 103.594z" fill="#fff"/><path d="M1252.417 826.884a1 1 0 0 1-.497-.132l-179.616-102.951a1.001 1.001 0 0 1-.002-1.734l178.847-103.02a.998.998 0 0 1 1.001.002l178.476 103.594a1 1 0 0 1-.003 1.732l-177.706 102.376a1.007 1.007 0 0 1-.5.133zm-177.609-103.953 177.607 101.8 175.71-101.226-176.48-102.436z"/><path d="m1252.417 825.884 177.706-102.376 177.694 102.447-176.743 102.398z" fill="#fff"/><path d="M1431.074 929.353a.997.997 0 0 1-.498-.133l-178.658-102.469a.998.998 0 0 1-.001-1.733l177.706-102.376c.309-.178.689-.178.999 0l177.694 102.447a.999.999 0 0 1 .001 1.731l-176.742 102.398a.992.992 0 0 1-.501.135zm-176.65-103.471 176.648 101.316 174.746-101.241-175.695-101.295z"/><path d="M537.613 618.256 359.288 516.175l178.027-102.468 176.98 102.745z" fill="#fff"/><path d="M537.613 619.255c-.171 0-.343-.044-.497-.132l-178.325-102.08a1 1 0 0 1-.002-1.735L536.816 412.84a1 1 0 0 1 1.001.002l176.98 102.744a.998.998 0 0 1-.003 1.731L538.112 619.122a.998.998 0 0 1-.499.133zM361.297 516.173l176.314 100.93 174.687-100.654-174.985-101.587z"/><path d="M714.991 721.098 537.625 618.243l176.67-101.791L892.48 618.829z" fill="#fff"/><path d="M714.991 722.098a.994.994 0 0 1-.501-.135L537.123 619.108a.998.998 0 0 1 .003-1.731l176.671-101.792a1 1 0 0 1 .997-.001l178.185 102.377a.998.998 0 0 1 .001 1.733l-177.49 102.27a.999.999 0 0 1-.499.134zM539.623 618.246l175.369 101.697L890.475 618.83 714.296 517.606z"/><path d="M714.991 721.098 892.48 618.829l180.32 104.104-178.298 102.744z" fill="#fff"/><path d="M894.502 826.677a.993.993 0 0 1-.503-.136l-179.511-104.58a1 1 0 0 1 .004-1.73l177.489-102.269c.309-.178.69-.178.999 0l180.321 104.104a1 1 0 0 1-.001 1.732L895.002 826.544a1.001 1.001 0 0 1-.5.133zM716.986 721.102l177.52 103.419L1070.8 722.932 892.48 619.983z"/><path d="M1073.395 929.052 894.502 825.677 1072.8 722.933l179.617 102.951z" fill="#dbf301"/><path d="M1073.395 930.052a1 1 0 0 1-.5-.134L894.002 826.543a1.002 1.002 0 0 1 0-1.732l178.299-102.744a.998.998 0 0 1 .996-.001l179.616 102.951a1.001 1.001 0 0 1 .003 1.734l-179.021 103.168a1.001 1.001 0 0 1-.5.133zM896.503 825.679l176.893 102.219 177.014-102.011-177.608-101.8z"/><path d="m1073.395 929.052 179.022-103.168 178.657 102.469-179.187 103.877z" fill="#fff"/><path d="M1251.887 1033.23a1 1 0 0 1-.5-.134l-178.492-103.177a1.002 1.002 0 0 1 0-1.732l179.021-103.168a1 1 0 0 1 .997-.001l178.658 102.469a1 1 0 0 1 .003 1.732l-179.187 103.877a.994.994 0 0 1-.5.134zm-176.491-104.176 176.491 102.021 177.186-102.717-176.655-101.32z"/><path d="M893.076 413.445 716.405 310.58l176.692-101.724 177.76 102.146z" fill="#fff"/><path d="M893.076 414.445a.993.993 0 0 1-.503-.136L715.902 311.444a1 1 0 0 1 .004-1.731L892.598 207.99a1 1 0 0 1 .997 0l177.76 102.146a.998.998 0 0 1 .002 1.733L893.575 414.312a.998.998 0 0 1-.499.133zM718.4 310.584 893.078 412.29l175.773-101.287L893.097 210.01z"/><path d="M1072.221 515.263 893.076 413.445l177.781-102.443 178.887 102.817z" fill="#dbf301"/><path d="M1072.221 516.263a.99.99 0 0 1-.494-.131L892.582 414.315a1 1 0 0 1-.006-1.735l177.781-102.444a1 1 0 0 1 .998 0l178.887 102.818a1.002 1.002 0 0 1-.003 1.735l-177.522 101.443a1.003 1.003 0 0 1-.496.131zM895.089 413.439l177.131 100.673 175.513-100.295-176.875-101.661z"/><path d="m1072.221 515.263 176.787-101.866 180.72 103.907-178.081 102.61z" fill="#fff"/><path d="M1251.647 620.914a.999.999 0 0 1-.504-.136l-179.426-104.651a1 1 0 0 1 .004-1.73l176.787-101.866a1 1 0 0 1 .998 0l180.72 103.907a1 1 0 0 1 .001 1.733l-178.081 102.61a1.005 1.005 0 0 1-.499.133zm-177.432-105.646 177.435 103.49 176.073-101.453-178.715-102.754z"/><path d="m1431.479 723.99-179.832-104.076 178.081-102.61 179.328 103.03z" fill="#fff"/><path d="M1431.479 724.99a.997.997 0 0 1-.501-.135l-179.832-104.076a.999.999 0 0 1 .002-1.731l178.081-102.61a1 1 0 0 1 .997-.001l179.328 103.03a1.001 1.001 0 0 1 .006 1.731l-177.576 103.655a1 1 0 0 1-.505.137zm-177.832-105.074 177.831 102.917 175.583-102.492-177.331-101.883z"/><path d="m1430.123 723.508 178.933-103.174 177.541 102.005-178.78 103.616z" fill="#fff"/><path d="M1607.817 826.955a.995.995 0 0 1-.5-.134l-177.694-102.448a.998.998 0 0 1 0-1.732l178.933-103.174a1 1 0 0 1 .998-.001l177.541 102.004a1 1 0 0 1 .003 1.732l-178.78 103.616a.98.98 0 0 1-.501.137zm-175.692-103.447 175.69 101.292 176.78-102.458-175.539-100.854z"/><path d="M537.693 515.256 359.288 413.175l180.147-103.331 174.86 103.293z" fill="#fff"/><path d="M537.693 516.255c-.171 0-.343-.044-.497-.132L358.79 414.043a1 1 0 0 1-.001-1.735l180.147-103.331a1 1 0 0 1 1.006.006l174.861 103.293a.999.999 0 0 1-.009 1.727l-176.6 102.118a.996.996 0 0 1-.501.134zM361.3 413.174l176.391 100.928 174.623-100.974-172.887-102.127z"/><path d="M714.295 516.137 537.693 618.256v-103l176.602-102.119z" fill="#adc4cb"/><path d="M537.693 619.255a1.003 1.003 0 0 1-1-1v-103a1 1 0 0 1 .5-.866l176.602-102.118a.998.998 0 0 1 1.5.866v103a1 1 0 0 1-.5.866L538.194 619.121a.996.996 0 0 1-.501.134zm1-103.423v100.69L713.295 515.56V414.87zm175.602.305h.01z"/><path d="M537.693 515.256 359.288 413.175v103l178.405 102.081z" fill="#fff"/><path d="M537.693 619.255c-.171 0-.343-.044-.497-.132L358.79 517.043a1 1 0 0 1-.503-.868v-103a1 1 0 0 1 1.496-.868l178.406 102.08a1 1 0 0 1 .503.868v103a1 1 0 0 1-.999 1zm-177.405-103.66 176.406 100.936V515.835L360.288 414.9z"/><path d="M893.076 207.445 716.405 105.151 895.653 1l177.65 103.08z" fill="#fff"/><path d="M893.076 208.445a.997.997 0 0 1-.501-.135L715.904 106.016a.999.999 0 0 1-.001-1.73L895.151.135a1 1 0 0 1 1.004 0l177.65 103.08a1 1 0 0 1-.004 1.733L893.573 208.313a1 1 0 0 1-.497.132zM718.398 105.149l174.681 101.142 178.224-102.216L895.654 2.156z"/><path d="M1070.902 310.623 893.258 413.445l-.182-206 180.227-103.365z" fill="#adc4cb"/><path d="M893.258 414.445a1 1 0 0 1-1-.999l-.182-206c0-.359.191-.69.502-.868l180.228-103.365a1 1 0 0 1 1.498.879l-2.402 206.543a1 1 0 0 1-.499.854L893.759 414.311a1.006 1.006 0 0 1-.501.134zm.818-206.421.18 203.688 175.652-101.67 2.375-204.224zm176.826 102.599h.01z"/><path d="M893.258 207.445 716.587 105.151v206l176.671 102.294z" fill="#fff"/><path d="M893.258 414.445a.997.997 0 0 1-.501-.135L716.086 312.016a1 1 0 0 1-.499-.865v-206a1 1 0 0 1 1.5-.865L893.759 206.58a1 1 0 0 1 .499.865v206a1 1 0 0 1-1 1zM717.587 310.574 892.258 411.71V208.022L717.587 106.885z"/><path d="M178.32 467.138 1 364.467l179.995-103.621L357.32 364.163z" fill="#87c159"/><path d="M178.32 468.138a.997.997 0 0 1-.501-.135L.499 365.332a1 1 0 0 1 .002-1.732l179.995-103.621a1 1 0 0 1 1.005.004L357.825 363.3a.999.999 0 0 1-.007 1.73l-179 102.976a1.003 1.003 0 0 1-.498.132zM3 364.469l175.322 101.514 177.007-101.829-174.338-102.151z"/><path d="M178.32 467.138 1 364.467v358l177.32 102.671z" fill="#fff"/><path d="M178.32 826.138a.997.997 0 0 1-.501-.135L.499 723.332a1 1 0 0 1-.499-.865v-358a1 1 0 0 1 1.5-.865l177.32 102.671a1 1 0 0 1 .499.865v358a1 1 0 0 1-.999 1zM2 721.89l175.32 101.513V467.715L2 366.201z"/><path d="m357.32 722.163-179 102.975v-358l179-102.975z" fill="#adc4cb"/><path d="M178.32 826.138a1 1 0 0 1-1-1v-358a1 1 0 0 1 .501-.867l179-102.975a.999.999 0 0 1 1.498.867v358a1 1 0 0 1-.501.867l-179 102.975a.994.994 0 0 1-.498.133zm1-358.422v355.693l177-101.825V365.892zm178 254.447h.01z"/><path d="M535.754 967.414 355.712 863.113l181.913-102.319 178.474 102.653z" fill="#fff"/><path d="M535.754 968.413a.997.997 0 0 1-.501-.135l-180.042-104.3a1 1 0 0 1 .011-1.737l181.913-102.319a1 1 0 0 1 .989.005L716.597 862.58a1 1 0 0 1 .001 1.733L536.253 968.28a.998.998 0 0 1-.499.133zM357.729 863.126l178.026 103.132 178.34-102.81-176.476-101.504z"/><path d="m716.099 928.447-180.345 103.967v-65l180.345-103.967z" fill="#adc4cb"/><path d="M535.754 1033.413a1.003 1.003 0 0 1-1-1v-65a1 1 0 0 1 .5-.866l180.345-103.966a1.002 1.002 0 0 1 1.5.866v65a1 1 0 0 1-.5.866L536.253 1033.28a.998.998 0 0 1-.499.133zm1-65.422v62.691L715.099 927.87v-62.691zm179.345-39.544h.01z"/><path d="M535.754 967.414 355.712 863.113v65l180.042 104.301z" fill="#fff"/><path d="M535.754 1033.413a.997.997 0 0 1-.501-.135l-180.042-104.3a1 1 0 0 1-.499-.865v-65a1 1 0 0 1 1.501-.865l180.042 104.3a1 1 0 0 1 .499.865v65a1 1 0 0 1-1 1zM356.712 927.537l178.042 103.141V967.99L356.712 864.849z"/><path d="M894.787 929.493 716.125 825.677 894.719 723.49l177.65 103.08z" fill="#fff"/><path d="M894.787 930.493a1 1 0 0 1-.502-.135L715.622 826.542a1 1 0 0 1 .005-1.733l178.594-102.187c.309-.177.689-.176.999.003l177.65 103.08a1.001 1.001 0 0 1-.001 1.73l-177.58 102.923a.998.998 0 0 1-.502.135zm-176.66-104.809 176.661 102.652 175.588-101.766-175.66-101.926z"/><path d="m1073.395 929.052-179.583 103.417.438-102.8 178.119-103.099z" fill="#adc4cb"/><path d="M893.812 1033.469a1 1 0 0 1-1-1.004l.438-102.801a.998.998 0 0 1 .499-.861l178.119-103.098a1 1 0 0 1 1.501.856l1.026 102.482c.003.361-.188.696-.501.877l-179.583 103.417a1.004 1.004 0 0 1-.499.132zm1.435-103.222-.428 100.488 177.57-102.258-1.003-100.183z"/><path d="M894.199 929.682 716.074 825.69v103.148l177.438 103.846z" fill="#fff"/><path d="M893.512 1033.684a1 1 0 0 1-.505-.137L715.569 929.701a.999.999 0 0 1-.495-.863V825.69a.998.998 0 0 1 1.504-.863l178.125 103.991a1 1 0 0 1 .496.87l-.687 103.003a1.001 1.001 0 0 1-1 .993zM717.073 928.265l175.45 102.683.671-100.694-176.121-102.822z"/><path d="m1251.208 554.914-178.987-104.651 179.895-101.274 177.65 103.08z" fill="#fff"/><path d="M1251.208 555.914c-.174 0-.349-.046-.505-.137l-178.987-104.651a1 1 0 0 1 .014-1.734l179.895-101.274c.309-.174.686-.171.993.006l177.65 103.081a.999.999 0 0 1-.003 1.731L1251.707 555.78a.996.996 0 0 1-.499.134zm-176.977-105.635 176.981 103.478 176.556-101.691-175.66-101.926z"/><path d="m1429.766 517.069-178.558 102.845v-65l178.558-102.845z" fill="#adc4cb"/><path d="M1251.208 620.914a1 1 0 0 1-1-1v-65c0-.358.191-.688.501-.866l178.558-102.845a1 1 0 0 1 1.5.867v65a.998.998 0 0 1-.501.866L1251.707 620.78a.996.996 0 0 1-.499.134zm1-65.422v62.692l176.558-101.693v-62.692zm177.558-38.423h.01z"/><path d="m1251.208 554.914-178.987-104.651v65l178.987 104.651z" fill="#fff"/><path d="M1251.208 620.914c-.174 0-.349-.046-.505-.137l-178.987-104.651a.999.999 0 0 1-.495-.863v-65a.998.998 0 0 1 1.504-.863l178.987 104.651a.999.999 0 0 1 .495.863v65a.998.998 0 0 1-.999 1zm-177.987-106.225 176.987 103.481v-62.683l-176.987-103.481z"/><path d="M1072.462 1071.053 894.199 967.791l179.17-102.663 177.651 103.08z" fill="#87c159"/><path d="M1072.462 1072.053a.997.997 0 0 1-.501-.135L893.698 968.656a1 1 0 0 1 .004-1.733l179.17-102.663a.999.999 0 0 1 .999.003l177.65 103.08a.999.999 0 0 1-.003 1.731l-178.558 102.844a.986.986 0 0 1-.498.135zm-176.26-104.258 176.261 102.103 176.558-101.693-175.655-101.923z"/><path d="m1251.16 1032.697-178.698 103.356v-65l178.558-102.845z" fill="#adc4cb"/><path d="M1072.462 1137.053a.998.998 0 0 1-1-1v-65c0-.358.191-.688.501-.866l178.558-102.844a1.001 1.001 0 0 1 1.499.864l.14 64.488a.997.997 0 0 1-.5.868l-178.698 103.356a1.003 1.003 0 0 1-.5.134zm1-65.422v62.688l176.696-102.199-.135-62.184z"/><path d="M1072.462 1071.053 894.199 967.791l-.687 64.893 178.95 103.369z" fill="#fff"/><path d="M1072.462 1137.053c-.173 0-.345-.045-.5-.134l-178.95-103.369a1 1 0 0 1-.5-.876l.687-64.894a1 1 0 0 1 1.501-.855l178.263 103.262a1 1 0 0 1 .499.865v65a.998.998 0 0 1-1 1.001zM894.518 1032.11l176.943 102.21v-62.691l-176.28-102.114z"/><path d="m1252.911 722.993-180.77-102.238 181.678-103.687 176.298 103.579z" fill="#dbf301"/><path d="M1252.911 723.993a.992.992 0 0 1-.492-.13l-180.771-102.238a1.001 1.001 0 0 1-.004-1.738L1253.323 516.2a1 1 0 0 1 1.002.006l176.297 103.579a1 1 0 0 1-.006 1.728l-177.205 102.346a1 1 0 0 1-.5.134zm-178.746-103.242 178.741 101.09L1428.13 620.64l-174.318-102.416z"/><path d="m1430.117 723.647-177.206 102.346v-103l177.206-102.346z" fill="#adc4cb"/><path d="M1252.911 826.993a1.003 1.003 0 0 1-1-1v-103a1 1 0 0 1 .5-.866l177.205-102.346a.998.998 0 0 1 1.5.866v103a1 1 0 0 1-.5.866l-177.205 102.346a1 1 0 0 1-.5.134zm1-103.423v100.69l175.205-101.191v-100.69zm176.205.077h.01z"/><path d="m1252.911 722.993-180.77-102.238.16 101.406 180.61 103.832z" fill="#fff"/><path d="M1252.911 826.993a1 1 0 0 1-.499-.133l-180.61-103.832a.998.998 0 0 1-.501-.865l-.161-101.406a1 1 0 0 1 1.493-.872l180.771 102.238c.314.177.508.51.508.87v103a.998.998 0 0 1-1.001 1zm-179.61-105.411 178.611 102.683V723.576l-178.768-101.105z"/><path d="m1607.817 467.93-177.7-102.422 178.607-103.502 179.852 103.08z" fill="#dbf301"/><path d="M1607.817 468.931a.995.995 0 0 1-.5-.134l-177.7-102.423a.999.999 0 0 1-.001-1.731l178.608-103.502c.31-.179.69-.179.999-.002l179.852 103.08a1 1 0 0 1-.002 1.737L1608.311 468.8a1 1 0 0 1-.494.131zm-175.702-103.426 175.705 101.273 178.739-101.695-177.832-101.923z"/><path d="M1787.433 721.886 1607.817 825.93v-358l179.616-104.044z" fill="#adc4cb"/><path d="M1607.817 826.931a1 1 0 0 1-1-1v-358c0-.357.19-.687.499-.865l179.616-104.045a1 1 0 0 1 1.501.865v358c0 .357-.19.687-.499.865l-179.616 104.045a.997.997 0 0 1-.501.135zm1-358.424v355.689l177.616-102.886V365.621zm178.616 253.379h.01z"/><path d="m1607.817 467.93-177.7-102.422v358l177.7 102.422z" fill="#fff"/><path d="M1607.817 826.931a.995.995 0 0 1-.5-.134l-177.7-102.423a1 1 0 0 1-.5-.866v-358a1 1 0 0 1 1.5-.867l177.7 102.423a1 1 0 0 1 .5.866v358a1 1 0 0 1-1 1.001zM1431.116 722.93l175.7 101.27V468.508l-175.7-101.27z"/></svg></g><g transform="translate(1311.6 2019.6) rotate(0.0 110.39999999999998 102.59999999999991) scale(1.4355560178924371 1.4508636598247922)"><svg width="153.808" height="141.433" viewBox="0 0 153.808 141.433"><path d="m130.063 60.846-32.8 36.294-49.072-17.219.168-54.758 54.407-10.335z" fill="#fff"/><path d="M97.263 98.14a.996.996 0 0 1-.331-.056L47.86 80.865a1 1 0 0 1-.669-.947l.167-54.758a1 1 0 0 1 .813-.979l54.407-10.335a.997.997 0 0 1 1.046.472l27.297 46.018a1 1 0 0 1-.118 1.181L98.005 97.811a1.001 1.001 0 0 1-.742.329zm-48.07-18.927 47.774 16.764 31.86-35.255-26.563-44.781-52.907 10.05z"/><path d="m48.191 79.921-30.203 25.232L1 71.358l20.117-51.12 27.242 4.925z" fill="#fff"/><path d="M17.988 106.153a.998.998 0 0 1-.893-.551L.106 71.807a1.003 1.003 0 0 1-.037-.815l20.117-51.119a1 1 0 0 1 1.108-.618l27.242 4.925a1 1 0 0 1 .822.987l-.167 54.758a.998.998 0 0 1-.359.764l-30.203 25.232a1.004 1.004 0 0 1-.641.232zM2.094 71.308l16.221 32.269 28.877-24.125.164-53.454-25.609-4.63zm46.097 8.613h.01z"/><path d="m139.92 33.606 12.888 43.118-22.745-15.878-27.297-46.018 4.205-13.717z" fill="#adc4cb"/><path d="M152.809 77.724c-.2 0-.4-.06-.572-.18L129.49 61.666a1.004 1.004 0 0 1-.288-.31l-27.297-46.018a.997.997 0 0 1-.096-.803L106.015.818A1 1 0 0 1 107.673.4l32.949 32.496c.12.118.208.264.256.426l12.888 43.118a1 1 0 0 1-.957 1.284zm-21.997-17.575 20.217 14.113-11.993-40.124-31.592-31.157-3.592 11.717z"/><path d="m134.352 118.045-33.946 19.132-3.143-40.037 32.8-36.294 22.745 15.878z"/><path d="M100.406 138.177a1 1 0 0 1-.997-.921l-3.143-40.037a1.004 1.004 0 0 1 .255-.749l32.799-36.295a.999.999 0 0 1 1.314-.149l22.746 15.879a1 1 0 0 1 .341 1.228l-18.457 41.321a.993.993 0 0 1-.422.463l-33.946 19.132a1.001 1.001 0 0 1-.49.128zm-2.112-40.686 2.986 38.045 32.293-18.2 17.985-40.265-21.345-14.901zm36.058 20.554h.01z"/><path d="m100.406 137.177-51.759 3.256-30.659-35.28 30.203-25.232L97.263 97.14z" fill="#adc4cb"/><path d="M48.646 141.433c-.289 0-.564-.125-.755-.344L17.232 105.81a1.003 1.003 0 0 1 .114-1.424L47.55 79.154a.999.999 0 0 1 .972-.176l49.072 17.219a1 1 0 0 1 .666.865l3.143 40.037a1 1 0 0 1-.934 1.077l-51.759 3.256-.064.001zm-29.234-36.166 29.666 34.137 50.252-3.161-3.012-38.375-47.922-16.815z"/><path d="M102.766 14.828 48.359 25.163l-27.242-4.925L58.096 1l48.875.111z" fill="#fff"/><path d="M48.358 26.163a.966.966 0 0 1-.178-.016l-27.242-4.925a1 1 0 0 1-.284-1.871L57.635.113c.143-.075.311-.108.464-.113l48.875.111a1 1 0 0 1 .953 1.293l-4.206 13.717a1 1 0 0 1-.77.689L48.545 26.145a.98.98 0 0 1-.187.018zm-24.184-6.388 24.18 4.371 53.632-10.188 3.633-11.85-47.279-.107zm78.592-4.947h.01z"/></svg></g><g transform="translate(1848.0 1597.2) rotate(0.0 67.19999999999993 67.19999999999993) scale(1.3687608843987724 1.3687608843987724)"><svg width="98.191" height="98.191" viewBox="0 0 98.191 98.191"><circle cx="49.096" cy="49.096" fill="#fff" r="48.096"/><path d="M49.096 98.191C22.024 98.191 0 76.167 0 49.096S22.024 0 49.096 0s49.096 22.024 49.096 49.096-22.025 49.095-49.096 49.095zm0-96.191C23.127 2 2 23.127 2 49.096s21.127 47.096 47.096 47.096 47.096-21.127 47.096-47.096S75.064 2 49.096 2z"/><path d="M47.119 48.921c0 13.028-7.635 23.589-18.014 23.589-10.907 0-19.569-10.561-19.569-23.589s8.189-23.24 18.568-23.24 19.015 10.212 19.015 23.24z" fill="#87c159"/><path d="M29.105 73.51c-11.342 0-20.569-11.031-20.569-24.589 0-13.593 8.595-24.24 19.568-24.24 11.037 0 20.015 10.874 20.015 24.24 0 13.789-8.351 24.589-19.014 24.589zm-1.001-46.829c-9.851 0-17.568 9.769-17.568 22.24 0 12.456 8.33 22.589 18.569 22.589 9.541 0 17.014-9.922 17.014-22.589 0-12.263-8.081-22.24-18.015-22.24z"/><ellipse cx="25.995" cy="48.832" rx="10.195" ry="13.017"/><path d="M25.996 62.849c-6.173 0-11.195-6.288-11.195-14.017s5.022-14.017 11.195-14.017 11.195 6.288 11.195 14.017-5.022 14.017-11.195 14.017zm0-26.034c-5.07 0-9.195 5.391-9.195 12.017s4.125 12.017 9.195 12.017 9.195-5.391 9.195-12.017-4.125-12.017-9.195-12.017z"/><ellipse cx="34.155" cy="40.928" fill="#fff" rx="4.615" ry="3.953" transform="matrix(.2768 -.9609 .9609 .2768 -14.6283 62.4195)"/><path d="M33.82 46.496c-.406 0-.815-.056-1.22-.172-2.624-.756-4.062-3.791-3.206-6.766.407-1.414 1.269-2.612 2.427-3.374 1.208-.794 2.588-1.025 3.887-.651 1.3.374 2.346 1.304 2.945 2.619.575 1.261.667 2.734.26 4.148-.724 2.516-2.862 4.196-5.093 4.196zm.661-9.136c-.527 0-1.063.168-1.56.494-.76.5-1.33 1.301-1.605 2.257-.551 1.915.273 3.84 1.837 4.291 1.565.451 3.286-.741 3.838-2.656.275-.955.219-1.937-.158-2.764-.353-.774-.95-1.317-1.679-1.527a2.395 2.395 0 0 0-.673-.095z"/></svg></g><g transform="translate(1326.0 949.1999999999999) rotate(0.0 94.79999999999995 145.8) scale(1.382740539239638 1.3770891282685798)"><svg width="137.119" height="211.751" viewBox="0 0 137.119 211.751"><path d="M136.119 148.107H1L67.22 1z" fill="#dbf301"/><path d="M136.12 149.107H1a1 1 0 0 1-.912-1.41L66.308.589A1 1 0 0 1 67.213 0c.393.006.747.222.913.576l68.9 147.107a1 1 0 0 1-.906 1.424zm-133.573-2h132L67.238 3.396z"/><path d="M67.092 210.751 1 148.107h135.119z" fill="#87c159"/><path d="M67.092 211.751a1 1 0 0 1-.688-.274L.312 148.833A1 1 0 0 1 1 147.107h135.12a1 1 0 0 1 .672 1.741l-69.028 62.644a1.002 1.002 0 0 1-.672.259zM3.509 149.107l63.598 60.28 66.423-60.28z"/><path d="M136.119 148.107 67.22 1l68.899 68.468z"/><path d="M136.119 149.107a1 1 0 0 1-.905-.576L66.314 1.424A1 1 0 0 1 67.925.29l68.9 68.468c.188.188.295.443.295.709v78.639a1 1 0 0 1-1.001 1.001zM70.521 5.69l64.599 137.924v-73.73z"/><path d="M1 148.107 67.22 1 1 69.468z" fill="#fff"/><path d="M1.001 149.107a.999.999 0 0 1-1.001-1V69.468a1 1 0 0 1 .281-.695L66.501.305a1 1 0 0 1 1.631 1.106L1.912 148.517a1 1 0 0 1-.911.59zM2 69.872v73.577L63.957 5.812z"/></svg></g><g transform="translate(589.1999999999999 519.6) rotate(0.0 412.8 352.8) scale(1.3808606294155428 1.3841373465992908)"><svg width="597.888" height="509.776" viewBox="0 0 597.888 509.776"><path d="M218.122 418.125s-30.747-20.618-32.679-21.964a6.38 6.38 0 0 1-2.756-5.29v-36.484a15.597 15.597 0 0 1 7.834-13.528l155.702-89.355c1.391-.798 2.953-.695 4.168.008s32.68 22.053 32.68 22.053z"/><path d="M218.121 419.125c-.193 0-.387-.056-.557-.169-1.256-.842-30.776-20.638-32.694-21.973-2.024-1.41-3.185-3.637-3.185-6.111v-36.484a16.638 16.638 0 0 1 8.336-14.395l155.702-89.355a5.121 5.121 0 0 1 5.167.01c1.231.713 31.455 21.219 32.741 22.091a1 1 0 0 1 .098 1.58L218.781 418.877a.997.997 0 0 1-.66.248zm130.178-167.179c-.542 0-1.084.142-1.579.426l-155.702 89.355a14.634 14.634 0 0 0-7.332 12.661v36.484c0 1.81.848 3.439 2.328 4.47 1.749 1.218 27.605 18.56 32.027 21.526l163.397-143.2c-9.405-6.379-30.615-20.748-31.549-21.289a3.16 3.16 0 0 0-1.59-.433z"/><path d="m378.311 330.923-152.939 87.769c-4.302 2.469-9.666-.637-9.666-5.597V376.61a15.597 15.597 0 0 1 7.834-13.528l155.702-89.355c2.782-1.596 6.25.412 6.25 3.619v41.176a14.301 14.301 0 0 1-7.181 12.401z" fill="#fff"/><path d="M222.159 420.56a7.436 7.436 0 0 1-3.735-1.015 7.38 7.38 0 0 1-3.719-6.45V376.61a16.638 16.638 0 0 1 8.336-14.395l155.702-89.355c1.619-.929 3.551-.926 5.167.01s2.581 2.609 2.581 4.476v41.176a15.334 15.334 0 0 1-7.683 13.267l-152.938 87.77a7.443 7.443 0 0 1-3.711 1.001zm159.16-146.391c-.542 0-1.084.142-1.579.426L224.038 363.95a14.633 14.633 0 0 0-7.332 12.66v36.484c0 1.969 1.017 3.733 2.721 4.719s3.74.99 5.448.011l152.939-87.769a13.33 13.33 0 0 0 6.678-11.532v-41.176a3.142 3.142 0 0 0-1.583-2.746 3.169 3.169 0 0 0-1.59-.432z"/><path d="m370.299 325.685-137.581 80.026c-3.151 1.809-7.08-.466-7.08-4.1v-20.724c0-4.092 2.189-7.872 5.738-9.909l139.605-81.188c2.038-1.169 4.578.302 4.578 2.651v24.161c0 3.751-2.006 7.216-5.26 9.083z" fill="#adc4cb"/><path d="M230.364 407.347c-.986 0-1.971-.26-2.868-.78a5.67 5.67 0 0 1-2.857-4.956v-20.724c0-4.438 2.391-8.567 6.24-10.776l139.6-81.185c1.275-.732 2.79-.729 4.057.005s2.024 2.046 2.024 3.51v24.161a11.5 11.5 0 0 1-5.757 9.947l-137.581 80.026a5.727 5.727 0 0 1-2.858.772zm142.139-116.965c-.352 0-.703.092-1.024.276l-139.6 81.185a10.451 10.451 0 0 0-5.241 9.044v20.724c0 1.345.695 2.551 1.859 3.225s2.556.677 3.723.007l137.576-80.023.005-.003a9.495 9.495 0 0 0 4.757-8.215v-24.161c0-.742-.384-1.408-1.026-1.78a2.049 2.049 0 0 0-1.029-.279z"/><path d="M252.798 394.294a1 1 0 0 1-1-1v-34.519a1 1 0 0 1 2 0v34.519a1 1 0 0 1-1 1z"/><path d="m285.003 374.307-.457-33.86" fill="#fff"/><path d="M285.003 375.307a1 1 0 0 1-1-.986l-.457-33.86a1 1 0 0 1 .987-1.013 1.014 1.014 0 0 1 1.013.986l.457 33.86a1 1 0 0 1-.987 1.013h-.013z"/><path d="m316.802 355.559-.629-33.895" fill="#fff"/><path d="M316.801 356.559a1 1 0 0 1-1-.981l-.629-33.894a1 1 0 0 1 1.999-.037l.629 33.894a1 1 0 0 1-.981 1.018h-.018zm31.598-17.347a1 1 0 0 1-1-1v-35.451a1 1 0 0 1 2 0v35.451a1 1 0 0 1-1 1z"/><path d="M591.483 130.929 191.255 361.07v-93.804a23.34 23.34 0 0 1 11.705-20.233L591.332 23.71c2.472-1.421 5.555.363 5.555 3.214v94.663a10.776 10.776 0 0 1-5.404 9.342z" fill="#adc4cb"/><path d="M191.255 362.07a1 1 0 0 1-1-1v-93.804c0-8.685 4.677-16.771 12.207-21.1L590.833 22.843a4.66 4.66 0 0 1 4.704.006 4.66 4.66 0 0 1 2.35 4.075v94.663c0 4.203-2.263 8.115-5.906 10.21l-400.227 230.14a1 1 0 0 1-.499.133zM593.18 24.212c-.463 0-.927.122-1.35.365L203.459 247.9a22.397 22.397 0 0 0-11.204 19.367v92.075l398.729-229.279.499.867-.499-.867a9.803 9.803 0 0 0 4.903-8.476V26.923c0-.978-.505-1.854-1.352-2.343a2.699 2.699 0 0 0-1.355-.368z"/><path d="M594.27 23.376a3.691 3.691 0 0 0-2.943.334L204.56 246.11a26.528 26.528 0 0 0-13.304 22.996l-.001 91.965-36.925-21.731v-91.957a26.526 26.526 0 0 1 13.304-22.996l386.778-222.4c2.473-1.429 5.092-1.356 7.763.553z" fill="#fff"/><path d="M191.255 362.07a.996.996 0 0 1-.507-.138l-36.925-21.731a1.002 1.002 0 0 1-.493-.862v-91.957c0-9.823 5.29-18.967 13.805-23.863L553.914 1.12c2.892-1.671 5.949-1.462 8.843.606l32.058 20.811a1 1 0 0 1-.835 1.795 2.698 2.698 0 0 0-2.153.244l-386.768 222.4c-7.896 4.541-12.802 13.02-12.802 22.129l-.001 91.965a.999.999 0 0 1-1.001 1zm-35.925-23.303 34.925 20.554.001-90.216c0-9.823 5.29-18.966 13.805-23.863L590.829 22.843c.144-.083.29-.157.439-.224L561.63 3.378c-2.308-1.648-4.493-1.812-6.718-.526l-386.78 222.4a25.591 25.591 0 0 0-12.802 22.129z"/><path d="M579.94 124.088 191.255 348.549v-81.221L579.789 42.954c2.472-1.421 5.555.363 5.555 3.214v68.578a10.772 10.772 0 0 1-5.404 9.342z" fill="#fff"/><path d="M191.255 349.549a1.003 1.003 0 0 1-1-1v-81.221c0-.357.191-.687.5-.866L579.29 42.088c1.475-.848 3.234-.846 4.705.005s2.35 2.375 2.35 4.075v68.578c0 4.202-2.262 8.114-5.905 10.209l-388.685 224.46a.99.99 0 0 1-.5.134zm1-81.644v78.911L579.44 123.222l.001-.001a9.802 9.802 0 0 0 4.904-8.476V46.168c0-.978-.505-1.854-1.352-2.343a2.68 2.68 0 0 0-2.705-.004z"/><path d="M503.733 168.097 191.255 348.549v-81.221L503.733 86.876z" fill="#dbf301"/><path d="M191.255 349.549a1.003 1.003 0 0 1-1-1v-81.221c0-.357.191-.687.5-.866L503.233 86.01a.998.998 0 0 1 1.5.866v81.221c0 .357-.191.687-.5.866L191.755 349.415a.99.99 0 0 1-.5.134zm1-81.644v78.911L502.733 167.52V88.608zm311.478-99.808h.01z"/><path d="M46.343 506.298S12.71 487.015 7.227 482.28C3.476 479.042 1 474.251 1 468.605V321.799a64.708 64.708 0 0 1 32.649-56.208l107.243-61.169c4.092-2.334 8.583-2.55 12.497-1.214 5.857 2 37.867 22.658 37.867 22.658z" fill="#fff"/><path d="M46.343 507.298c-.173 0-.344-.045-.497-.132-1.377-.789-33.78-19.386-39.273-24.129C2.334 479.377 0 474.252 0 468.605V321.799c0-23.542 12.704-45.413 33.153-57.077l107.243-61.169c4.128-2.355 8.858-2.813 13.315-1.291 5.906 2.016 36.775 21.918 38.086 22.764a.999.999 0 0 1 .346 1.299L47.231 506.757a1 1 0 0 1-.888.541zm102.12-303.916c-2.439 0-4.856.642-7.076 1.908L34.144 266.459C14.317 277.768 2 298.973 2 321.799v146.806c0 5.056 2.088 9.644 5.88 12.918 4.85 4.188 32.657 20.277 38.055 23.387L189.95 226.215c-4.89-3.141-31.705-20.293-36.884-22.061a14.244 14.244 0 0 0-4.603-.772z"/><path d="M169.472 446.448 64.415 506.37c-12.075 6.887-27.088-1.832-27.088-15.734V343.829a64.708 64.708 0 0 1 32.649-56.208l107.243-61.169c10.217-5.827 22.918 1.55 22.918 13.312v153.89a60.779 60.779 0 0 1-30.665 52.794z" fill="#adc4cb"/><path d="M55.439 509.778c-3.3 0-6.598-.872-9.599-2.615-5.957-3.46-9.513-9.639-9.513-16.528V343.829c0-23.542 12.704-45.413 33.153-57.077l107.243-61.169c5.11-2.915 11.199-2.891 16.288.064 5.088 2.955 8.125 8.233 8.125 14.117v153.89c0 22.134-11.944 42.696-31.17 53.662l-.495-.869.495.869L64.91 507.238c-2.969 1.694-6.221 2.54-9.471 2.54zm129.374-284.361c-2.436 0-4.873.634-7.099 1.904L70.471 288.49c-19.827 11.309-32.144 32.514-32.144 55.339v146.806c0 6.168 3.184 11.7 8.518 14.798 5.333 3.098 11.716 3.123 17.074.067l105.057-59.922c18.604-10.611 30.161-30.507 30.161-51.925v-153.89c0-5.163-2.666-9.794-7.13-12.387a14.304 14.304 0 0 0-7.194-1.959z"/><ellipse cx="119.665" cy="342.344" fill="#fff" rx="55.512" ry="31.507" transform="matrix(.4191 -.9079 .9079 .4191 -241.3149 307.5216)"/><path d="M104.459 395.47c-2.997 0-5.844-.601-8.477-1.816C88 389.969 83.031 381.118 81.99 368.73c-1.023-12.183 1.875-26.392 8.16-40.01s15.219-25.041 25.154-32.166c10.103-7.245 20.062-9.205 28.044-5.521s12.951 12.536 13.991 24.923c1.023 12.182-1.876 26.393-8.16 40.01-6.285 13.617-15.219 25.041-25.154 32.166-6.77 4.856-13.476 7.338-19.566 7.338zm30.41-104.249c-5.67 0-11.978 2.356-18.398 6.96-9.659 6.927-18.361 18.07-24.504 31.378s-8.978 27.16-7.983 39.004c.978 11.639 5.536 19.905 12.836 23.275s16.548 1.477 26.04-5.33c9.659-6.927 18.361-18.07 24.504-31.378s8.978-27.16 7.983-39.004c-.978-11.639-5.536-19.905-12.837-23.275-2.362-1.091-4.928-1.63-7.641-1.63z"/><path d="M194.021 420.224a60.763 60.763 0 0 1-24.552 26.221L64.41 506.367c-6.302 3.599-13.418 2.942-18.771-.501 2.921-11.467 7.064-23.226 12.468-34.933 27.65-59.891 77.619-95.732 111.613-80.039 11.384 5.258 19.533 15.619 24.301 29.33z" fill="#fff"/><path d="M55.438 509.757a19.092 19.092 0 0 1-10.339-3.05 1 1 0 0 1-.428-1.088c3.004-11.794 7.22-23.605 12.529-35.105 27.839-60.3 78.503-96.425 112.94-80.528 11.242 5.194 19.827 15.536 24.826 29.91.087.251.071.527-.045.766-5.474 11.251-14.104 20.467-24.956 26.652l-105.06 59.923a19.082 19.082 0 0 1-9.467 2.52zm-8.647-4.357a17.044 17.044 0 0 0 17.123.098l105.061-59.923c10.38-5.916 18.659-14.698 23.965-25.416-4.835-13.644-13.002-23.445-23.638-28.358-33.434-15.434-82.909 20.252-110.285 79.551-5.153 11.159-9.264 22.61-12.226 34.048z"/></svg></g><g transform="translate(493.2 1330.8) rotate(0.0 -108.6 104.39999999999998) scale(-1.2155333068438106 1.2210383504286497)"><svg width="178.687" height="171.002" viewBox="0 0 178.687 171.002"><path d="M26.216 157.767c19.958 22.679 68.112 12.926 107.553-21.784 39.442-34.71 55.236-81.233 35.278-103.912-1.979-2.249-16.017-19.421-18.515-21.039-22.69-14.701-53.508 11.556-89.038 42.823C25.589 85.453 9.64 138.931 9.64 138.931l16.576 18.836z" fill="#dbf301"/><path d="M57.495 170.935c-13.286 0-24.583-4.045-32.03-12.507L8.889 139.592a.997.997 0 0 1-.207-.946c.16-.538 16.444-54.117 52.15-85.542 34.123-30.029 66.355-58.391 90.244-42.912 1.9 1.232 9.165 9.825 15.825 17.782 1.396 1.669 2.452 2.93 2.896 3.435 20.29 23.057 4.425 70.305-35.368 105.324-25.188 22.167-54.02 34.202-76.935 34.202zm-46.734-32.243 16.206 18.414c19.563 22.229 67.178 12.416 106.143-21.874 38.964-34.29 54.749-80.272 35.187-102.501-.449-.51-1.517-1.786-2.929-3.473-4.405-5.264-13.572-16.217-15.379-17.388-22.622-14.655-54.297 13.221-87.834 42.735-33.381 29.377-49.617 78.465-51.394 84.087z"/><ellipse cx="81.055" cy="76.083" fill="#fff" rx="95.132" ry="54.701" transform="matrix(.75069942 -.66064392 .66064392 .75069942 -30.057 72.516)"/><path d="M40.881 152.182c-13.611 0-24.689-4.292-31.992-12.59-20.29-23.057-4.425-70.305 35.367-105.324 39.793-35.019 88.675-44.75 108.966-21.694 20.29 23.057 4.425 70.305-35.367 105.324-19.206 16.901-41.063 28.494-61.546 32.642-5.425 1.099-10.587 1.642-15.428 1.642zM121.15 1.993c-22.364 0-50.727 11.912-75.571 33.777C6.614 70.06-9.172 116.042 10.391 138.271c9.405 10.688 25.572 14.35 45.521 10.309 20.146-4.08 41.675-15.51 60.621-32.184 38.965-34.29 54.75-80.272 35.188-102.501-7.088-8.055-17.861-11.903-30.57-11.903z"/><ellipse cx="80.793" cy="75.522" fill="#dbf301" rx="76.403" ry="38.647" transform="matrix(.75069942 -.66064392 .66064392 .75069942 -29.751 72.203)"/><path d="M43.696 134.765c-9.053 0-16.286-2.741-21.009-8.107-14.442-16.412-.126-52.703 31.914-80.899 15.436-13.584 32.64-23.319 48.444-27.411 16.038-4.153 28.772-2.009 35.854 6.039 7.082 8.047 7.591 20.95 1.433 36.331-6.067 15.156-17.91 30.984-33.347 44.568-15.436 13.584-32.64 23.319-48.444 27.411-5.344 1.384-10.322 2.069-14.846 2.069zm74.203-116.49c-4.352 0-9.164.665-14.353 2.008-15.506 4.015-32.42 13.596-47.624 26.976-31.212 27.467-45.448 62.492-31.733 78.076 6.559 7.452 18.58 9.378 33.852 5.424 15.506-4.015 32.42-13.596 47.624-26.976 15.205-13.381 26.857-28.939 32.812-43.81 5.863-14.645 5.48-26.815-1.078-34.266-4.33-4.92-11.042-7.432-19.499-7.432z"/><path d="m141.867 89.861 16.575 18.835" fill="#dbf301"/><path d="M158.443 109.696a1 1 0 0 1-.751-.339l-16.576-18.835a1 1 0 0 1 1.502-1.321l16.576 18.835a1 1 0 0 1-.751 1.66z"/><path d="m164.52 99.274-16.576-18.836" fill="#dbf301"/><path d="M164.52 100.274a1 1 0 0 1-.751-.339l-16.576-18.836a1 1 0 0 1 1.502-1.321l16.576 18.836a1 1 0 0 1-.751 1.66z"/><path d="m60.602 148.534 16.576 18.835" fill="#dbf301"/><path d="M77.178 168.369a1 1 0 0 1-.751-.339l-16.576-18.836a1 1 0 0 1 1.502-1.321l16.576 18.836a1 1 0 0 1-.751 1.66z"/></svg></g><g transform="translate(837.6 1980.0) rotate(0.0 103.80000000000001 157.20000000000005) scale(1.381311047826897 1.383005397416103)"><svg width="150.292" height="227.331" viewBox="0 0 150.292 227.331"><path d="M112.74 1.984c-2.563-1.226-5.576-1.356-8.127-.107-3.032 1.485-4.492 5.953-4.492 5.953L49.884 132.788c-.342-.026-30.018-.934-44.497 28.627-10.064 20.548-1.871 44.605 14.989 55.768 9.196 6.088 17.462 7.687 17.462 7.687s-24.771-14.866-17.546-47.503c6.217-28.083 39.467-37.57 39.467-37.57l50.069-125.922s1.172-3.585 4.453-6.159c3.808-2.986 7.078-1.608 7.078-1.608z" fill="#dbf301"/><path d="M37.839 225.87c-.063 0-.126-.006-.19-.018-.346-.067-8.569-1.707-17.825-7.835C1.501 205.885-5.235 180.83 4.489 160.975c13.452-27.466 39.924-29.127 44.72-29.189L99.192 7.457c.042-.136 1.608-4.826 4.98-6.478 2.718-1.331 6.083-1.293 8.999.103l8.62 4.124a1 1 0 0 1-.82 1.823c-.106-.042-2.814-1.082-6.072 1.474-3.007 2.359-4.109 5.65-4.12 5.683l-50.09 125.981a1 1 0 0 1-.654.592c-.327.094-32.751 9.662-38.765 36.825-2.927 13.222-.954 25.045 5.865 35.14 5.101 7.552 11.159 11.253 11.22 11.29a1 1 0 0 1-.516 1.856zm11.434-92.093c-4.029 0-29.77 1.089-42.988 28.078-10.372 21.176-.699 44.337 14.644 54.495a56.813 56.813 0 0 0 12.121 6.068c-6.881-6.143-19.119-20.94-13.733-45.267 5.862-26.478 35.544-36.843 39.69-38.168l49.892-125.477c.03-.1 1.286-3.846 4.766-6.576 1.183-.927 2.325-1.477 3.36-1.787l-4.716-2.256c-2.369-1.134-5.082-1.176-7.256-.111-2.176 1.066-3.612 4.234-3.981 5.365l-50.26 125.02a.998.998 0 0 1-1.004.624 13.855 13.855 0 0 0-.535-.008zm98.712-100.766-22.957 3.331-.699-16.841 15.568 7.231a22.813 22.813 0 0 1 7.647 5.769z"/><path d="M125.027 37.342a.996.996 0 0 1-.999-.958l-.699-16.841a.999.999 0 0 1 1.421-.948l15.568 7.231a23.65 23.65 0 0 1 7.981 6.022l.441.51a1 1 0 0 1-.612 1.643l-22.957 3.331a.996.996 0 0 1-.144.01zm.369-16.243.584 14.094 20.017-2.904a21.65 21.65 0 0 0-6.522-4.65zm9.128 45.131-22.957 3.331-.699-16.841 15.568 7.231c2.929 1.36 5.45 2.932 7.562 5.375z"/><path d="M111.567 70.561a.996.996 0 0 1-.999-.958l-.699-16.841a.999.999 0 0 1 1.421-.948l15.568 7.231c3.503 1.627 5.939 3.363 7.897 5.628a.952.952 0 0 1 .108.152l.525.905a1 1 0 0 1-.721 1.491l-22.957 3.331a1.132 1.132 0 0 1-.143.009zm.368-16.243.585 14.094 20.266-2.94c-1.701-1.816-3.767-3.219-6.771-4.614z"/><path d="m125.47 78.539-19.463-7.214 6.15-15.445 19.497 7.846a6.508 6.508 0 0 1 3.639 8.455l-1.024 2.571a6.774 6.774 0 0 1-8.799 3.787z" fill="#dbf301"/><path d="M127.977 80.024a7.76 7.76 0 0 1-2.866-.551l-19.453-7.209a1.001 1.001 0 0 1-.582-1.307l6.15-15.445a.999.999 0 0 1 1.303-.557l19.497 7.846c1.86.741 3.323 2.164 4.116 4.006s.821 3.883.079 5.747l-1.023 2.57a7.725 7.725 0 0 1-4.149 4.265 7.8 7.8 0 0 1-3.072.635zm-20.662-9.28 18.503 6.858.022.009a5.731 5.731 0 0 0 4.418-.061 5.74 5.74 0 0 0 3.082-3.167l1.023-2.571c.544-1.367.524-2.864-.058-4.216s-1.655-2.396-3.022-2.94l-18.569-7.473z"/><path d="m139.006 45.689-19.251-7.748 5.937-14.911 19.497 7.846a6.508 6.508 0 0 1 3.639 8.455l-1.024 2.571a6.772 6.772 0 0 1-8.798 3.787z" fill="#dbf301"/><path d="M141.513 47.174a7.758 7.758 0 0 1-2.877-.556l-.003-.001-19.25-7.748a1.001 1.001 0 0 1-.556-1.298l5.938-14.911a.999.999 0 0 1 1.303-.557l19.497 7.846c1.86.741 3.323 2.164 4.116 4.006s.821 3.883.079 5.747l-1.023 2.57a7.725 7.725 0 0 1-4.149 4.265 7.793 7.793 0 0 1-3.075.637zm-2.136-2.413a5.737 5.737 0 0 0 4.417-.061 5.74 5.74 0 0 0 3.082-3.167l1.023-2.571c.544-1.367.524-2.864-.058-4.216s-1.655-2.396-3.022-2.94l-18.569-7.473-5.197 13.053z"/><path d="M126.99 19.463c2.123-5.247-.409-11.222-5.656-13.345a7.692 7.692 0 0 0-10.016 4.245l-51.51 129.7c-16.772-1.736-34.442 9.138-42.624 27.698-9.837 22.315-2.235 47.272 16.983 55.745 19.217 8.471 42.77-2.751 52.608-25.066 8.77-19.893 3.67-41.876-11.151-52.418l.02-.001zM72.878 193.101c-5.605 12.715-19.592 18.858-31.241 13.723-11.648-5.135-14.515-19.192-8.909-31.906 5.605-12.714 17.558-19.271 29.207-14.135 11.648 5.134 16.547 19.604 10.943 32.318z" fill="#dbf301"/><path d="M47.625 227.32c-4.708 0-9.4-.932-13.863-2.899-19.69-8.681-27.539-34.28-17.495-57.063 8.027-18.208 25.58-29.771 42.886-28.359L110.388 9.994c.873-2.158 2.53-3.843 4.668-4.749s4.501-.925 6.653-.054c5.75 2.326 8.534 8.897 6.208 14.647v.001L76.858 145.686c14.976 11.188 19.546 33.388 10.831 53.158-7.769 17.62-23.999 28.476-40.064 28.476zm8.657-86.438c-15.57 0-30.918 10.801-38.185 27.282-9.599 21.775-2.21 46.19 16.471 54.426 18.682 8.235 41.69-2.779 51.289-24.554 8.461-19.191 3.913-40.724-10.816-51.199a1.001 1.001 0 0 1-.258-1.362l51.279-126.388c1.913-4.727-.377-10.13-5.104-12.043-1.657-.671-3.477-.656-5.123.042s-2.922 1.994-3.592 3.651L60.736 140.432a1 1 0 0 1-1.032.626 33.218 33.218 0 0 0-3.422-.176zM126.99 19.463h.01zM50.242 209.63c-3.042 0-6.095-.608-9.008-1.892-5.787-2.551-9.867-7.444-11.49-13.778-1.542-6.017-.807-12.924 2.069-19.447 2.854-6.474 7.401-11.536 12.803-14.251 5.61-2.82 11.904-2.961 17.722-.396 5.894 2.598 10.328 7.539 12.485 13.912 2.147 6.342 1.781 13.347-1.031 19.725-4.421 10.031-13.919 16.127-23.55 16.127zm3.595-49.613c-2.826 0-5.629.678-8.323 2.032-4.988 2.508-9.204 7.221-11.871 13.271-2.696 6.115-3.393 12.558-1.962 18.143 1.489 5.809 5.071 10.113 10.359 12.444 11.124 4.904 24.548-1.022 29.922-13.211 2.61-5.92 2.953-12.411.967-18.277-1.976-5.835-6.024-10.354-11.398-12.723-2.541-1.119-5.127-1.679-7.694-1.679z"/><path d="M61.935 160.782a21.345 21.345 0 0 0-2.311-.858c6.812 6.77 8.95 17.875 4.528 27.908-5.239 11.883-17.799 18.021-28.93 14.58 1.822 1.81 3.958 3.328 6.415 4.412 11.649 5.135 25.635-1.008 31.241-13.723 5.604-12.714.705-27.184-10.943-32.319z"/><path d="M50.242 209.63c-3.042 0-6.095-.608-9.008-1.892-2.471-1.09-4.73-2.643-6.717-4.617a1 1 0 0 1 1-1.664c10.803 3.34 22.721-2.691 27.719-14.028 4.126-9.36 2.391-20.128-4.318-26.795a1 1 0 0 1 1-1.664 22.56 22.56 0 0 1 2.418.898c5.894 2.598 10.328 7.539 12.485 13.912 2.147 6.342 1.781 13.347-1.031 19.725-4.419 10.029-13.917 16.124-23.548 16.125zm-11.253-5.407a19.72 19.72 0 0 0 3.052 1.685c11.123 4.903 24.547-1.022 29.921-13.211 2.61-5.92 2.953-12.411.967-18.277-1.789-5.284-5.276-9.487-9.91-11.994 5.002 7.201 5.894 17.083 2.047 25.809-4.791 10.868-15.508 17.212-26.077 15.988z"/></svg></g><g transform="translate(1698.0 620.4) rotate(0.0 329.39999999999986 348.59999999999997) scale(1.3797118689148062 1.3797853139545928)"><svg width="477.491" height="505.296" viewBox="0 0 477.491 505.296"><path d="M457.119 244.945 33.037 3.833C18.744-4.293 1 6.03 1 22.472v215.484a32.43 32.43 0 0 0 16.376 28.178l115.845 66.003c4.648 2.648 10.116 3.588 15.341 2.44 6.531-1.435 14.279-4.994 15.519-13.771 1.549-10.971 3.991-47.93 31.505-47.93 22.005 0 30.874 22.018 28.46 63.906-2.03 35.236.496 47.294 27.586 63.116L427.689 499.98c21.773 12.377 48.802-3.348 48.802-28.394V278.245a38.307 38.307 0 0 0-19.372-33.3z" fill="#dbf301"/><path d="M443.834 505.299c-5.709 0-11.42-1.482-16.639-4.449L251.139 400.768c-26.919-15.723-30.179-27.778-28.09-64.043 1.614-28.009-1.954-46.857-10.605-56.021-4.277-4.531-9.949-6.828-16.857-6.828-24.602 0-28.487 30.994-30.146 44.229a187.578 187.578 0 0 1-.369 2.841c-1.052 7.446-6.686 12.497-16.294 14.608-5.389 1.185-11.089.279-16.051-2.548L16.881 267.003C6.468 261.071 0 249.94 0 237.956V22.472C0 14.39 4.17 7.139 11.156 3.075s15.35-4.106 22.376-.111l424.082 241.112c12.261 6.971 19.878 20.064 19.878 34.169v193.342c0 12.122-6.255 22.999-16.733 29.095-5.29 3.077-11.106 4.617-16.925 4.617zM195.587 271.876c7.48 0 13.642 2.508 18.312 7.455 9.171 9.714 12.817 28.526 11.147 57.509-2.065 35.843.908 46.902 27.092 62.195l176.046 100.077c9.913 5.635 21.714 5.576 31.569-.158s15.739-15.964 15.739-27.366V278.245c0-13.387-7.229-25.814-18.867-32.43L32.543 4.703c-6.399-3.638-14.019-3.601-20.381.101C5.799 8.506 2 15.11 2 22.472v215.484c0 11.267 6.082 21.732 15.872 27.31l115.845 66.003c4.531 2.582 9.728 3.41 14.632 2.332 6.081-1.336 13.575-4.665 14.743-12.934.114-.804.232-1.75.365-2.81 1.724-13.76 5.762-45.981 32.13-45.981z"/><path d="M209.189 259.107c27.138 10.37 36.235 42.455 34.126 79.051-1.774 30.784.433 41.319 24.101 55.142l153.814 87.438c19.022 10.814 42.636-2.925 42.636-24.807V287.016a33.468 33.468 0 0 0-16.925-29.093L42.774 28.68c-12.487-7.1-27.99 1.919-27.99 16.284v188.26a28.333 28.333 0 0 0 14.307 24.618L130.3 315.506c4.061 2.314 8.838 3.135 13.403 2.132 5.706-1.254 8.676-6.614 9.759-14.282 1.356-9.585 10.933-61.367 55.727-44.249z"/><path d="M435.335 485.511c-5.009 0-10.02-1.3-14.599-3.903L266.922 394.17c-23.578-13.771-26.434-24.325-24.605-56.069 1.374-23.849-1.149-65.703-33.485-78.06-12.276-4.691-22.893-4.481-31.554.626-17.417 10.269-22.069 37.479-22.824 42.829-1.239 8.768-4.783 13.855-10.535 15.118-4.738 1.041-9.75.246-14.113-2.24L28.597 258.711a29.392 29.392 0 0 1-14.812-25.487V44.963c0-7.106 3.667-13.482 9.809-17.055s13.497-3.61 19.675-.098l404.167 229.244c10.753 6.113 17.432 17.594 17.432 29.963v168.915c0 10.636-5.489 20.179-14.682 25.528-4.642 2.7-9.745 4.051-14.851 4.051zM209.546 258.173c24.847 9.495 37.195 37.922 34.768 80.043-1.801 31.253.791 40.895 23.607 54.221l153.803 87.432c8.62 4.901 18.884 4.849 27.455-.138s13.688-13.884 13.688-23.8V287.016c0-11.651-6.292-22.465-16.42-28.223L42.281 29.549c-5.552-3.157-12.161-3.124-17.681.087s-8.815 8.941-8.815 15.327v188.26a27.387 27.387 0 0 0 13.803 23.749l101.209 57.664c3.931 2.24 8.439 2.958 12.694 2.024 4.852-1.066 7.874-5.589 8.984-13.445.454-3.214 1.897-11.655 5.486-20.604 4.488-11.191 10.646-19.154 18.303-23.669 9.21-5.429 20.409-5.689 33.282-.769z"/><path d="m118.774 141.736-67.648-38.461a4.936 4.936 0 0 1-2.496-4.242l-.154-26.015c-.037-3.805 4.066-6.218 7.374-4.337l67.802 38.549a4.934 4.934 0 0 1 2.496 4.29v25.927c0 3.783-4.085 6.159-7.374 4.289z" fill="#dbf301"/><path d="M121.213 143.39a5.914 5.914 0 0 1-2.934-.785l-67.648-38.461a5.953 5.953 0 0 1-3.001-5.102l-.154-26.019a5.87 5.87 0 0 1 2.926-5.169 5.875 5.875 0 0 1 5.942-.044l67.802 38.549a5.946 5.946 0 0 1 3.002 5.159v25.927a5.878 5.878 0 0 1-2.95 5.13 5.922 5.922 0 0 1-2.985.815zM53.41 69.028c-.686 0-1.372.183-1.994.55a3.894 3.894 0 0 0-1.939 3.429l.154 26.019a3.944 3.944 0 0 0 1.99 3.379l67.648 38.461c1.232.7 2.699.693 3.923-.02a3.896 3.896 0 0 0 1.956-3.401v-25.927a3.944 3.944 0 0 0-1.99-3.421L55.356 69.549a3.934 3.934 0 0 0-1.946-.521z"/><path d="m99.638 93.576 24.014 13.653a4.934 4.934 0 0 1 2.496 4.29v25.927c0 3.784-4.084 6.16-7.374 4.29l-19.136-11.243z" fill="#fff"/><path d="M121.213 143.39a5.914 5.914 0 0 1-2.934-.785l-19.148-11.25a1 1 0 0 1-.493-.862V93.576a.999.999 0 0 1 1.494-.869l24.014 13.653a5.946 5.946 0 0 1 3.002 5.159v25.927a5.878 5.878 0 0 1-2.95 5.13 5.931 5.931 0 0 1-2.985.814zm-20.575-13.469 18.642 10.953c1.219.693 2.686.686 3.911-.027s1.956-1.984 1.956-3.401v-25.927a3.942 3.942 0 0 0-1.99-3.421l-22.52-12.803v34.626z"/><path d="M99.638 131.493a1 1 0 0 1-.486-.126L69.884 115.09a1 1 0 0 1-.514-.874V76.935a.999.999 0 0 1 1.494-.869l29.268 16.641a1 1 0 0 1 .506.869v36.918a1.002 1.002 0 0 1-1 .999zM71.37 113.628l27.268 15.165V94.157L71.37 78.654z"/><path d="m133.558 139.01-7.41-4.222v-16.864l8.166 4.777a5.175 5.175 0 0 1 2.562 4.468v9.912c0 1.703-1.839 2.772-3.318 1.929z" fill="#fff"/><path d="M134.657 140.306a3.211 3.211 0 0 1-1.594-.427l-7.41-4.222a1.001 1.001 0 0 1-.505-.869v-16.864a1 1 0 0 1 1.504-.863l8.166 4.777a6.198 6.198 0 0 1 3.058 5.331v9.912c0 1.16-.599 2.201-1.602 2.784a3.207 3.207 0 0 1-1.617.441zm-7.509-6.099 6.905 3.934c.55.313 1.034.101 1.216-.005s.607-.421.607-1.054v-9.912a4.192 4.192 0 0 0-2.067-3.605l-6.661-3.897z"/><ellipse cx="415.341" cy="413.907" fill="#87c159" rx="25.49" ry="44.35" transform="matrix(.866 -.5 .5 .866 -151.3084 263.1238)"/><path d="M429.419 455.397c-4.468 0-9.406-1.494-14.508-4.454-8.507-4.934-16.501-13.383-22.51-23.791-12.503-21.656-12.384-45.216.266-52.519 12.65-7.302 33.113 4.373 45.616 26.03 6.009 10.408 9.329 21.556 9.349 31.39.02 10.035-3.395 17.539-9.614 21.13-2.565 1.479-5.466 2.214-8.599 2.214zm-28.128-80.982c-2.757 0-5.335.628-7.625 1.95-11.694 6.752-11.485 29.086.466 49.787 5.837 10.11 13.573 18.3 21.781 23.061 8.036 4.66 15.529 5.454 21.103 2.237s8.633-10.105 8.614-19.394c-.019-9.489-3.243-20.283-9.081-30.394-9.61-16.647-23.935-27.247-35.258-27.247zm-264.372-76.926a6.246 6.246 0 0 0 3.477-5.573l.012-2.92v-.066l-10.302 4.644-.006.003-1.102 2.616 5.207 2.638z"/><path d="M134.206 299.831a1 1 0 0 1-.452-.108l-5.207-2.638a.999.999 0 0 1-.47-1.28l1.102-2.616a1 1 0 0 1 .474-.506l10.344-4.664a1 1 0 0 1 1.411.912l-.012 2.991a7.205 7.205 0 0 1-4.034 6.465l-2.713 1.342a1.009 1.009 0 0 1-.443.102zm-3.924-4.109 3.929 1.99 2.265-1.12a5.216 5.216 0 0 0 2.92-4.68l.006-1.432-8.532 3.846z"/><path d="m110.362 285.502 19.705 8.153.043-.017.038-.014 10.261-4.627.046-.02c.038-8.673-4.064-15.752-11.593-20.061L42.88 219.814c-1.814-.918-3.593-.921-5.089-.312-.82.334-2.98 1.56-5.192 2.859-2.987 1.754-2.509 11.73-2.509 11.73z"/><path d="M130.066 294.655a.99.99 0 0 1-.382-.076l-19.705-8.153a1.018 1.018 0 0 1-.157-.082l-80.271-51.411a.998.998 0 0 1-.459-.794c-.085-1.767-.338-10.679 3.001-12.64 2.824-1.659 4.565-2.615 5.321-2.923 1.872-.762 3.973-.639 5.918.346l86.026 49.126c7.84 4.487 12.136 11.921 12.097 20.933a1 1 0 0 1-.602.913l-10.295 4.641-.122.049a1.002 1.002 0 0 1-.37.071zm-19.24-10.043 19.231 7.957 9.393-4.237c-.166-7.973-4.084-14.542-11.084-18.548l-85.981-49.101c-1.397-.706-2.87-.802-4.216-.254-.451.184-1.697.819-5.063 2.796-1.625.954-2.156 6.426-2.036 10.307z"/><path d="m136.35 291.98.003 3.471c.002 2.836-3.071 4.606-5.523 3.181l-95.811-55.699a10.977 10.977 0 0 1-5.461-9.5l.004-4.991c-.136-2.9 1.476-5.458 3.838-6.449 1.49-.624 3.281-.624 5.121.309l86.197 49.366a23.984 23.984 0 0 1 5.51 4.295c.087.093.173.182.257.274.087.092.17.188.254.28l.312.358.295.352c2.989 3.679 4.699 8.205 4.968 13.239.003.02.003.043.003.064.024.479.036.962.033 1.45z" fill="#fff"/><path d="M132.677 300.137a4.667 4.667 0 0 1-2.35-.641l-95.812-55.699a12.017 12.017 0 0 1-5.959-10.365l.003-4.991c-.151-3.209 1.637-6.191 4.452-7.371 1.869-.782 3.985-.662 5.959.339l86.242 49.39a25.037 25.037 0 0 1 5.739 4.475l1.162 1.314c3.124 3.845 4.919 8.623 5.196 13.824l.004.117c.026.444.038.945.035 1.453l.003 3.467a4.629 4.629 0 0 1-2.342 4.056 4.645 4.645 0 0 1-2.332.632zm-97.096-77.583c-.614 0-1.218.119-1.795.361-2.042.856-3.339 3.059-3.226 5.48l-.002 5.038a10.013 10.013 0 0 0 4.964 8.635l95.811 55.699c.838.487 1.84.489 2.68.005s1.341-1.351 1.34-2.321l-.003-3.471v-.007c.003-.468-.008-.93-.033-1.389-.258-4.841-1.899-9.219-4.748-12.727l-1.071-1.212a23.053 23.053 0 0 0-5.277-4.11L38.022 223.17c-.806-.409-1.633-.616-2.441-.616z"/></svg></g><g transform="translate(343.2 1173.6) rotate(-18.603230737626244 108.6 104.39999999999998) scale(1.2155333068438106 1.2210383504286497)"><svg width="178.687" height="171.002" viewBox="0 0 178.687 171.002"><path d="M26.216 157.767c19.958 22.679 68.112 12.926 107.553-21.784 39.442-34.71 55.236-81.233 35.278-103.912-1.979-2.249-16.017-19.421-18.515-21.039-22.69-14.701-53.508 11.556-89.038 42.823C25.589 85.453 9.64 138.931 9.64 138.931l16.576 18.836z" fill="#dbf301"/><path d="M57.495 170.935c-13.286 0-24.583-4.045-32.03-12.507L8.889 139.592a.997.997 0 0 1-.207-.946c.16-.538 16.444-54.117 52.15-85.542 34.123-30.029 66.355-58.391 90.244-42.912 1.9 1.232 9.165 9.825 15.825 17.782 1.396 1.669 2.452 2.93 2.896 3.435 20.29 23.057 4.425 70.305-35.368 105.324-25.188 22.167-54.02 34.202-76.935 34.202zm-46.734-32.243 16.206 18.414c19.563 22.229 67.178 12.416 106.143-21.874 38.964-34.29 54.749-80.272 35.187-102.501-.449-.51-1.517-1.786-2.929-3.473-4.405-5.264-13.572-16.217-15.379-17.388-22.622-14.655-54.297 13.221-87.834 42.735-33.381 29.377-49.617 78.465-51.394 84.087z"/><ellipse cx="81.055" cy="76.083" fill="#fff" rx="95.132" ry="54.701" transform="matrix(.75069942 -.66064392 .66064392 .75069942 -30.057 72.516)"/><path d="M40.881 152.182c-13.611 0-24.689-4.292-31.992-12.59-20.29-23.057-4.425-70.305 35.367-105.324 39.793-35.019 88.675-44.75 108.966-21.694 20.29 23.057 4.425 70.305-35.367 105.324-19.206 16.901-41.063 28.494-61.546 32.642-5.425 1.099-10.587 1.642-15.428 1.642zM121.15 1.993c-22.364 0-50.727 11.912-75.571 33.777C6.614 70.06-9.172 116.042 10.391 138.271c9.405 10.688 25.572 14.35 45.521 10.309 20.146-4.08 41.675-15.51 60.621-32.184 38.965-34.29 54.75-80.272 35.188-102.501-7.088-8.055-17.861-11.903-30.57-11.903z"/><ellipse cx="80.793" cy="75.522" fill="#dbf301" rx="76.403" ry="38.647" transform="matrix(.75069942 -.66064392 .66064392 .75069942 -29.751 72.203)"/><path d="M43.696 134.765c-9.053 0-16.286-2.741-21.009-8.107-14.442-16.412-.126-52.703 31.914-80.899 15.436-13.584 32.64-23.319 48.444-27.411 16.038-4.153 28.772-2.009 35.854 6.039 7.082 8.047 7.591 20.95 1.433 36.331-6.067 15.156-17.91 30.984-33.347 44.568-15.436 13.584-32.64 23.319-48.444 27.411-5.344 1.384-10.322 2.069-14.846 2.069zm74.203-116.49c-4.352 0-9.164.665-14.353 2.008-15.506 4.015-32.42 13.596-47.624 26.976-31.212 27.467-45.448 62.492-31.733 78.076 6.559 7.452 18.58 9.378 33.852 5.424 15.506-4.015 32.42-13.596 47.624-26.976 15.205-13.381 26.857-28.939 32.812-43.81 5.863-14.645 5.48-26.815-1.078-34.266-4.33-4.92-11.042-7.432-19.499-7.432z"/><path d="m141.867 89.861 16.575 18.835" fill="#dbf301"/><path d="M158.443 109.696a1 1 0 0 1-.751-.339l-16.576-18.835a1 1 0 0 1 1.502-1.321l16.576 18.835a1 1 0 0 1-.751 1.66z"/><path d="m164.52 99.274-16.576-18.836" fill="#dbf301"/><path d="M164.52 100.274a1 1 0 0 1-.751-.339l-16.576-18.836a1 1 0 0 1 1.502-1.321l16.576 18.836a1 1 0 0 1-.751 1.66z"/><path d="m60.602 148.534 16.576 18.835" fill="#dbf301"/><path d="M77.178 168.369a1 1 0 0 1-.751-.339l-16.576-18.836a1 1 0 0 1 1.502-1.321l16.576 18.836a1 1 0 0 1-.751 1.66z"/></svg></g></svg>