<svg xmlns="http://www.w3.org/2000/svg" viewBox="0 0 3000 3000" width="3000" height="3000"><g transform="translate(1291.2 345.59999999999997) rotate(0.0 689.9999999999999 889.8) scale(1.1992950230994648 1.199482354209916)"><svg width="1150.676" height="1483.64" viewBox="0 0 1150.676 1483.64"><path d="m623.443 1412.571-392.669-227.035v-9.835l392.669 227.035z" fill="#adc4cb"/><path d="M623.443 1413.571a1 1 0 0 1-.5-.134l-392.668-227.035a1.002 1.002 0 0 1-.5-.866v-9.835a1 1 0 0 1 1.5-.866l392.668 227.035c.309.179.5.509.5.866v9.835a1 1 0 0 1-1 1zm-391.668-228.612 390.668 225.878v-7.525l-390.668-225.878z"/><path d="m884.599 1251.319-261.156 151.417v9.835l261.156-151.417z"/><path d="M623.443 1413.571a1 1 0 0 1-1-1v-9.835a1 1 0 0 1 .498-.865l261.156-151.417a1 1 0 0 1 1.502.865v9.835a1 1 0 0 1-.498.865l-261.157 151.417a.997.997 0 0 1-.501.135zm1-10.259v7.523l259.156-150.257v-7.523z"/><path d="m623.443 1402.736-392.669-227.035 261.513-150.512 392.312 226.13z" fill="#fff"/><path d="M623.443 1403.736a1 1 0 0 1-.5-.134l-392.668-227.035a1 1 0 0 1 .001-1.733l261.512-150.512a1 1 0 0 1 .998 0l392.313 226.13a.999.999 0 0 1 .001 1.731L623.944 1403.6a.997.997 0 0 1-.501.135zm-390.667-228.033 390.667 225.877 259.159-150.259-390.315-224.979-259.511 149.36z"/><path d="m467.564 1036.135-.322 108.104 207.875 120.839v-108.68z" fill="#adc4cb"/><path d="M675.117 1266.078a.998.998 0 0 1-.502-.135L466.74 1145.104a1 1 0 0 1-.498-.867l.323-108.104a1 1 0 0 1 1.502-.862l207.552 120.263a1 1 0 0 1 .499.865v108.68a1 1 0 0 1-1 1zm-206.873-122.413 205.873 119.675v-106.366l-205.558-119.107-.316 105.798z"/><path d="m688.36 1257.01-13.243 8.068v-108.68l13.243-7.616z"/><path d="M675.117 1266.078a1 1 0 0 1-1-1v-108.68a1 1 0 0 1 .501-.867l13.243-7.616a.999.999 0 0 1 1.498.867v108.228a1 1 0 0 1-.48.854l-13.243 8.068a1 1 0 0 1-.52.146zm1-109.102v106.322l11.243-6.85V1150.51zm12.243 100.034h.01z"/><path d="m1149.676 645.731-3.258 821.442-25.817 15.465-26.461-38.871 11.102-773.799z" fill="#adc4cb"/><path d="M1120.602 1483.638a.997.997 0 0 1-.827-.437l-26.462-38.871a.996.996 0 0 1-.173-.577l11.102-773.799a1 1 0 0 1 .521-.864l44.434-24.237a.999.999 0 0 1 1.479.882l-3.258 821.441a1 1 0 0 1-.486.854l-25.817 15.466a.999.999 0 0 1-.513.142zm-25.458-40.173 25.753 37.83 24.523-14.691 3.249-819.185-42.436 23.147z"/><path d="M1105.242 669.968 13.057 35.368 1 16.035 26.94 1l1122.736 644.731z" fill="#fff"/><path d="M1105.242 670.968a.998.998 0 0 1-.502-.135L12.554 36.233a1 1 0 0 1-.346-.335L.151 16.564a1.004 1.004 0 0 1 .347-1.395L26.438.135a1 1 0 0 1 1-.002l1122.736 644.731a1 1 0 0 1-.019 1.745l-44.434 24.237a.992.992 0 0 1-.479.122zM13.774 34.628 1105.257 668.82l42.371-23.112L26.942 2.155 2.395 16.382z"/><path d="M1120.599 1482.64 4.433 835.435 1.006 16.036l1121.625 644.442z" fill="#87c159"/><path d="M1120.599 1483.639c-.173 0-.346-.045-.502-.135L3.931 836.3a1 1 0 0 1-.498-.861L.006 16.04a1.002 1.002 0 0 1 1.498-.872L1123.129 659.61a1 1 0 0 1 .502.869l-2.032 822.161a.999.999 0 0 1-1 .998zM5.43 834.857l1114.174 646.049 2.026-819.85L2.014 17.768l3.417 817.09z"/><path d="M1.48 129.41 1.006 16.036l1121.625 644.442-.279 112.942z"/><path d="M1122.352 774.42a.994.994 0 0 1-.498-.133L.982 130.277a1.002 1.002 0 0 1-.502-.863L.006 16.04a1.002 1.002 0 0 1 1.498-.872L1123.129 659.61c.311.179.503.511.502.87l-.279 112.942a1 1 0 0 1-1 .998zM2.478 128.83l1118.878 642.864.274-110.638L2.013 17.768zm1.955 706.605-.45-107.636 1116.896 641.726-.28 113.115z"/><path d="M1120.599 1483.639a.997.997 0 0 1-.501-.135L3.931 836.3a1 1 0 0 1-.498-.861l-.45-107.636a1.002 1.002 0 0 1 1.498-.872l1116.896 641.725a1 1 0 0 1 .502.869l-.28 113.115a.999.999 0 0 1-1 .998zM5.43 834.857l1114.174 646.049.274-110.803L4.99 729.531z"/><path d="M1120.879 1322.821 3.788 681.165l-.069-16.436 1117.16 642.098z" fill="#fff"/><path d="M1120.879 1323.821a.994.994 0 0 1-.498-.133L3.29 682.032a1 1 0 0 1-.502-.863l-.069-16.436a1.002 1.002 0 0 1 1.498-.871l1117.16 642.097a1 1 0 0 1 .502.867v15.995a.998.998 0 0 1-1 1zM4.785 680.585l1115.094 640.509v-13.688L4.726 666.462z"/><path d="M188.782 790.429v-22.417l-5.063-3.015v22.417z"/><path d="M188.782 791.429a1 1 0 0 1-.512-.141l-5.063-3.015a1 1 0 0 1-.488-.859v-22.417a1 1 0 0 1 1.512-.859l5.063 3.015a1 1 0 0 1 .488.859v22.417a.998.998 0 0 1-1 1zm-4.063-4.583 3.063 1.824v-20.09l-3.063-1.824z"/><path d="m637.009 784.8-194.687-1.483-.77-223.997z" fill="#fff"/><path d="M637.009 785.8h-.008l-194.687-1.482a1 1 0 0 1-.992-.997l-.77-223.998a1 1 0 0 1 1.756-.659l195.457 225.48a1 1 0 0 1-.756 1.655zm-193.69-3.475 191.485 1.458-192.243-221.772.757 220.314z"/></svg></g><g transform="translate(825.6 1611.6) rotate(0.0 570.0 391.20000000000005) scale(1.1992249219977824 1.1986836541466734)"><svg width="950.614" height="652.716" viewBox="0 0 950.614 652.716"><path d="M910.111 297.651s-10.596 183.436-175.003 281.147c-65.341 38.834-157.183 72.918-287.973 72.918-149.667 0-258.373-69.122-322.987-129.106-98.023-91.001-98.023-222.814-98.023-222.814s232.4-31.021 421.011-31.021 462.975 28.876 462.975 28.876z" fill="#dbf301"/><path d="M447.136 652.716c-67.691 0-132.896-14.181-193.805-42.15-47.145-21.648-90.837-50.995-129.862-87.223-50.808-47.168-74.841-105.429-86.055-145.999-12.149-43.951-12.289-77.217-12.289-77.548a1 1 0 0 1 .868-.991c2.325-.31 234.623-31.03 421.144-31.03s460.335 28.593 463.08 28.882a1 1 0 0 1 .894 1.052c-.026.46-2.924 46.687-25.918 104.245-13.505 33.805-31.199 64.862-52.59 92.308-26.744 34.313-59.373 63.045-96.981 85.396-36.95 21.96-77.217 39.161-119.683 51.125-51.662 14.554-108.454 21.934-168.801 21.934zM27.137 300.671c.112 5.518 1.227 36.453 12.222 76.202 11.148 40.301 35.025 98.172 85.471 145.004 63.312 58.776 170.622 128.839 322.306 128.839 109.491 0 206.207-24.486 287.462-72.778 84.659-50.315 127.596-123.839 148.708-176.658 21.073-52.722 25.195-95.86 25.737-102.735-18.074-1.872-281.082-28.771-461.908-28.771S43.018 298.591 27.136 300.67z"/><ellipse cx="467.958" cy="286.207" fill="#fff" rx="442.94" ry="191.471"/><path d="M467.958 478.678c-118.447 0-229.82-19.946-313.603-56.163-84.049-36.332-130.337-84.741-130.337-136.308s46.288-99.976 130.337-136.308c83.783-36.217 195.156-56.163 313.603-56.163s229.82 19.946 313.602 56.163c84.049 36.332 130.337 84.741 130.337 136.308s-46.288 99.976-130.337 136.308c-83.782 36.217-195.155 56.163-313.602 56.163zm0-382.941c-243.687 0-441.94 85.445-441.94 190.471s198.253 190.471 441.94 190.471 441.94-85.445 441.94-190.471S711.645 95.737 467.958 95.737z"/><ellipse cx="468.019" cy="286.207" fill="#fff" rx="430.467" ry="177.052"/><path d="M468.019 464.259c-115.109 0-223.344-18.443-304.766-51.932-81.704-33.605-126.7-78.395-126.7-126.119s44.996-92.514 126.7-126.119c81.422-33.489 189.657-51.932 304.766-51.932s223.344 18.443 304.766 51.932c81.704 33.605 126.701 78.395 126.701 126.119s-44.997 92.514-126.701 126.119c-81.422 33.489-189.657 51.932-304.766 51.932zm0-354.103c-236.809 0-429.467 78.976-429.467 176.052S231.21 462.26 468.019 462.26s429.467-78.977 429.467-176.052-192.658-176.052-429.467-176.052z"/><path d="M943.625 273.172c-8.03-4.23-29.177 6.289-29.177 6.289s-1.445-7.355-4.88-12.681a89.337 89.337 0 0 0-.716-3.484c6.403-6.252 10.646-13.692 8.707-18.762-2.614-6.836-17.956-12.093-23.804-13.874-.473-.721-.956-1.447-1.452-2.178 2.073-4.068 7.02-15.242 1.749-20.276-7.587-7.246-14.781-11.629-21.44-14.013 7.108-25.907-46.784-33.409-46.784-33.409s6.366-23.513-31.41-37.542c-8.653-3.213-20.587-3.696-28.344-1.058-.715-.39-1.436-.779-2.156-1.167 3.907-3.873 8.572-9.886 6.411-14.987-20.513-48.434-60.475-27.055-60.475-27.055s-20.29-12.865-33.974-11.883c-4.987.358-10.433 2.126-14.529 4.723-.084-3.394-1.361-7.441-4.766-12.155-9.756-13.508-27.764-5.409-27.764-5.409s-6.865-16.14-14.401-22.255c-9.62-7.808-28.391-7.516-37.31 1.309-.447.442-.872.913-1.285 1.401-5.759-5.882-.526-21.007-26.593-29.831-45.093-15.264-57.168 19.493-57.168 19.493s-42.606-15.928-57.202.937c-30.131-15.957-51.076 10.376-51.076 10.376s-23.727-3.764-35.901 2.564c-2.491 1.295-4.939 3.059-7.094 5.063-25.628-9.381-33.794 13.786-33.794 13.786s-35.843-38.427-81.364-7.267c-10.336 7.076-10.863 27.17-11.1 29.786l-.509.13c-4.089-1.594-33.417-11.941-45.378 14.028-.245.091-.483.184-.728.275-31.476-18.855-53.596 8.951-53.596 8.951s-23.727-3.764-35.901 2.565c-8.225 4.275-16.027 13.62-14.104 20.087 2.286 7.687 18.013 12.506 25.702 14.429a260.434 260.434 0 0 0-6.469 6.864c-2.564 1.79-5.115 3.931-7.047 6.355-50.381-.454-47.836 43.563-47.836 43.563S8.471 209.871 3.616 222.703c-3.281 8.67-2.867 20.836 2.877 24.375 2.866 1.766 7.162 1.574 11.701.486-5.998 2.503-11.566 7.321-15.281 15.959-7.691 17.881 10.28 29.089 10.28 29.089s-5.601 13.921-2.618 21.601c2.012 5.179 8.364 9.291 15.888 11.13 2.725 10.343 15.011 23.513 15.011 23.513s-24.1-5.983-30.019 5.598c-18.515 36.226 48.07 35.631 48.07 35.631s-2.849 24.193 36.575 32.53c9.991 2.113 39.597-2.044 39.597-2.044s-22.991 9.381-20.942 22.224c6.411 40.175 59.834.428 59.834.428s10.914 19.295 43.849 6.712c35.737 10.594 74.421 18.816 114.352 24.647a7.5 7.5 0 0 0 .595 2.413c4.328 9.762-9.246 5.394-5.57 17.869 11.498 39.024 78.68 11.052 78.68 11.052s14.583 19.513 48.923-1.571c6.019-3.695 11.961-9.889 15.635-16.058 3.691 5.206 9.594 10.123 18.969 11.239 23.496 2.797 34.701-12.584 36.534-15.386l.875-.044c5.013 3.214 40.528 24.512 60.438-3.414 3.982 8.517 19.738 13.932 32.44 10.469 13.495-3.679 25.607-15.722 31.284-22.113 2.017-.398 47.386 3.051 74.441-3.133 31.118-7.113 55.44-53.64 55.44-53.64s47.971-31.856 49.178-30.856c31.331 25.952 75.183-43.754 75.183-43.754s22.994 8.043 39.707-28.623c5.566-12.21 5.877-31.754-1.919-35.86z" fill="#fff"/><path d="M361.794 516.655c-7.192 0-14.213-1.069-20.181-3.914-7.389-3.523-12.354-9.442-14.756-17.594-2.116-7.18 1.112-9.441 3.706-11.258 2.277-1.595 3.652-2.558 1.909-6.488a8.148 8.148 0 0 1-.576-1.939c-40.458-5.94-78.607-14.172-113.417-24.472-8.001 3.02-14.746 4.167-20.371 4.168-14.67.001-21.742-7.8-23.762-10.521-5.242 3.749-32.578 22.388-49.031 15.692-6.226-2.533-10.111-8.38-11.547-17.376-1.501-9.407 9.131-16.849 16.013-20.618-9.253 1.1-26.546 2.81-33.888 1.258-35.005-7.403-37.364-27.547-37.4-32.511-6.444-.063-39.512-1.133-48.851-16.242-3.534-5.718-3.224-12.73.922-20.842 4.978-9.74 21.348-7.954 28.164-6.732-3.562-4.155-10.773-13.234-13.073-21.096-7.918-2.07-14.026-6.48-16.013-11.595-2.719-7 1.194-18.518 2.334-21.585-3.297-2.365-17.031-13.473-9.982-29.862 2.568-5.971 6.186-10.576 10.792-13.752-2.797.107-5.081-.376-6.818-1.446-6.197-3.817-6.707-16.545-3.288-25.58 4.554-12.034 21.79-23.906 24.967-26.016-.072-3.264.209-18.981 11.5-30.836 8.398-8.818 20.8-13.275 36.882-13.202 1.725-2.072 4.028-4.124 6.856-6.108a266.465 266.465 0 0 1 5.216-5.571c-8.966-2.386-22.509-7.17-24.743-14.682-2.075-6.977 6.03-16.804 14.601-21.259 11.424-5.939 32.206-3.291 35.961-2.749 3.097-3.537 24.668-26.223 54.028-9.023 11.884-24.981 39.781-16.502 45.659-14.382 1.016-15.078 4.872-25.009 11.46-29.519 23.875-16.343 45.089-13.457 58.68-8.158 11.96 4.662 20.09 11.784 22.902 14.488 1.349-2.924 5.094-9.565 12.515-13.063 6.147-2.897 13.343-2.932 21.396-.105 2.142-1.925 4.504-3.58 6.862-4.806 11.425-5.939 32.206-3.291 35.961-2.748 2.997-3.424 23.315-24.82 51.253-10.549 14.246-15.116 50.471-3.219 56.863-.96 2.415-5.537 16.79-33.141 58.052-19.173 18.928 6.407 21.824 16.196 23.939 23.343.688 2.324 1.297 4.384 2.358 5.899.188-.202.373-.393.557-.575 9.174-9.077 28.315-9.759 38.645-1.375 6.696 5.435 12.721 18.221 14.299 21.747 3.929-1.456 19.235-6.092 28.046 6.107 2.755 3.815 4.374 7.528 4.828 11.062 4.022-2.224 8.983-3.712 13.585-4.042 12.833-.922 30.844 9.735 34.096 11.734 2.959-1.45 17.578-7.9 33.234-2.372 11.959 4.223 21.417 14.379 28.111 30.183 2.177 5.139-1.672 10.904-5.688 15.128l.61.331c7.914-2.534 19.844-2.043 28.594 1.206 33.542 12.456 32.921 32.729 32.228 37.644 5.966.946 35.065 6.222 44.393 20.386 2.673 4.059 3.483 8.505 2.413 13.231 7.033 2.679 14.075 7.358 20.943 13.917 5.49 5.243 1.153 16.001-1.284 20.925.316.469.626.937.933 1.402 6.621 2.042 21.403 7.314 24.1 14.367 1.901 4.972-1.29 12.214-8.544 19.442.202.918.392 1.852.566 2.787 2.612 4.127 4.064 9.271 4.633 11.61 4.608-2.163 21.573-9.608 28.942-5.728 8.236 4.338 8.183 24.393 2.364 37.159-15.17 33.281-35.917 30.367-40.169 29.364-3.663 5.677-29.802 44.868-55.82 49.033-7.419 1.188-14.178-.621-20.095-5.375-3.841 1.485-31.142 19.211-48.129 30.489-2.102 3.959-25.567 46.971-55.982 53.923-21.663 4.951-54.537 3.78-68.576 3.28-2.533-.09-4.774-.172-5.611-.154-6.107 6.824-18.082 18.452-31.498 22.11-12.292 3.35-27.593-1.273-32.829-9.585-20.355 26.419-55.376 5.858-60.581 2.58l-.057.003c-2.691 3.911-14.188 18.148-37.202 15.405-7.763-.924-14.072-4.439-18.775-10.456-3.839 5.962-9.551 11.673-15.187 15.134-31.214 19.164-46.796 5.096-49.733 1.915-4.1 1.64-24.874 9.541-44.417 9.542zm-143.355-67.719c.096 0 .191.014.284.041 35.019 10.381 73.446 18.663 114.212 24.616a1 1 0 0 1 .852.904c.066.771.239 1.475.513 2.094 2.41 5.435-.247 7.295-2.59 8.937-2.388 1.673-4.644 3.253-2.935 9.054 2.234 7.583 6.842 13.084 13.696 16.353 22.742 10.844 63.235-5.772 63.641-5.941a1 1 0 0 1 1.185.325c.575.763 14.512 18.49 47.599-1.825 5.775-3.546 11.637-9.568 15.299-15.717a1 1 0 0 1 1.675-.067c4.445 6.268 10.592 9.91 18.271 10.824 22.789 2.715 33.635-11.969 35.579-14.94a.995.995 0 0 1 .79-.451l.874-.044c.206-.009.413.045.587.157 3.992 2.56 39.571 24.218 59.084-3.153a.999.999 0 0 1 1.72.157c3.861 8.26 19.354 13.177 31.271 9.927 13.118-3.576 24.927-15.201 30.799-21.812.145-.163.34-.275.554-.317.5-.099 2.023-.05 6.353.104 13.959.497 46.651 1.662 68.059-3.231 30.306-6.927 54.535-52.668 54.776-53.129.078-.149.193-.277.333-.37.12-.08 12.137-8.057 24.147-15.81 24.899-16.073 25.429-15.641 26.222-14.983 5.538 4.587 11.883 6.346 18.857 5.23 26.575-4.254 54.562-48.302 54.842-48.746a1 1 0 0 1 1.176-.411c.904.312 22.364 7.235 38.468-28.094 5.422-11.896 5.68-30.791-1.476-34.56-7.487-3.943-28.058 6.197-28.266 6.3a.999.999 0 0 1-1.427-.703c-.014-.072-1.452-7.235-4.739-12.332a1.003 1.003 0 0 1-.143-.36 87.399 87.399 0 0 0-.708-3.445 1.002 1.002 0 0 1 .276-.937c6.739-6.58 10.064-13.524 8.472-17.689-2.498-6.532-18.359-11.812-23.161-13.274a.993.993 0 0 1-.544-.408c-.471-.717-.951-1.439-1.444-2.166a1 1 0 0 1-.063-1.015c1.686-3.308 6.806-14.46 1.949-19.099-6.941-6.629-14.036-11.27-21.086-13.795a1 1 0 0 1-.627-1.206c1.229-4.478.579-8.681-1.93-12.492-9.693-14.721-43.686-19.614-44.028-19.661a1.002 1.002 0 0 1-.827-1.252c.246-.924 5.604-22.827-30.792-36.343-8.52-3.164-20.159-3.605-27.674-1.049a1 1 0 0 1-.801-.069c-.603-.329-1.21-.657-1.817-.985l-.334-.18a.998.998 0 0 1-.229-1.591c3.177-3.149 8.206-9.14 6.195-13.887-6.461-15.256-15.517-25.037-26.915-29.07-16.323-5.776-32.012 2.423-32.168 2.507a1.005 1.005 0 0 1-1.007-.037c-.2-.127-20.171-12.683-33.367-11.73-4.841.347-10.099 2.056-14.066 4.57a.998.998 0 0 1-1.534-.819c-.089-3.612-1.629-7.512-4.577-11.594-9.157-12.679-25.837-5.397-26.543-5.082a1.004 1.004 0 0 1-1.33-.52c-.067-.159-6.857-15.983-14.111-21.871-9.447-7.668-27.604-7.041-35.977 1.244-.39.387-.792.824-1.225 1.336a.999.999 0 0 1-1.477.053c-1.86-1.899-2.637-4.526-3.537-7.567-2.102-7.102-4.717-15.941-22.663-22.016-18.059-6.114-33.441-4.798-44.482 3.804-8.36 6.513-11.392 14.986-11.421 15.071a1 1 0 0 1-1.295.608c-.42-.157-42.123-15.491-56.095.655a1 1 0 0 1-1.224.229c-29.026-15.373-48.99 9.068-49.826 10.116a1.005 1.005 0 0 1-.939.365c-.235-.037-23.545-3.638-35.283 2.464-2.368 1.231-4.744 2.928-6.874 4.909a1.001 1.001 0 0 1-1.025.207c-7.756-2.839-14.622-2.899-20.409-.179-8.73 4.104-12.066 13.267-12.099 13.359a1.001 1.001 0 0 1-1.674.349c-.089-.095-9.024-9.545-23.316-15.097-19.094-7.418-38.188-4.735-56.752 7.973-4.18 2.861-9.412 10.069-10.605 28.158-.026.389-.046.691-.064.893a1 1 0 0 1-.746.878l-.508.13c-.204.053-.419.04-.615-.036-3.287-1.282-32.449-11.793-44.106 13.515a1 1 0 0 1-.562.52l-.726.275a1.003 1.003 0 0 1-.862-.08c-30.339-18.175-51.418 7.609-52.3 8.716a1.002 1.002 0 0 1-.939.365c-.234-.037-23.545-3.638-35.283 2.464-7.863 4.087-15.352 13.044-13.606 18.915 2.173 7.309 18.198 12.046 24.986 13.744a1 1 0 0 1 .472 1.67 258.323 258.323 0 0 0-6.444 6.838c-.05.055-.106.104-.167.147-2.885 2.014-5.186 4.086-6.838 6.159a.979.979 0 0 1-.791.376c-15.735-.153-27.798 4.085-35.883 12.563-11.795 12.369-10.955 29.768-10.946 29.943a1 1 0 0 1-.457.898c-.199.128-19.976 12.983-24.658 25.356-3.136 8.288-2.748 19.957 2.466 23.169 2.316 1.427 5.998 1.55 10.943.365a1 1 0 0 1 .618 1.895c-6.559 2.737-11.521 7.929-14.747 15.431-7.255 16.867 9.187 27.405 9.891 27.845.41.257.578.772.398 1.221-.054.136-5.418 13.646-2.614 20.866 1.802 4.638 7.624 8.67 15.194 10.521a.999.999 0 0 1 .729.717c2.631 9.984 14.654 22.956 14.775 23.085a1 1 0 0 1-.972 1.653c-.233-.058-23.399-5.657-28.888 5.083-3.805 7.446-4.143 13.798-1.002 18.879 9.55 15.455 47.782 15.305 48.173 15.297.311 0 .562.119.753.332s.282.5.249.785c-.107.949-2.196 23.402 35.789 31.435 9.705 2.052 38.957-2.015 39.251-2.056a1.001 1.001 0 0 1 .517 1.916c-.222.091-22.233 9.23-20.333 21.141 1.318 8.258 4.791 13.586 10.324 15.838 16.827 6.849 47.616-15.825 47.926-16.055a.997.997 0 0 1 1.467.31c.431.754 10.95 18.37 42.622 6.27a.999.999 0 0 1 .357-.066z"/><path d="M564.512 216.307s-55.115-4.518-56.47 23.491c-.372 7.681 15.811 16.263 15.811 16.263s-15.269-.179-19.877 6.325c-4.903 6.919 1.771 24.889 13.553 29.816 10.778 4.508 33.882-3.162 33.882-3.162s16.009 9.856 24.395 8.132c6.696-1.376 12.821-7.308 17.506-13.36 4.76-6.149 13.519-7.213 19.781-2.604l.209.152c34.334 24.847 64.15-10.39 60.084-28.009-2.355-10.203-19.877-20.329-19.877-20.329s11.294-9.939 4.066-20.781c-8.081-12.122-23.943-13.553-23.943-13.553s-6.776-14.908-19.425-16.715c-47.128-6.732-49.693 34.334-49.693 34.334z" fill="#fff"/><path d="M573.667 298.371c-8.164 0-20.017-6.826-22.382-8.239-3.364 1.074-23.848 7.297-34.141 2.992-8.048-3.365-13.011-11.914-14.817-18.212-1.547-5.397-1.243-10.173.834-13.104 3.48-4.911 12.275-6.252 17.217-6.615-4.811-2.989-13.63-9.325-13.334-15.444.268-5.54 2.575-10.254 6.858-14.013 13.793-12.106 43.773-10.871 49.708-10.496.443-3.81 2.779-17.394 14.038-26.559 8.974-7.305 21.321-9.895 36.7-7.698 11.834 1.69 18.584 14.032 19.946 16.774 3.001.385 16.639 2.719 24.113 13.929 6.302 9.453-.626 18.295-3.287 21.138 3.974 2.46 17.143 11.207 19.241 20.301 2.284 9.898-5.167 23.779-16.964 31.602-13.646 9.049-29.931 8.116-44.681-2.558l-.215-.157c-5.905-4.347-13.986-3.288-18.397 2.41-6.114 7.898-12.202 12.517-18.096 13.728-.733.151-1.518.22-2.34.22zm-22.256-10.331c.183 0 .365.05.524.148.157.096 15.772 9.626 23.67 8.004 5.412-1.112 11.104-5.484 16.917-12.993 5.08-6.564 14.377-7.793 21.164-2.797l.202.148c19.219 13.908 34.816 7.543 42.403 2.512 10.963-7.27 18.194-20.498 16.12-29.486-2.229-9.66-19.232-19.589-19.403-19.688a1.002 1.002 0 0 1-.161-1.616c.434-.383 10.545-9.501 3.896-19.476-7.727-11.59-23.047-13.098-23.201-13.112a1 1 0 0 1-.82-.582c-.066-.144-6.708-14.432-18.657-16.139-14.792-2.114-26.615.328-35.137 7.255-12.249 9.957-13.407 25.99-13.417 26.151a.998.998 0 0 1-1.079.933c-.347-.028-34.827-2.688-49.211 9.938-3.859 3.387-5.938 7.628-6.178 12.605-.28 5.776 10.936 13.026 15.281 15.332.407.216.614.683.5 1.13s-.505.737-.98.753c-.142-.006-14.799-.096-19.05 5.903-1.698 2.397-1.901 6.658-.543 11.397 1.683 5.872 6.272 13.827 13.666 16.918 10.313 4.314 32.954-3.113 33.181-3.188.103-.034.209-.051.315-.051z"/><path d="M399.868 16.516s-23.727-3.764-35.901 2.564c-8.225 4.276-16.027 13.621-14.104 20.087 3.043 10.235 29.917 15.386 29.917 15.386s-22.991 9.381-20.942 22.224c6.411 40.174 59.834.427 59.834.427s11.967 21.218 48.722 4.701c12.24-5.5 25.371-19.978 22.224-28.208-3.242-8.477-26.071-14.531-26.071-14.531s9.073-15.581 2.564-21.797c-38.038-36.328-66.245-.855-66.245-.855z" fill="#fff"/><path d="M377.425 95.749c-2.846 0-5.559-.434-8.027-1.438-6.226-2.534-10.111-8.38-11.547-17.376-1.723-10.801 12.548-19.011 18.773-22.045-7.219-1.699-25.135-6.744-27.719-15.438-2.074-6.977 6.03-16.804 14.601-21.259 11.416-5.935 32.176-3.295 35.953-2.75 2.142-2.505 13.003-14.223 29.569-15.356 12.652-.865 25.363 4.706 37.775 16.561 6.003 5.733.234 18.079-1.773 21.896 4.893 1.418 22.549 7.02 25.523 14.798 3.325 8.695-9.951 23.726-22.748 29.477-10.342 4.647-18.795 6.328-25.606 6.329-14.683.002-21.751-7.804-23.771-10.528-4.455 3.187-24.874 17.13-41.003 17.131zm7.067-79.335c-6.898 0-14.691.76-20.063 3.553-7.863 4.087-15.352 13.045-13.607 18.915 2.837 9.542 28.884 14.638 29.147 14.689a1 1 0 0 1 .19 1.908c-.222.091-22.233 9.23-20.333 21.141 1.318 8.257 4.791 13.586 10.324 15.838 16.827 6.85 47.617-15.826 47.926-16.055a.999.999 0 0 1 1.468.311c.474.83 12.028 20.195 47.441 4.28 11.924-5.358 24.589-19.384 21.7-26.938-3.022-7.903-25.17-13.863-25.393-13.922a.998.998 0 0 1-.607-1.469c.087-.149 8.602-14.971 2.738-20.571-11.982-11.443-24.174-16.832-36.236-16.013C411.91 3.252 400.761 17 400.65 17.139a1.003 1.003 0 0 1-.939.365c-.127-.02-7.044-1.089-15.22-1.089z"/><path d="M208.829 201.219s54.694-8.158 49.632-35.739c-1.388-7.564-19.101-12.233-19.101-12.233s14.908-3.305 17.913-10.687c3.197-7.855-7.395-23.831-19.989-25.944-11.522-1.933-32.27 10.799-32.27 10.799s-17.833-5.949-25.606-2.36c-13.628 6.293-19.571 33.345-19.571 33.345s-5.378-6.074-13.336-9.406c-39.092-16.371-60.095 24.733-52.122 40.962 4.617 9.398 23.986 15.266 23.986 15.266s-8.733 12.25.776 21.16c10.631 9.962 26.401 7.741 26.401 7.741s9.995 12.972 22.723 11.849c47.422-4.182 40.564-44.753 40.564-44.753z" fill="#fff"/><path d="M166.675 247.041c-11.105 0-19.707-9.615-21.565-11.862-3.009.309-16.82 1.145-26.653-8.069-8.29-7.768-3.559-17.957-1.615-21.331-4.43-1.49-19.245-7.007-23.36-15.384-4.479-9.117-.386-24.331 9.317-34.636 11.224-11.92 27.294-14.722 44.088-7.689 5.868 2.457 10.321 6.312 12.404 8.333 1.604-6.24 7.69-26.713 19.698-32.258 7.436-3.433 23.009 1.254 25.899 2.175 3.031-1.813 21.557-12.536 32.562-10.693 8.603 1.443 15.384 8.637 18.577 14.358 2.736 4.902 3.528 9.622 2.174 12.949-2.269 5.575-10.528 8.884-15.257 10.364 5.366 1.814 15.396 5.974 16.502 11.999 1.001 5.455-.172 10.571-3.485 15.207-10.673 14.931-40.148 20.559-46.009 21.545.436 3.812 1.257 17.569-7.617 29.059-7.073 9.157-18.506 14.492-33.98 15.857-.565.05-1.125.074-1.678.074zm-21.133-13.919c.307 0 .601.142.792.389.097.125 9.821 12.523 21.843 11.464 14.886-1.313 25.841-6.383 32.56-15.07 9.658-12.487 7.133-28.362 7.106-28.521a1.004 1.004 0 0 1 .838-1.155c.344-.052 34.524-5.318 45.652-20.888 2.986-4.178 4.043-8.781 3.144-13.682-1.044-5.687-13.616-10.191-18.372-11.447a1.002 1.002 0 0 1 .039-1.944c.144-.032 14.432-3.278 17.204-10.088 1.108-2.721.335-6.915-2.067-11.22-2.977-5.334-9.258-12.034-17.161-13.36-11.018-1.85-31.377 10.539-31.582 10.665a1.003 1.003 0 0 1-.839.096c-.175-.058-17.547-5.782-24.87-2.4-13.026 6.015-18.955 32.386-19.014 32.652a1.001 1.001 0 0 1-1.725.449c-.052-.059-5.334-5.948-12.974-9.147-21.881-9.163-35.618.588-41.86 7.216-9.018 9.577-13.046 24.104-8.979 32.383 4.372 8.898 23.189 14.692 23.379 14.75a1 1 0 0 1 .525 1.537c-.335.472-8.103 11.654.645 19.851 10.164 9.524 25.425 7.503 25.578 7.481a.929.929 0 0 1 .139-.01z"/><path d="M771.002 359.34s-23.727-3.764-35.901 2.564c-8.225 4.276-16.027 13.621-14.104 20.087 3.043 10.235 29.917 15.386 29.917 15.386s-22.991 9.381-20.942 22.224c6.411 40.174 59.834.427 59.834.427s11.967 21.218 48.722 4.701c12.24-5.5 25.371-19.978 22.224-28.208-3.242-8.477-26.071-14.531-26.071-14.531s9.073-15.581 2.564-21.797c-38.038-36.328-66.245-.855-66.245-.855z" fill="#fff"/><path d="M748.558 438.573c-2.846 0-5.559-.434-8.027-1.438-6.226-2.533-10.111-8.38-11.546-17.376-1.724-10.801 12.548-19.011 18.773-22.045-7.219-1.7-25.134-6.745-27.719-15.438-2.075-6.977 6.03-16.804 14.601-21.259 11.416-5.935 32.176-3.295 35.953-2.75 2.142-2.505 13.003-14.223 29.569-15.356 12.66-.866 25.364 4.707 37.775 16.561 6.002 5.733.234 18.079-1.773 21.896 4.893 1.418 22.549 7.02 25.523 14.798 3.325 8.695-9.952 23.726-22.749 29.477-10.342 4.647-18.795 6.328-25.606 6.329-14.683.001-21.751-7.804-23.771-10.528-4.456 3.187-24.875 17.13-41.004 17.13zm7.067-79.335c-6.898 0-14.691.76-20.063 3.553-7.863 4.087-15.353 13.045-13.607 18.915 2.836 9.537 28.884 14.638 29.147 14.689a1 1 0 0 1 .19 1.908c-.223.091-22.233 9.23-20.333 21.141 1.318 8.257 4.792 13.586 10.324 15.838 16.831 6.85 47.617-15.825 47.926-16.055a.999.999 0 0 1 1.468.311c.474.83 12.028 20.194 47.441 4.28 11.924-5.358 24.589-19.384 21.7-26.938-3.022-7.903-25.17-13.863-25.393-13.922a1 1 0 0 1-.607-1.469c.086-.149 8.601-14.971 2.738-20.571-11.981-11.443-24.175-16.831-36.236-16.013-17.277 1.171-28.426 14.919-28.537 15.058a1.003 1.003 0 0 1-.939.365c-.127-.02-7.044-1.089-15.219-1.089z"/><path d="M274.372 391.903s-51.798-19.365-60.734 7.215c-2.451 7.289 10.781 19.956 10.781 19.956s-14.643-4.333-20.849.669c-6.603 5.322-5.079 24.429 4.915 32.381 9.142 7.274 33.461 6.19 33.461 6.19s3.242 22.728 24.833 25.298c25.829 3.075 36.809-15.823 36.809-15.823s45.599 31.197 65.442-10.576c4.493-9.458-13.585-24.976-13.585-24.976s13.575-6.485 9.575-18.886c-4.472-13.865-19.344-19.564-19.344-19.564s-2.458-16.19-14.136-21.376c-43.51-19.32-57.168 19.493-57.168 19.493z" fill="#fff"/><path d="M272.299 484.947c-1.799 0-3.676-.108-5.638-.342-19.619-2.335-24.636-20.951-25.538-25.263-4.518.123-24.815.282-33.26-6.436-6.826-5.431-9.272-15.01-9.293-21.561-.018-5.614 1.576-10.126 4.373-12.381 4.686-3.777 13.515-2.671 18.368-1.673-3.814-4.187-10.573-12.686-8.622-18.492 1.768-5.257 5.272-9.165 10.418-11.614 16.57-7.889 45.08 1.469 50.687 3.446 1.465-3.545 7.413-15.978 20.744-21.729 10.624-4.583 23.211-3.711 37.408 2.594 10.926 4.852 14.057 18.566 14.621 21.574 2.783 1.188 15.269 7.15 19.405 19.973 3.452 10.701-5.402 17.296-8.818 19.379 3.92 3.6 16.933 16.477 12.781 25.219-5.385 11.337-13.157 18.447-23.1 21.131-18.55 5.009-38.575-6.8-42.961-9.6-2.404 3.441-12.368 15.773-31.574 15.774zm-30.352-27.633a1 1 0 0 1 .989.858c.13.897 3.405 22 23.961 24.448 24.837 2.956 35.719-15.15 35.827-15.333a1.002 1.002 0 0 1 1.428-.322c.223.152 22.532 15.181 42.167 9.876 9.349-2.526 16.686-9.274 21.807-20.056 4.114-8.661-13.159-23.638-13.333-23.788a1.002 1.002 0 0 1 .219-1.661c.522-.25 12.735-6.268 9.055-17.678-4.268-13.231-18.606-18.882-18.751-18.938a1.001 1.001 0 0 1-.63-.783c-.024-.156-2.522-15.714-13.553-20.612-13.658-6.065-25.698-6.937-35.784-2.594-14.499 6.243-19.981 21.354-20.035 21.506a.998.998 0 0 1-1.293.604c-.326-.122-32.776-12.078-50.057-3.848-4.636 2.208-7.792 5.722-9.38 10.445-1.843 5.481 6.973 15.512 10.525 18.916a1 1 0 0 1-.975 1.681c-.142-.042-14.214-4.125-19.938.488-2.287 1.844-3.644 5.887-3.628 10.817.019 6.109 2.267 15.013 8.538 20.003 8.743 6.956 32.554 5.985 32.794 5.973h.045z"/><path d="M347.066 237.381s-4.875-11.459-10.225-15.802c-6.83-5.544-20.158-5.337-26.491.93-6.816 6.744-7.901 21.379-7.901 21.379s-23.944-10.246-32.861 10.485c-5.461 12.696 7.299 20.654 7.299 20.654s-3.977 9.884-1.859 15.337c2.453 6.315 13.988 10.423 23.238 7.901 13.253-3.613 24.632-18.59 24.632-18.59s4.939 5.875 13.478 9.295c21.04 8.426 18.811-12.974 18.811-12.974s23.798 7.938 24.075-6.465c.15-7.802-14.535-10.306-14.535-10.306s10.746-5.966 2.052-18.004c-6.927-9.591-19.713-3.84-19.713-3.84z" fill="#fff"/><path d="M292.397 300.02c-8.073 0-16.164-3.791-18.301-9.294-1.909-4.915.679-12.853 1.58-15.325-2.664-1.962-11.974-9.872-7.006-21.422 8.003-18.607 27.734-13.261 32.913-11.479.445-3.822 2.205-14.904 8.064-20.701 6.607-6.537 20.389-7.031 27.825-.995 4.657 3.78 8.847 12.482 10.124 15.302 3.198-1.136 13.801-4.045 19.994 4.531 3.024 4.187 4.144 8.166 3.329 11.825-.656 2.946-2.429 5.021-3.827 6.259 4.29 1.085 13.299 4.161 13.171 10.832-.063 3.296-1.273 5.798-3.594 7.437-5.708 4.031-16.552 1.476-20.41.378.044 2.891-.394 9.276-4.764 12.576-3.536 2.671-8.747 2.656-15.489-.044-6.762-2.708-11.287-6.867-13.05-8.685-2.765 3.393-12.784 14.843-24.426 18.017-1.974.538-4.053.79-6.132.79zm-2.923-57.72c-6.81 0-14.678 2.498-18.967 12.469-5.063 11.771 6.789 19.335 6.909 19.41a1 1 0 0 1 .399 1.222c-.038.095-3.804 9.583-1.854 14.602 2.315 5.96 13.439 9.643 22.043 7.298 12.764-3.48 23.987-18.084 24.099-18.231a1.004 1.004 0 0 1 1.561-.039c.048.057 4.899 5.733 13.085 9.011 6.042 2.42 10.597 2.523 13.535.309 4.739-3.573 3.918-12.165 3.909-12.251a1 1 0 0 1 1.31-1.052c.139.046 13.965 4.577 20.012.306 1.797-1.27 2.696-3.18 2.747-5.841.132-6.852-13.565-9.278-13.704-9.302a1 1 0 0 1-.317-1.86c.036-.02 3.813-2.185 4.729-6.346.676-3.072-.334-6.502-3.003-10.198-6.36-8.806-18-3.733-18.493-3.513a1 1 0 0 1-1.329-.521c-.048-.112-4.841-11.282-9.935-15.417-6.608-5.364-19.305-4.927-25.158.864-6.467 6.398-7.597 20.599-7.607 20.742a1 1 0 0 1-1.39.846c-.461-.197-6.032-2.508-12.582-2.508z"/><path d="M525.671 386.795s-4.875-11.459-10.225-15.802c-6.83-5.544-20.158-5.337-26.491.93-6.816 6.744-7.901 21.379-7.901 21.379s-23.944-10.246-32.861 10.485c-5.461 12.696 7.299 20.654 7.299 20.654s-3.977 9.884-1.859 15.337c2.453 6.315 13.988 10.423 23.238 7.901 13.253-3.613 24.632-18.59 24.632-18.59s4.939 5.875 13.478 9.295c21.04 8.426 18.811-12.974 18.811-12.974s23.798 7.938 24.075-6.465c.15-7.802-14.535-10.306-14.535-10.306s10.746-5.966 2.052-18.004c-6.927-9.591-19.713-3.84-19.713-3.84z" fill="#fff"/><path d="M471.002 449.433c-8.073 0-16.163-3.79-18.301-9.293-1.909-4.915.679-12.853 1.58-15.326-2.664-1.962-11.974-9.872-7.007-21.422 8.003-18.607 27.734-13.262 32.913-11.479.445-3.822 2.205-14.904 8.064-20.701 6.607-6.537 20.389-7.031 27.825-.995 4.657 3.78 8.847 12.483 10.124 15.303 3.198-1.135 13.801-4.046 19.994 4.53 3.024 4.187 4.145 8.166 3.329 11.825-.656 2.946-2.429 5.021-3.827 6.259 4.29 1.085 13.299 4.161 13.171 10.832-.063 3.296-1.273 5.798-3.595 7.437-5.708 4.031-16.552 1.476-20.41.378.044 2.891-.394 9.276-4.764 12.576-3.536 2.671-8.747 2.656-15.489-.044-6.762-2.708-11.286-6.867-13.05-8.685-2.765 3.393-12.784 14.843-24.426 18.017-1.974.538-4.053.79-6.132.79zm-2.922-57.72c-6.81 0-14.679 2.498-18.968 12.469-5.05 11.741 6.419 19.103 6.91 19.41.41.257.578.772.398 1.221-.038.095-3.804 9.583-1.855 14.602 2.315 5.96 13.439 9.644 22.043 7.298 12.764-3.48 23.987-18.083 24.099-18.231a1.004 1.004 0 0 1 1.561-.039c.048.057 4.899 5.732 13.085 9.011 6.042 2.42 10.596 2.523 13.535.309 4.739-3.573 3.918-12.165 3.909-12.251a1 1 0 0 1 1.31-1.052c.139.046 13.964 4.577 20.012.306 1.797-1.27 2.695-3.18 2.747-5.841.132-6.852-13.565-9.278-13.704-9.302a1 1 0 0 1-.317-1.86c.036-.02 3.813-2.185 4.729-6.346.676-3.072-.334-6.503-3.003-10.198-6.36-8.806-18-3.733-18.493-3.513a1 1 0 0 1-1.329-.521c-.048-.112-4.841-11.283-9.935-15.417-6.608-5.363-19.305-4.927-25.158.864-6.467 6.398-7.596 20.599-7.607 20.742a1 1 0 0 1-1.39.846c-.461-.197-6.032-2.508-12.582-2.508z"/><path d="M829.029 196.675s-4.875-11.459-10.225-15.802c-6.83-5.544-20.158-5.337-26.491.93-6.816 6.744-7.901 21.379-7.901 21.379s-23.944-10.246-32.861 10.485c-5.461 12.696 7.299 20.654 7.299 20.654s-3.977 9.884-1.859 15.337c2.453 6.315 13.988 10.423 23.238 7.901 13.253-3.613 24.632-18.59 24.632-18.59s4.939 5.875 13.478 9.295c21.04 8.426 18.811-12.974 18.811-12.974s23.798 7.938 24.075-6.465c.15-7.802-14.535-10.306-14.535-10.306s10.746-5.966 2.052-18.004c-6.927-9.591-19.713-3.84-19.713-3.84z" fill="#fff"/><path d="M774.36 259.313c-8.073 0-16.163-3.79-18.301-9.293-1.909-4.915.679-12.853 1.58-15.326-2.664-1.962-11.974-9.872-7.006-21.422 8.002-18.607 27.733-13.262 32.913-11.479.445-3.822 2.205-14.904 8.064-20.701 6.606-6.537 20.389-7.031 27.825-.995 4.657 3.78 8.847 12.483 10.124 15.303 3.199-1.135 13.801-4.046 19.994 4.53 3.024 4.187 4.144 8.166 3.329 11.825-.656 2.946-2.429 5.021-3.827 6.259 4.291 1.085 13.299 4.161 13.171 10.832-.063 3.295-1.273 5.798-3.594 7.437-5.708 4.031-16.552 1.476-20.411.378.043 2.891-.394 9.276-4.764 12.576-3.535 2.67-8.747 2.656-15.488-.045-6.762-2.708-11.287-6.867-13.051-8.685-2.765 3.393-12.783 14.843-24.425 18.017-1.975.538-4.054.79-6.132.79zm-2.922-57.72c-6.811 0-14.679 2.498-18.968 12.469-5.05 11.741 6.419 19.103 6.91 19.41a1 1 0 0 1 .397 1.221c-.038.095-3.804 9.583-1.854 14.602 2.315 5.96 13.438 9.645 22.042 7.298 12.765-3.48 23.987-18.083 24.1-18.231a1.003 1.003 0 0 1 1.561-.039c.048.057 4.899 5.732 13.085 9.011 6.042 2.42 10.596 2.524 13.535.309 4.739-3.573 3.918-12.165 3.909-12.251a1 1 0 0 1 1.311-1.052c.138.046 13.965 4.577 20.012.306 1.797-1.27 2.696-3.18 2.747-5.841.132-6.862-13.565-9.278-13.703-9.301a1.001 1.001 0 0 1-.318-1.86c.036-.02 3.813-2.185 4.729-6.346.676-3.072-.334-6.502-3.002-10.198-6.36-8.807-18-3.733-18.493-3.513a1 1 0 0 1-1.329-.521c-.048-.112-4.842-11.283-9.936-15.417-6.607-5.364-19.304-4.927-25.158.864-6.466 6.398-7.596 20.599-7.607 20.742a1 1 0 0 1-1.391.846c-.461-.197-6.032-2.508-12.581-2.508z"/><path d="M97.399 374.459s-8.252 9.327-14.702 11.752c-8.234 3.096-20.811-1.32-24.834-9.269-4.33-8.555-.726-22.781-.726-22.781s-25.956 2.138-27.85-20.35c-1.16-13.772 13.462-17.28 13.462-17.28s-.643-10.635 3.092-15.137c4.326-5.214 16.568-5.458 24.544-.137 11.427 7.623 17.479 25.433 17.479 25.433s6.545-4.009 15.728-4.55c22.625-1.331 13.736 18.262 13.736 18.262s25.087.005 20.79 13.754c-2.328 7.448-17.051 5.174-17.051 5.174s8.304 9.061-3.754 17.727c-9.607 6.905-19.915-2.599-19.915-2.599z" fill="#fff"/><path d="M76.713 388.231c-7.875 0-16.465-4.364-19.742-10.838-3.722-7.354-1.883-18.423-1.094-22.189-5.487.044-25.885-1.126-27.586-21.309-1.055-12.529 10.28-17.084 13.428-18.102-.072-2.631-.014-10.979 3.354-15.038 4.741-5.713 17.554-5.877 25.868-.33 10.039 6.697 15.916 20.73 17.465 24.823 2.248-1.166 7.857-3.679 15.128-4.107 7.25-.428 12.198 1.209 14.706 4.862 3.1 4.514 1.493 10.709.537 13.438 4.007.18 15.102 1.19 19.241 6.821 1.683 2.29 2.038 5.046 1.055 8.192-1.99 6.368-11.509 6.434-15.923 6.104.935 1.616 1.959 4.146 1.649 7.148-.385 3.729-2.707 7.148-6.901 10.162-8.589 6.173-17.725.057-20.4-2.033-2.104 2.271-8.833 9.199-14.448 11.31-1.966.739-4.124 1.084-6.336 1.084zm-19.576-35.07a1.002 1.002 0 0 1 .97 1.245c-.035.139-3.46 13.967.648 22.083 3.719 7.347 15.625 11.78 23.59 8.785 6.146-2.311 14.224-11.387 14.305-11.478a1 1 0 0 1 1.427-.074c.397.365 9.833 8.862 18.654 2.522 3.701-2.66 5.746-5.595 6.077-8.722.449-4.238-2.449-7.487-2.479-7.519a1.001 1.001 0 0 1 .891-1.662c.139.021 13.899 2.056 15.944-4.484.794-2.54.547-4.636-.756-6.41-4.384-5.967-18.933-6.046-19.079-6.046a1.001 1.001 0 0 1-.911-1.412c.036-.079 3.535-7.969.171-12.859-2.086-3.031-6.441-4.375-12.937-3.992-8.803.518-15.201 4.366-15.265 4.405a1.003 1.003 0 0 1-1.469-.531c-.06-.175-6.081-17.581-17.087-24.923-7.418-4.948-19.136-4.977-23.219-.056-3.443 4.15-2.87 14.335-2.864 14.438a1 1 0 0 1-.764 1.032c-.563.136-13.773 3.488-12.7 16.224 1.788 21.219 25.755 19.521 26.772 19.438l.081-.003z"/><path d="M581.519 227.99s-27.112-2.222-27.779 11.556c-.183 3.778 7.778 8 7.778 8s-7.511-.088-9.778 3.111c-2.412 3.404.871 12.243 6.667 14.667 5.302 2.217 16.667-1.556 16.667-1.556s7.875 4.848 12 4c7.233-1.487 13.112-13.778 13.112-13.778s1.895 3.512 5.333 6c16.89 12.223 31.557-5.111 29.557-13.778-1.158-5.019-9.778-10-9.778-10s5.556-4.889 2-10.222c-3.975-5.963-11.778-6.667-11.778-6.667s-3.333-7.334-9.556-8.222c-23.183-3.312-24.445 16.889-24.445 16.889z" fill="#fff"/><path d="M586.018 268.867c-3.979 0-9.445-3.046-11.071-4.008-2.212.69-11.894 3.492-16.926 1.388-4.125-1.725-6.662-6.082-7.581-9.288-.804-2.804-.627-5.312.484-6.88 1.527-2.155 4.842-2.999 7.377-3.327-2.488-1.704-5.695-4.456-5.56-7.254.139-2.868 1.332-5.307 3.546-7.251 6.617-5.807 20.522-5.516 24.346-5.316.353-2.41 1.748-8.628 7.026-12.925 4.529-3.687 10.734-4.997 18.446-3.896 5.762.823 9.151 6.521 10.072 8.288 1.95.291 8.352 1.635 11.952 7.037 2.755 4.133.743 8.302-1.241 10.585 2.442 1.575 8.168 5.665 9.162 9.968 1.168 5.062-2.592 12.126-8.56 16.084-6.898 4.575-15.121 4.112-22.558-1.271-2.163-1.565-3.735-3.495-4.66-4.811-1.902 3.465-6.909 11.508-12.998 12.759a6.218 6.218 0 0 1-1.258.119zm-10.943-6.098c.183 0 .365.05.524.148 2.098 1.29 8.213 4.502 11.275 3.872 6.66-1.369 12.354-13.112 12.411-13.231a.998.998 0 0 1 1.781-.044c.018.033 1.841 3.35 5.041 5.666 9.204 6.661 16.657 3.626 20.28 1.224 5.231-3.469 8.693-9.735 7.716-13.967-.868-3.763-7.011-8.032-9.304-9.359a1 1 0 0 1-.161-1.616c.198-.176 4.849-4.387 1.829-8.917-3.653-5.48-10.963-6.219-11.037-6.226a1.001 1.001 0 0 1-.818-.581c-.032-.068-3.192-6.848-8.788-7.647-7.125-1.018-12.806.144-16.883 3.453-5.852 4.75-6.417 12.433-6.422 12.51a1.002 1.002 0 0 1-1.08.933c-.168-.014-16.921-1.303-23.832 4.765-1.815 1.594-2.753 3.505-2.866 5.843-.111 2.286 4.387 5.549 7.248 7.069.407.216.614.683.5 1.13s-.542.764-.98.753c-1.941-.028-7.344.422-8.951 2.689-.747 1.054-.819 2.988-.193 5.173.86 3 3.182 6.635 6.43 7.994 4.895 2.048 15.856-1.546 15.967-1.582.103-.034.209-.051.315-.051z"/><path d="M279.184 407.613s-27.567-10.306-32.323 3.84c-1.304 3.879 5.738 10.621 5.738 10.621s-7.793-2.306-11.096.356c-3.514 2.832-2.703 13.001 2.616 17.233 4.866 3.871 17.808 3.294 17.808 3.294s1.725 12.096 13.216 13.464c13.747 1.636 19.59-8.421 19.59-8.421s24.268 16.603 34.829-5.629c2.391-5.034-7.23-13.293-7.23-13.293s7.225-3.451 5.096-10.051c-2.38-7.379-10.295-10.412-10.295-10.412s-1.308-8.617-7.523-11.376c-23.156-10.282-30.425 10.374-30.425 10.374z" fill="#fff"/><path d="M278.081 457.599c-.975 0-1.993-.059-3.055-.185-10.233-1.218-13.217-10.502-13.908-13.433-3.04.056-13.215-.031-17.62-3.536-3.763-2.994-5.111-8.249-5.122-11.839-.01-3.131.902-5.666 2.502-6.955 2.237-1.803 6.084-1.644 8.823-1.222-2.104-2.487-4.764-6.385-3.786-9.294.982-2.923 2.929-5.094 5.786-6.454 8.626-4.107 23.112.369 26.919 1.672 1.04-2.346 4.311-8.475 11.112-11.409 5.779-2.493 12.604-2.028 20.284 1.382 5.759 2.557 7.583 9.531 8.003 11.58 1.887.846 8.2 4.117 10.361 10.816 1.63 5.052-1.642 8.759-4.354 10.542 2.615 2.465 8.658 8.867 6.44 13.538-2.927 6.163-7.165 10.031-12.594 11.497-9.597 2.591-19.883-3.093-22.865-4.933-1.695 2.27-7.089 8.235-16.926 8.235zm-16.153-15.642c.494 0 .918.364.99.857.067.463 1.773 11.355 12.344 12.614 12.895 1.536 18.381-7.545 18.608-7.932a1 1 0 0 1 1.428-.321c.117.08 11.825 7.959 22.059 5.19 4.836-1.308 8.638-4.814 11.302-10.422 1.693-3.563-4.463-9.946-6.978-12.105a1 1 0 0 1 .22-1.661c.261-.126 6.406-3.167 4.575-8.842-2.2-6.82-9.627-9.757-9.702-9.786a1.002 1.002 0 0 1-.629-.782c-.012-.081-1.31-8.113-6.94-10.614-7.141-3.171-13.419-3.636-18.66-1.382-7.525 3.235-10.388 11.097-10.416 11.176a1.002 1.002 0 0 1-1.293.604c-.172-.064-17.261-6.358-26.276-2.063-2.381 1.134-3.934 2.863-4.749 5.285-.801 2.383 2.937 7.141 5.482 9.58a1 1 0 0 1-.975 1.682c-2.03-.599-7.816-1.734-10.185.176-1.108.893-1.764 2.908-1.757 5.391.011 3.396 1.365 7.892 4.367 10.281 4.516 3.593 17.016 3.084 17.141 3.078h.045z"/><path d="M191.349 190.655s25.793-3.847 23.406-16.854c-.655-3.567-9.008-5.769-9.008-5.769s7.031-1.558 8.448-5.04c1.508-3.704-3.487-11.238-9.427-12.235-5.434-.912-15.218 5.092-15.218 5.092s-8.41-2.805-12.075-1.113c-6.427 2.968-9.229 15.725-9.229 15.725s-2.536-2.864-6.289-4.436c-18.435-7.72-28.34 11.664-24.58 19.317 2.177 4.432 11.312 7.199 11.312 7.199s-4.118 5.777.366 9.979c5.013 4.698 12.45 3.651 12.45 3.651s4.713 6.117 10.716 5.588c22.364-1.972 19.129-21.105 19.129-21.105z" fill="#fff"/><path d="M171.472 212.793c-5.16 0-9.194-4.176-10.398-5.571-1.914.153-8.168.28-12.704-3.97-3.474-3.255-2.532-7.578-1.184-10.159-2.654-.951-8.845-3.517-10.707-7.308-2.203-4.484-.233-11.92 4.483-16.929 5.453-5.791 13.246-7.158 21.38-3.751 2.332.977 4.205 2.41 5.363 3.437 1.036-3.691 3.957-12.221 9.35-14.711 3.54-1.634 10.424.321 12.37.93 1.948-1.145 10.352-5.851 15.508-4.988 4.242.712 7.572 4.235 9.135 7.035 1.369 2.453 1.752 4.845 1.053 6.563-.946 2.324-3.797 3.833-6.083 4.702 2.691 1.058 6.218 2.922 6.7 5.549.499 2.719-.084 5.267-1.734 7.574-4.9 6.855-17.886 9.629-21.554 10.289.195 2.361.228 8.444-3.747 13.591-3.429 4.44-8.946 7.024-16.396 7.681-.281.025-.56.037-.835.037zm-9.97-7.621c.307 0 .602.142.793.388.044.057 4.462 5.672 9.836 5.203 6.862-.605 11.901-2.925 14.976-6.895 4.414-5.697 3.267-12.976 3.255-13.049a1.001 1.001 0 0 1 .839-1.154c.16-.024 16.062-2.477 21.178-9.636 1.34-1.875 1.795-3.854 1.392-6.049-.393-2.139-5.287-4.191-8.279-4.982a1 1 0 0 1 .038-1.943c1.814-.404 6.741-1.99 7.739-4.441.462-1.136.108-2.943-.947-4.834-1.453-2.604-4.403-5.481-7.719-6.037-5-.84-14.435 4.9-14.53 4.958a.999.999 0 0 1-.839.096c-2.236-.745-8.633-2.404-11.34-1.154-5.907 2.728-8.645 14.909-8.672 15.032a1 1 0 0 1-1.725.449c-.024-.027-2.444-2.719-5.927-4.177-10.026-4.198-16.302.251-19.152 3.278-4.609 4.894-5.74 11.429-4.145 14.676 1.626 3.31 8.279 5.946 10.705 6.683a1.002 1.002 0 0 1 .524 1.538c-.145.206-3.546 5.125.235 8.669 4.591 4.303 11.558 3.399 11.629 3.39.045-.006.091-.009.136-.009z"/></svg></g><g transform="translate(1690.8 2332.7999999999997) rotate(0.0 265.80000000000007 160.20000000000005) scale(1.1992501302797125 1.199788801222257)"><svg width="443.277" height="267.047" viewBox="0 0 443.277 267.047"><path d="m442.277 111.027-19.908 10.806c-3.523-4.91-48.306-62.335-89.789-86.18-49.177-28.265-95.27-18.769-95.27-18.769l28.559-15.636s40.134-4.397 89.311 23.857c43.302 24.89 87.097 85.922 87.097 85.922z" fill="#fff"/><path d="M422.37 122.832a1 1 0 0 1-.813-.417c-.421-.587-46.375-61.122-89.475-85.896-48.255-27.736-94.113-18.75-94.57-18.656a1 1 0 0 1-.682-1.857L265.389.371a.993.993 0 0 1 .372-.117c.403-.045 41.023-4.107 89.918 23.984 42.992 24.712 86.972 85.594 87.411 86.206a.998.998 0 0 1-.336 1.462l-19.908 10.806a.995.995 0 0 1-.477.121zM256.642 14.408c18.192 0 46.88 3.39 76.437 20.378 40.898 23.508 84.276 78.866 89.567 85.759l18.149-9.851c-5.677-7.715-46.381-61.884-86.113-84.722C308.103-.789 269.229 1.956 266.168 2.224L242.6 15.128c3.362-.365 8.153-.72 14.042-.72zM64.024 115.82s29.765 43.756 53.644 66.1c63.611 59.565 121.324 43.699 128.404 41.335 6.539-8.388 78.288-75.961 40.052-122.842-44.913-55.067-222.099 15.406-222.099 15.406z"/><path d="M219.227 227.929c-4.907 0-10.365-.316-16.293-1.127-30.151-4.126-59.068-18.981-85.949-44.152-23.685-22.163-53.489-65.829-53.787-66.267a1 1 0 0 1 .457-1.492c.444-.177 44.946-17.772 94.367-28.402 29.063-6.251 54.128-8.908 74.501-7.898 25.65 1.272 43.945 8.402 54.376 21.191 14.814 18.164 15.198 41.433 1.141 69.162-11.254 22.199-28.723 41.228-37.119 50.373-1.966 2.142-3.387 3.689-4.06 4.553a1.006 1.006 0 0 1-.472.334c-2.285.763-12.135 3.725-27.162 3.725zM65.563 116.293c4.669 6.756 31.298 44.788 52.788 64.896 26.573 24.882 55.121 39.562 84.853 43.631 22.981 3.145 38.694-1.266 42.272-2.422.771-.948 2.138-2.437 3.971-4.434 8.335-9.079 25.678-27.972 36.808-49.925 13.667-26.959 13.362-49.499-.906-66.994-22.879-28.05-81.628-22.338-126.884-12.606-44.805 9.635-85.563 25.017-92.902 27.854z"/><ellipse cx="147.35" cy="153.669" fill="#87c159" rx="25.651" ry="39.968" transform="matrix(.39371731 -.91923157 .91923157 .39371731 -51.921 228.615)"/><path d="M159.235 182.991c-7.024 0-14.755-1.56-22.377-4.825-20.765-8.894-32.952-27.12-27.167-40.628 5.786-13.508 27.387-17.262 48.152-8.368s32.952 27.12 27.167 40.628c-3.662 8.55-13.663 13.193-25.775 13.193zm-23.875-56.679c-11.267 0-20.487 4.21-23.83 12.014-5.352 12.494 6.363 29.542 26.115 38.002s40.175 5.177 45.526-7.317c5.352-12.495-6.364-29.542-26.115-38.002-7.414-3.175-14.925-4.697-21.696-4.697zm48.73 43.093h.01z"/><ellipse cx="96.862" cy="170.66" fill="#fff" rx="22.662" ry="39.968" transform="matrix(.14704986 -.98912908 .98912908 .14704986 -86.185 241.374)"/><path d="M103.728 194.842c-3.375 0-6.845-.257-10.345-.778-22.344-3.322-38.962-16.524-37.043-29.429.945-6.359 6.118-11.656 14.565-14.915 8.255-3.185 18.71-4.061 29.438-2.466 22.344 3.322 38.962 16.524 37.043 29.429-.945 6.359-6.118 11.656-14.565 14.915-5.562 2.146-12.123 3.244-19.092 3.244zm-13.742-46.367c-6.719 0-13.027 1.052-18.362 3.111-7.746 2.989-12.472 7.727-13.306 13.343-1.756 11.815 14.105 23.997 35.359 27.157 10.392 1.545 20.486.709 28.424-2.354 7.746-2.989 12.472-7.727 13.306-13.343 1.756-11.815-14.105-23.997-35.359-27.157a68.66 68.66 0 0 0-10.062-.757z"/><ellipse cx="192.352" cy="197.984" fill="#adc4cb" rx="39.968" ry="26.437" transform="matrix(.97332723 -.22942124 .22942124 .97332723 -40.292 49.411)"/><path d="M185.087 226.296c-16.379 0-29.869-7.286-32.61-18.913-3.471-14.725 11.593-30.921 33.581-36.104 10.58-2.494 21.184-2.108 29.859 1.088 8.819 3.248 14.611 9.008 16.311 16.218 3.471 14.725-11.593 30.921-33.581 36.104-4.626 1.09-9.196 1.608-13.56 1.608zm14.644-54.644c-4.299 0-8.755.522-13.214 1.573-20.914 4.93-35.311 20.047-32.093 33.699s22.852 20.747 43.765 15.818c20.914-4.93 35.311-20.047 32.093-33.698-1.541-6.536-6.887-11.792-15.055-14.8-4.679-1.723-9.957-2.591-15.496-2.591z"/><path d="M422.369 121.832 246.072 223.255l-.535-.761c.221.292-39.541-54.004-76.396-80.125-52.952-37.531-97.252-27.845-104.173-25.992l-.943-.557L241.048 14.749s43.881-9.344 93.049 18.915c43.307 24.89 88.272 88.168 88.272 88.168z" fill="#fff"/><path d="M246.072 224.255a1 1 0 0 1-.818-.425l-.535-.76v-.001c-.659-.907-39.897-54.186-76.155-79.884-52.15-36.962-95.23-28.012-103.337-25.842a.996.996 0 0 1-.767-.105l-.943-.557a1.001 1.001 0 0 1 .012-1.729L240.553 13.881c.089-.051.187-.088.287-.11.443-.094 44.822-9.099 93.756 19.026 43 24.714 88.138 87.822 88.588 88.456a.999.999 0 0 1-.317 1.446L246.57 224.122a.997.997 0 0 1-.498.133zM87.158 112.828c19.511 0 49.246 5.113 82.561 28.725 19.07 13.516 38.891 34.645 52.16 49.991a585.171 585.171 0 0 1 17.678 21.475c4.681 5.975 6.259 8.055 6.762 8.925l.035-.025.01.014 174.544-100.415c-5.663-7.78-47.478-64.095-87.31-86.988-46.835-26.918-89.361-19.379-92.196-18.833l-173.236 98.91c4.077-.829 10.588-1.778 18.992-1.778z"/><ellipse cx="38.496" cy="237.923" fill="#adc4cb" rx="37.496" ry="27.607"/><path d="M38.496 266.53C17.269 266.53 0 253.697 0 237.923s17.269-28.607 38.496-28.607 38.496 12.833 38.496 28.607-17.269 28.607-38.496 28.607zm0-55.214C18.372 211.316 2 223.252 2 237.923s16.372 26.607 36.496 26.607 36.496-11.936 36.496-26.607-16.372-26.607-36.496-26.607z"/><ellipse cx="154.692" cy="242.867" fill="#dbf301" rx="22.662" ry="39.968" transform="matrix(.14704986 -.98912908 .98912908 .14704986 -108.282 360.165)"/><path d="M161.558 267.05a70.43 70.43 0 0 1-10.346-.778c-22.344-3.322-38.962-16.523-37.043-29.429.945-6.359 6.118-11.656 14.565-14.915 8.254-3.185 18.708-4.061 29.437-2.466 10.728 1.595 20.476 5.474 27.447 10.922 7.133 5.575 10.541 12.148 9.596 18.507-.945 6.359-6.118 11.656-14.564 14.915-5.562 2.146-12.123 3.244-19.092 3.244zm-13.743-46.367c-6.719 0-13.027 1.052-18.362 3.111-7.746 2.989-12.472 7.727-13.306 13.343-1.756 11.815 14.105 23.997 35.359 27.157 10.393 1.545 20.486.709 28.423-2.354 7.746-2.989 12.472-7.727 13.306-13.343.835-5.616-2.308-11.524-8.849-16.637-6.704-5.239-16.118-8.975-26.51-10.52a68.66 68.66 0 0 0-10.062-.757z"/></svg></g><g transform="translate(2158.7999999999997 1606.8) rotate(0.0 162.0 477.6) scale(1.1995956918223858 1.1993897577237713)"><svg width="270.091" height="796.405" viewBox="0 0 270.091 796.405"><path d="m1 357.513 267.718 4.147-45.46 383.103s-.112.939-.172 1.405c-3.521 27.744-42.253 49.237-88.462 49.237-46.352 0-85.192-21.628-88.515-49.499-.045-.38-.14-1.144-.14-1.144L5.196 398.095z" fill="#adc4cb"/><path d="M134.623 796.405c-46.824 0-86.14-22.13-89.508-50.38l-.139-1.139L4.202 398.211.005 357.616a1 1 0 0 1 1.01-1.102l267.718 4.147a1.002 1.002 0 0 1 .977 1.118l-45.46 383.103-.172 1.413c-3.566 28.1-42.859 50.112-89.455 50.112zM2.11 358.53l4.08 39.462 40.771 346.654.14 1.142c3.25 27.262 41.693 48.618 87.521 48.618s84.029-21.244 87.47-48.363l.17-1.398 45.33-382.001z"/><path d="m268.61 365.857-1.874 26.088s-.376 1.663-.626 2.356c-12.831 35.312-67.004 61.761-131.32 61.761-65.214 0-119.528-27.231-131.382-63.27-.239-.727-.659-2.182-.659-2.182l-1.5-28.265v-.045l-.25-4.785 267.61 8.344z" fill="#fff"/><path d="M134.791 457.061c-64.489 0-120.142-26.898-132.332-63.958a88.956 88.956 0 0 1-.67-2.217 1 1 0 0 1-.038-.225l-1.75-33.096c-.015-.279.088-.552.284-.752s.45-.31.746-.3l267.61 8.344a1.002 1.002 0 0 1 .966 1.071l-1.874 26.088c-.004.05-.011.1-.022.149-.04.176-.397 1.744-.66 2.475-13.144 36.17-68.767 62.422-132.26 62.422zM3.743 390.441c.101.348.421 1.442.617 2.038 11.927 36.262 66.782 62.582 130.432 62.582 62.682 0 117.514-25.697 130.379-61.102.177-.492.459-1.664.573-2.162l1.794-24.973-265.483-8.278 1.688 31.894z"/><path d="M1.002 357.516c0 43.126 59.898 78.086 133.785 78.086s134.303-34.96 134.303-78.086-60.416-78.086-134.303-78.086S1.002 314.39 1.002 357.516z" fill="#fff"/><path d="M134.787 436.602c-74.32 0-134.785-35.478-134.785-79.086s60.464-79.086 134.785-79.086 135.303 35.478 135.303 79.086-60.697 79.086-135.303 79.086zm0-156.172c-73.218 0-132.785 34.581-132.785 77.086s59.567 77.086 132.785 77.086 133.303-34.581 133.303-77.086-59.8-77.086-133.303-77.086z"/><path d="M18.221 354.395c0 33.88 52.448 67.042 116.825 67.042 64.378 0 116.308-33.162 116.308-67.042s-52.189-61.344-116.566-61.344c-64.378 0-116.566 27.465-116.566 61.344z" fill="#fff"/><path d="M135.047 422.437c-30.737 0-60.236-7.442-83.064-20.956-22.092-13.077-34.762-30.24-34.762-47.086 0-34.377 52.74-62.344 117.566-62.344s117.566 27.968 117.566 62.344c0 16.864-12.575 34.026-34.5 47.085-22.69 13.514-52.098 20.957-82.807 20.957zm-.259-128.386c-63.724 0-115.566 27.07-115.566 60.344 0 16.122 12.313 32.657 33.781 45.365 22.524 13.333 51.662 20.677 82.045 20.677s59.399-7.343 81.784-20.675c21.305-12.689 33.523-29.225 33.523-45.367 0-33.274-51.843-60.344-115.566-60.344z"/><ellipse cx="134.788" cy="357.516" fill="#fff" rx="91.679" ry="48.247"/><path d="M134.787 406.763c-51.103 0-92.679-22.092-92.679-49.247s41.576-49.247 92.679-49.247 92.679 22.092 92.679 49.247-41.576 49.247-92.679 49.247zm0-96.494c-50 0-90.679 21.195-90.679 47.247s40.678 47.247 90.679 47.247 90.679-21.195 90.679-47.247-40.678-47.247-90.679-47.247z"/><ellipse cx="134.788" cy="356.668" rx="40.628" ry="21.381"/><path d="M134.787 379.049c-22.954 0-41.628-10.04-41.628-22.381s18.674-22.381 41.628-22.381 41.628 10.04 41.628 22.381-18.674 22.381-41.628 22.381zm0-42.762c-21.851 0-39.628 9.143-39.628 20.381s17.777 20.381 39.628 20.381 39.628-9.143 39.628-20.381-17.777-20.381-39.628-20.381z"/><path d="M129.643 377.868c1.682.125 3.398.182 5.148.182 7.592 0 14.695-1.103 20.775-3.012l8.694-33.084 87.093-331.432-24.148-4.741-86.435 329.741-11.127 42.347z" fill="#dbf301"/><path d="M134.791 379.05c-1.818 0-3.575-.062-5.223-.185a1 1 0 0 1-.893-1.251l11.126-42.347 86.437-329.74a1 1 0 0 1 1.16-.728l24.148 4.741a.996.996 0 0 1 .774 1.235l-95.786 364.516a1 1 0 0 1-.667.7c-6.371 2-13.659 3.058-21.075 3.058zm-3.873-2.102a71.12 71.12 0 0 0 3.873.102c7.012 0 13.896-.968 19.95-2.804l95.374-362.948-22.181-4.355-86.197 328.832-10.818 41.173z"/><ellipse cx="239.223" cy="8.406" fill="#fff" rx="7.086" ry="12.302" transform="matrix(.21340553 -.9769637 .9769637 .21340553 179.959 240.324)"/><path d="M242.112 16.82a21.7 21.7 0 0 1-4.614-.514c-3.378-.738-6.402-2.202-8.514-4.121-2.26-2.054-3.239-4.404-2.755-6.618.483-2.213 2.353-3.941 5.264-4.866 2.72-.864 6.079-.933 9.457-.195 7.287 1.592 12.237 6.309 11.27 10.739-.756 3.461-4.87 5.575-10.107 5.575zm-5.745-14.823c-1.539 0-2.991.204-4.27.61-2.2.699-3.591 1.902-3.915 3.387-.325 1.485.438 3.158 2.146 4.711 1.857 1.687 4.555 2.983 7.596 3.647 5.984 1.307 11.636-.311 12.34-3.534s-3.758-7.051-9.743-8.358a19.555 19.555 0 0 0-4.155-.463zm-9.162 3.784h.01z"/></svg></g><g transform="translate(607.1999999999999 1490.3999999999999) rotate(0.0 150.60000000000002 98.40000000000009) scale(1.2036685515615322 1.2057198171815084)"><svg width="250.235" height="163.222" viewBox="0 0 250.235 163.222"><path d="M249.229 78.819v18.369c0 28.426-28.472 53.01-69.818 64.674l-.533.15c-2.796.772-5.688-.634-6.946-3.247-2.883-5.993-10.779-15.882-31.785-17.797-25.839-2.373-38.238 8.159-38.238 8.159s-11.113-.459-22.303 2.618c-6.527 1.787-10.651 4.424-12.892 6.23-1.478 1.191-3.449 1.564-5.244.946-.56-.193-1.099-.381-1.519-.533-35.374-12.66-58.948-35.33-58.948-61.2V78.819c0 25.87 248.226 28.426 248.226 0z" fill="#fff"/><path d="M177.338 163.221c-2.618 0-5.102-1.518-6.307-4.023-2.708-5.629-10.333-15.353-30.974-17.235-25.056-2.301-37.379 7.824-37.501 7.926a1.023 1.023 0 0 1-.687.236c-.11-.005-11.097-.415-21.997 2.583-6.295 1.723-10.288 4.238-12.53 6.044-1.769 1.426-4.086 1.841-6.197 1.112-.565-.195-1.108-.385-1.532-.537C22.288 145.971.003 122.741.003 97.188V78.819a1 1 0 0 1 2 0c0 10.863 55.999 19.372 127.487 19.372 31.812 0 61.087-1.765 82.433-4.97 31.589-4.743 36.306-11.059 36.306-14.402a1 1 0 0 1 2 0v18.369c0 14.029-6.823 27.64-19.732 39.363-12.476 11.33-30.047 20.415-50.814 26.273l-.538.151c-.6.166-1.208.245-1.807.245zm-44.705-23.606c2.394 0 4.927.11 7.606.356 21.624 1.972 29.703 12.349 32.595 18.359 1.061 2.206 3.49 3.348 5.778 2.717l.524-.147c20.474-5.776 37.768-14.708 50.016-25.83 12.48-11.333 19.077-24.433 19.077-37.883V83.426c-4.496 4.903-16.553 8.85-36.009 11.772-21.44 3.219-50.821 4.993-82.729 4.993-40.722 0-114.441-3.693-127.487-17.071v14.067c0 24.671 21.789 47.197 58.286 60.258.418.151.952.337 1.508.529 1.458.503 3.062.212 4.291-.779 2.39-1.926 6.629-4.602 13.255-6.416 10.189-2.802 20.152-2.716 22.23-2.664 1.884-1.46 11.964-8.5 31.06-8.5z"/><path d="M249.229 78.819v18.369c0 28.426-31.027 53.37-72.372 65.035v-23.07s72.372-50.42 72.372-60.334z"/><path d="M176.857 163.223a1.003 1.003 0 0 1-1-1v-23.07c0-.327.16-.634.428-.821 28.919-20.148 71.944-52.623 71.944-59.513a1 1 0 0 1 2 0v18.369c0 27.564-28.694 53.469-73.101 65.997a1.007 1.007 0 0 1-.271.038zm1-23.548v21.222c42.798-12.406 70.372-37.324 70.372-63.708V83.081c-10.816 14.729-62.131 50.842-70.372 56.594z"/><path d="M249.235 78.821c0 28.428-28.483 53.002-69.819 64.669a1.837 1.837 0 0 0-.059.017c-2.983.839-6.165-.545-7.535-3.324-2.966-6.015-10.919-15.695-31.673-17.592-25.843-2.363-38.233 8.174-38.233 8.174s-11.12-.46-22.313 2.606c-6.565 1.799-10.7 4.46-12.929 6.267a5.391 5.391 0 0 1-5.145.933c-.58-.198-1.139-.392-1.57-.547C24.576 127.358 1 104.684 1 78.821 1 39.114 56.569 6.925 125.117 6.925s124.117 32.189 124.117 71.896z" fill="#fff"/><path d="M177.599 144.742c-2.801 0-5.407-1.548-6.674-4.117-2.742-5.56-10.398-15.167-30.867-17.039-25.067-2.293-37.374 7.838-37.496 7.941a1.023 1.023 0 0 1-.688.236c-.111-.005-11.105-.416-22.008 2.571-6.319 1.731-10.321 4.262-12.564 6.08-1.732 1.403-4.011 1.817-6.098 1.102-.584-.2-1.148-.395-1.583-.551C22.288 127.601 0 104.369 0 78.821 0 38.626 56.128 5.925 125.117 5.925s125.117 32.701 125.117 72.896c0 14.028-6.825 27.638-19.736 39.36-12.475 11.326-30.045 20.41-50.811 26.271a7.698 7.698 0 0 1-2.088.29zm-44.937-23.501c2.385 0 4.908.11 7.577.354 21.44 1.96 29.552 12.21 32.479 18.146 1.152 2.337 3.83 3.516 6.368 2.803 20.527-5.794 37.821-14.725 50.068-25.844 12.482-11.332 19.081-24.431 19.081-37.879 0-39.092-55.23-70.896-123.117-70.896S2 39.729 2 78.821c0 24.667 21.792 47.194 58.294 60.261.428.153.982.345 1.557.542 1.43.49 2.997.204 4.192-.764 2.392-1.938 6.641-4.631 13.295-6.454 10.192-2.792 20.162-2.706 22.239-2.653 1.886-1.463 11.969-8.512 31.085-8.512z"/><path d="M217.149 82.333c0 13.054-11.838 16.608-28.155 16.608s-30.936-3.554-30.936-16.608 13.228-23.636 29.545-23.636 29.545 10.582 29.545 23.636z" fill="#dbf301"/><path d="M188.994 99.941c-21.191 0-31.936-5.924-31.936-17.608 0-13.584 13.703-24.636 30.545-24.636s30.546 11.052 30.546 24.636c0 15.782-16.639 17.608-29.155 17.608zm-1.391-40.244c-15.74 0-28.545 10.155-28.545 22.636 0 10.356 10.072 15.608 29.936 15.608 18.78 0 27.155-4.813 27.155-15.608 0-12.482-12.806-22.636-28.546-22.636z"/><path d="M132.543 18.975c0 8.735-15.755 11.818-28.329 11.818s-26.939.74-26.939-7.995S87.491 1.84 103.693 1.059c19.105-.921 28.85 9.182 28.85 17.917z" fill="#dbf301"/><path d="M98.699 31.809c-8.474 0-16.733-.328-20.418-3.997-1.33-1.325-2.005-3.011-2.005-5.013 0-8.944 10.412-21.921 27.369-22.739 10.258-.495 18.96 2.138 24.495 7.414 3.484 3.32 5.403 7.405 5.403 11.502 0 9.461-15.799 12.818-29.329 12.818-.906 0-1.822.004-2.741.008-.923.004-1.851.008-2.774.008zm7.372-29.808c-.766 0-1.543.019-2.33.057-15.778.761-25.466 12.593-25.466 20.741 0 1.471.463 2.647 1.417 3.596 3.498 3.484 12.787 3.445 21.773 3.407.921-.004 1.84-.008 2.749-.008 13.163 0 27.329-3.385 27.329-10.818 0-3.544-1.699-7.115-4.783-10.054-4.72-4.498-12.006-6.92-20.689-6.92z"/><path d="M96.341 74.24c0 6.026-10.87 8.154-19.545 8.154s-18.585.511-18.585-5.516 7.048-14.46 18.226-14.999c13.181-.636 19.904 6.335 19.904 12.361z" fill="#dbf301"/><path d="M72.994 83.404c-5.912 0-11.681-.231-14.309-2.848-.979-.974-1.475-2.212-1.475-3.678 0-6.294 7.296-15.425 19.177-15.998 7.169-.345 13.248 1.501 17.129 5.2 2.466 2.35 3.824 5.248 3.824 8.16 0 6.756-11.067 9.154-20.545 9.154l-1.89.005c-.636.003-1.275.005-1.912.005zm5.084-20.565c-.524 0-1.055.013-1.594.039-10.703.516-17.274 8.502-17.274 14 0 .928.29 1.667.886 2.261 2.322 2.313 8.951 2.283 14.802 2.26l1.898-.005c8.932 0 18.545-2.239 18.545-7.154 0-2.36-1.138-4.743-3.204-6.712-3.198-3.047-8.149-4.689-14.059-4.689zm-13.638 97.23a1 1 0 0 1-1-.988l-.217-18.3a1.001 1.001 0 0 1 2-.024l.217 18.3a1.001 1.001 0 0 1-.988 1.012zm37.757-10.278c-.546 0-.993-.44-1-.988l-.217-18.299a1.001 1.001 0 0 1 .988-1.012h.012c.546 0 .993.44 1 .988l.217 18.299a1.001 1.001 0 0 1-.988 1.012z"/></svg></g><g transform="translate(616.8 661.1999999999999) rotate(0.0 325.20000000000005 443.40000000000003) scale(1.1983484017415116 1.1995260330153714)"><svg width="542.747" height="739.292" viewBox="0 0 542.747 739.292"><path d="m183.552 53.455 358.195 205.38-27.149-52.456L156.402 1z" fill="#fff"/><path d="M541.747 259.835a.988.988 0 0 1-.497-.133L183.054 54.323a.998.998 0 0 1-.391-.408L155.514 1.46A1 1 0 0 1 156.9.133l358.195 205.379a.998.998 0 0 1 .391.408l27.149 52.455a1 1 0 0 1-.889 1.46zM184.304 52.734l354.993 203.543-25.453-49.177L158.852 3.557z"/><path d="m512.902 677.573-355.044-207.17-41.648-175.356L156.402 1l358.196 205.379z" fill="#adc4cb"/><path d="M512.902 678.573a.999.999 0 0 1-.504-.136l-355.045-207.17a1.002 1.002 0 0 1-.469-.633l-41.648-175.356a.98.98 0 0 1-.018-.366L155.412.864A1 1 0 0 1 156.9.132l358.195 205.379a1 1 0 0 1 .503.871l-1.696 471.194a1.002 1.002 0 0 1-1 .997zM158.731 469.755l353.177 206.08 1.688-468.878L157.192 2.606l-39.967 292.392z"/><path d="M157.858 470.403 53.457 531.189l.259-245.728-2.057-224.934L156.402 1z" fill="#adc4cb"/><path d="M53.457 532.189a1 1 0 0 1-1-1.001l.259-245.728-2.057-224.925a.999.999 0 0 1 .506-.878L155.908.131a1 1 0 0 1 1.494.866l1.455 469.403a.998.998 0 0 1-.497.867l-104.4 60.787a.995.995 0 0 1-.503.136zm-.793-471.084 2.052 224.347-.257 243.997 102.397-59.62-1.448-467.113L52.664 61.105z"/><path d="M454.94 285.124c-2.511 28.703-15.363 52.518-38.382 63.294-5.627 2.634-14.703 5.127-15.451 5.096 17.19-10.518 40.409-37.813 42.651-63.477.179-2.027 1.802-40.639-19.638-70.553-21.225-29.609-62.986-40.83-88.999-33.351 2-1.238 11.252-5.197 13.497-5.951 29.112-9.788 64.096 2.887 86.684 34.389 21.44 29.914 19.817 68.526 19.638 70.553z" fill="#fff"/><path d="M401.096 354.515h-.03a1 1 0 0 1-.481-1.853c15.636-9.567 39.854-36.115 42.177-62.711.034-.382 2.387-39.409-19.454-69.883-20.708-28.888-62.175-40.372-87.91-32.972a1 1 0 0 1-.803-1.811c2.15-1.331 11.46-5.295 13.704-6.049 30.312-10.192 65.602 3.775 87.816 34.754 22.252 31.046 19.856 70.835 19.821 71.223-2.659 30.399-16.857 53.767-38.954 64.112-5.461 2.556-14.647 5.19-15.885 5.19zM352.373 182.88c9.389 0 19.493 1.711 29.366 5.076 17.929 6.112 33.269 17.102 43.194 30.948 22.255 31.051 19.855 70.836 19.821 71.223-2.155 24.665-22.598 49.247-38.311 60.963 3.035-.93 6.794-2.22 9.691-3.576 21.749-10.182 35.177-32.369 37.81-62.476.034-.381 2.384-39.414-19.455-69.883-21.698-30.26-56.079-43.933-85.553-34.023-.991.333-3.31 1.278-5.76 2.332a70.689 70.689 0 0 1 9.197-.583z"/><path d="M443.758 290.035c-2.512 28.705-16.952 53.224-37.547 61.725-31.887 13.155-75.224-11.971-94.216-57.999-18.992-46.019-6.447-95.508 25.439-108.662 26.415-10.899 64.103 2.887 86.684 34.385 21.444 29.912 19.817 68.527 19.64 70.551z" fill="#fff"/><path d="M388.225 356.246c-29.397 0-61.749-24.766-77.155-62.103-9.198-22.287-11.474-46.178-6.408-67.27 4.97-20.694 16.776-36.257 32.39-42.698 27.709-11.433 65.489 3.496 87.878 34.726 22.225 31.001 19.858 70.833 19.823 71.221-2.581 29.501-17.56 54.059-38.161 62.562-5.853 2.415-12.042 3.562-18.368 3.562zm-31.028-173.913c-6.774 0-13.327 1.192-19.381 3.69-15.015 6.194-26.39 21.253-31.208 41.316-4.968 20.686-2.727 44.14 6.312 66.04 15.092 36.575 46.659 60.879 75.239 60.881 6.09 0 12.041-1.103 17.672-3.425 19.918-8.222 34.415-32.122 36.932-60.888.033-.381 2.355-39.456-19.457-69.882-16.938-23.626-42.814-37.733-66.108-37.733z"/><path d="M251.166 195.975c-2.511 28.703-15.363 52.518-38.382 63.294-5.627 2.634-14.703 5.127-15.451 5.096 17.19-10.518 40.409-37.813 42.651-63.477.179-2.027 1.802-40.639-19.638-70.553-21.225-29.609-62.986-40.83-88.999-33.351 2-1.238 11.252-5.197 13.497-5.951 29.112-9.788 64.096 2.887 86.684 34.389 21.44 29.914 19.817 68.526 19.638 70.553z" fill="#fff"/><path d="M197.322 265.365h-.03a1 1 0 0 1-.481-1.853c15.636-9.567 39.854-36.115 42.177-62.711.034-.382 2.387-39.408-19.454-69.883-20.708-28.888-62.176-40.372-87.91-32.972a1 1 0 0 1-.803-1.811c2.15-1.331 11.461-5.295 13.704-6.049 30.312-10.192 65.602 3.775 87.816 34.754 22.236 31.025 19.859 70.768 19.821 71.222-2.659 30.4-16.857 53.768-38.954 64.113-5.461 2.556-14.647 5.19-15.885 5.19zM148.599 93.73c9.389 0 19.493 1.711 29.366 5.076 17.929 6.112 33.269 17.102 43.194 30.948 22.255 31.052 19.855 70.835 19.821 71.223-2.154 24.664-22.599 49.246-38.312 60.963 3.035-.93 6.794-2.22 9.691-3.576 21.749-10.181 35.177-32.369 37.81-62.476.034-.381 2.387-39.409-19.454-69.883-21.698-30.26-56.078-43.933-85.553-34.023-.991.333-3.311 1.278-5.76 2.332a70.7 70.7 0 0 1 9.197-.583z"/><path d="M239.984 200.886c-2.512 28.705-16.952 53.224-37.547 61.725-31.887 13.155-75.224-11.971-94.216-57.999-18.992-46.019-6.447-95.508 25.439-108.662 26.415-10.899 64.103 2.887 86.684 34.385 21.444 29.912 19.817 68.527 19.64 70.551z" fill="#fff"/><path d="M184.451 267.096c-29.397 0-61.749-24.766-77.155-62.103-9.198-22.287-11.474-46.178-6.408-67.27 4.97-20.694 16.776-36.256 32.39-42.698 27.71-11.433 65.489 3.496 87.878 34.727 22.221 30.996 19.858 70.833 19.824 71.221-2.581 29.501-17.56 54.059-38.161 62.562-5.853 2.415-12.043 3.562-18.368 3.562zM153.423 93.183c-6.774 0-13.327 1.192-19.381 3.69-15.015 6.194-26.39 21.253-31.208 41.316-4.968 20.686-2.727 44.139 6.312 66.04 18.308 44.369 60.856 70.679 92.911 57.456 19.918-8.222 34.415-32.122 36.932-60.888.033-.386 2.35-39.463-19.457-69.882-16.938-23.626-42.814-37.733-66.108-37.733zm86.561 107.702h.01z"/><path d="M359.216 255.934c-3.182 36.38-19.471 66.563-48.647 80.222-7.131 3.338-18.635 6.498-19.583 6.46 21.787-13.331 51.216-47.926 54.058-80.453.227-2.569 2.284-51.507-24.89-89.421-26.901-37.528-79.831-51.749-112.801-42.271 2.534-1.569 14.261-6.587 17.106-7.543 36.898-12.406 81.238 3.66 109.867 43.586 27.174 37.914 25.117 86.853 24.89 89.421z" fill="#fff"/><path d="M290.979 343.615h-.034a1 1 0 0 1-.481-1.853c19.864-12.155 50.631-45.886 53.583-79.687.043-.484 3.03-50.053-24.706-88.752-26.312-36.705-79.005-51.295-111.712-41.892a1 1 0 0 1-.803-1.811c2.639-1.633 14.551-6.712 17.314-7.64 38.306-12.88 82.914 4.783 110.999 43.951 28.154 39.281 25.116 89.602 25.073 90.092-3.362 38.432-21.302 67.97-49.219 81.04-6.73 3.151-18.503 6.554-20.013 6.554zm-61.76-217.004c11.87 0 24.646 2.164 37.133 6.42 22.672 7.728 42.068 21.624 54.615 39.127 28.15 39.275 25.116 89.602 25.073 90.092-2.782 31.848-29.699 63.595-49.719 78.006 4.036-1.184 9.58-3.019 13.824-5.006 27.656-12.947 44.729-41.146 48.075-79.403.043-.484 3.034-50.047-24.706-88.751-27.57-38.449-71.267-55.818-108.736-43.22-1.504.506-5.419 2.122-9.147 3.758 4.337-.682 8.893-1.021 13.588-1.021z"/><path d="M345.043 262.158c-3.183 36.382-21.485 67.458-47.589 78.233-40.415 16.673-95.343-15.173-119.414-73.51-24.072-58.326-8.172-121.051 32.243-137.723 33.479-13.813 81.247 3.659 109.867 43.581 27.18 37.912 25.117 86.854 24.893 89.42z" fill="#fff"/><path d="M274.681 345.759c-14.141 0-29.198-4.448-43.579-13.139-23.21-14.026-42.382-37.237-53.986-65.358-11.637-28.196-14.517-58.417-8.109-85.097 6.279-26.144 21.185-45.801 40.895-53.932 16.637-6.865 37.057-6.285 57.498 1.632 20.751 8.037 39.773 23.056 53.563 42.291 28.11 39.209 25.119 89.599 25.076 90.09-3.263 37.293-22.184 68.33-48.203 79.07-7.212 2.975-15.034 4.444-23.156 4.444zM235.05 125.473c-8.682 0-16.93 1.532-24.384 4.608-19.111 7.884-33.585 27.038-39.713 52.551-6.31 26.273-3.464 56.057 8.013 83.867 23.259 56.368 77.346 89.784 118.108 72.968 25.337-10.458 43.775-40.838 46.974-77.396.042-.49 2.985-50.119-24.71-88.75-13.565-18.922-32.267-33.693-52.66-41.591-10.753-4.165-21.487-6.256-31.629-6.256zm109.994 136.684h.01zm167.858 415.416-104.274 60.719-59.553-238.594 59.807-232.203 105.716-61.116z"/><path d="M408.628 739.292a.998.998 0 0 1-.97-.758L348.105 499.94a1 1 0 0 1 .002-.492l59.807-232.204a1 1 0 0 1 .468-.616l105.716-61.115a1.002 1.002 0 0 1 1.501.869l-1.696 471.194a1 1 0 0 1-.497.861l-104.274 60.719c-.155.09-.329.136-.503.136zm-58.521-239.59 59.169 237.055 102.628-59.761 1.688-468.881-103.846 60.034-59.639 231.552zm162.795 177.871h.01z"/><path d="M408.628 738.292 53.457 531.189 51.659 60.527l357.223 206.968z" fill="#fff"/><path d="M408.628 739.292a.999.999 0 0 1-.504-.136L52.954 532.053a.999.999 0 0 1-.496-.86L50.659 60.53a1 1 0 0 1 1.501-.869l357.223 206.968a1 1 0 0 1 .499.866l-.254 470.797a1.002 1.002 0 0 1-1 1zM54.455 530.614l353.174 205.938.253-468.481L52.665 62.266z"/><path d="m51.659 60.527 357.223 206.968-50.659 84.889L1 145.416z" fill="#fff"/><path d="M358.222 353.384a.987.987 0 0 1-.5-.135L.499 146.281a1 1 0 0 1-.358-1.377L50.8 60.014a1 1 0 0 1 1.36-.353l357.223 206.968a1 1 0 0 1 .358 1.377l-50.659 84.889a1.001 1.001 0 0 1-.86.488zM2.378 145.059 357.87 351.024l49.634-83.172L52.011 61.887z"/><path d="M312.588 454.623c2.341 1.073 3.701 3.574 3.476 6.14-3.183 36.382-21.485 67.458-47.589 78.233-40.415 16.673-95.343-15.173-119.414-73.51-24.072-58.326-8.172-121.051 32.243-137.723 33.479-13.813 80.899 3.911 109.867 43.581.865 1.184.278 2.907-1.154 3.218-1.278.278-2.434.701-3.414 1.264-6.524 3.762-7.194 14.809-1.5 24.674 1.796 3.103 4.012 5.728 6.41 7.74-3.353 7.808-2.125 19.309 4.001 29.925 4.499 7.795 10.734 13.553 17.074 16.46z" fill="#fff"/><path d="M245.701 544.364c-14.141 0-29.198-4.448-43.578-13.139-23.209-14.026-42.382-37.237-53.985-65.359-11.637-28.196-14.517-58.417-8.109-85.097 6.279-26.144 21.185-45.801 40.895-53.932 34.604-14.278 82.348 4.602 111.056 43.915.62.85.768 1.944.394 2.928a2.966 2.966 0 0 1-2.143 1.857c-1.197.26-2.249.648-3.128 1.154-2.854 1.646-4.57 4.928-4.832 9.242-.271 4.467 1.042 9.462 3.699 14.065 1.68 2.904 3.82 5.488 6.187 7.474a1 1 0 0 1 .276 1.161c-3.37 7.847-1.857 18.971 3.948 29.03 4.204 7.284 10.263 13.134 16.625 16.05 2.691 1.234 4.321 4.101 4.056 7.136-3.263 37.293-22.184 68.33-48.203 79.07-7.212 2.975-15.034 4.444-23.156 4.444zm-39.737-220.287c-8.506 0-16.716 1.49-24.278 4.61-19.11 7.884-33.585 27.038-39.713 52.551-6.31 26.273-3.464 56.057 8.013 83.867 23.259 56.369 77.346 89.783 118.108 72.968 25.337-10.458 43.775-40.838 46.974-77.396.192-2.194-.972-4.261-2.897-5.144-6.829-3.13-13.052-9.121-17.524-16.869-5.95-10.311-7.58-21.773-4.332-30.137-2.322-2.062-4.413-4.65-6.078-7.526-2.852-4.94-4.259-10.334-3.964-15.187.304-5.007 2.375-8.861 5.83-10.854 1.058-.609 2.303-1.071 3.701-1.375a.95.95 0 0 0 .698-.613 1.095 1.095 0 0 0-.139-1.039c-21.871-29.951-54.911-47.856-84.4-47.856z"/><path d="M241.535 368.69c6.645 17.94 2.992 37.883-8.388 42.099-11.381 4.215-29.253-4.916-35.898-22.856s.453-37.894 11.834-42.11c11.381-4.215 25.807 4.927 32.452 22.866z" fill="#dbf301"/><path d="M227.201 412.791c-4.563 0-9.579-1.46-14.291-4.263-7.526-4.477-13.422-11.668-16.6-20.248-3.154-8.514-3.468-18.297-.861-26.841 2.505-8.212 7.472-14.401 13.286-16.554 5.926-2.195 12.642-1.045 18.913 3.237 6.331 4.323 11.595 11.503 14.824 20.22 3.252 8.779 4.203 18.523 2.609 26.734-1.642 8.462-5.866 14.531-11.588 16.65-1.93.715-4.057 1.065-6.293 1.065zm-12.362-66.99c-1.859 0-3.675.317-5.409.96-5.232 1.938-9.743 7.644-12.068 15.262-2.481 8.134-2.181 17.451.824 25.562 3.02 8.153 8.612 14.98 15.747 19.224 6.506 3.87 13.559 5.007 18.866 3.041 5.052-1.871 8.813-7.395 10.32-15.156 1.526-7.861.607-17.213-2.521-25.658-3.086-8.331-8.085-15.172-14.076-19.263-3.849-2.628-7.857-3.973-11.682-3.973z"/><path d="M250.007 476.611c11.775 9.561 16.411 23.358 10.355 30.818-6.057 7.46-25.239 8.987-37.014-.574s-11.685-26.588-5.628-34.048 20.512-5.756 32.287 3.804z" fill="#dbf301"/><path d="M243.475 514.549c-7.142 0-14.878-2.144-20.758-6.918-12.521-10.167-11.768-28.073-5.774-35.455 6.394-7.875 21.51-6.233 33.694 3.658 12.185 9.893 16.895 24.349 10.501 32.224-3.362 4.141-10.187 6.49-17.663 6.49zm-14.516-45.406c-4.376 0-8.113 1.399-10.464 4.295-5.492 6.764-6.106 23.233 5.482 32.641 11.028 8.954 29.711 7.981 35.607.72 5.699-7.02 1.12-20.213-10.209-29.411-6.656-5.404-14.184-8.245-20.417-8.245z"/><path d="M184.572 403.067c-2.871 9.501-14.599 14.221-20.881 12.322-6.283-1.899-9.049-11.14-6.178-20.641s10.292-15.664 16.575-13.765 13.356 12.583 10.485 22.084z" fill="#dbf301"/><path d="M166.712 416.792c-1.203 0-2.323-.147-3.311-.446-6.801-2.055-9.872-11.874-6.846-21.887 3.026-10.014 11.02-16.488 17.821-14.433 6.587 1.99 14.204 13.234 11.153 23.33-2.641 8.739-12.029 13.436-18.817 13.436zm5.01-35.156c-5.237 0-10.865 5.502-13.252 13.401-2.707 8.958-.235 17.658 5.51 19.394 5.828 1.76 16.947-2.758 19.635-11.654 2.731-9.039-3.986-19.075-9.817-20.837a7.156 7.156 0 0 0-2.076-.304z"/></svg></g><g transform="translate(325.2 1004.4) rotate(0.0 161.99999999999997 479.3999999999999) scale(1.1995956918223856 1.1985089888174159)"><svg width="270.091" height="799.994" viewBox="0 0 270.091 799.994"><path d="m1 361.102 267.971 3.325-26.797 373.071s-.081 1.109-.125 1.66c-2.675 33.308-49.785 59.835-107.515 59.835-57.908 0-105.131-26.691-107.539-60.144-.032-.449-.102-1.351-.102-1.351L2.75 394.198 1 361.103z" fill="#87c159"/><path d="M134.533 799.994c-58.397 0-106.072-26.826-108.536-61.072l-.101-1.346L1.753 394.268.001 361.155a1.003 1.003 0 0 1 1.01-1.053l267.971 3.325a.996.996 0 0 1 .985 1.071L243.17 737.569s-.082 1.114-.125 1.668c-2.737 34.069-50.401 60.756-108.512 60.756zM2.055 362.115l1.694 32.029 24.142 343.284.102 1.35c1.142 15.866 12.665 30.717 32.448 41.817 19.997 11.22 46.31 17.399 74.093 17.399 57.077 0 103.865-25.879 106.519-58.915.043-.549.124-1.653.124-1.653l26.722-372.011-265.842-3.299z"/><path d="m268.61 369.446-1.874 26.088s-.376 1.663-.626 2.356c-12.831 35.312-67.004 61.761-131.32 61.761-65.214 0-119.528-27.231-131.382-63.27-.239-.727-.659-2.182-.659-2.182l-1.5-28.265v-.045l-.25-4.785 267.61 8.344z" fill="#fff"/><path d="M134.791 460.65c-64.489 0-120.142-26.898-132.331-63.958a88.956 88.956 0 0 1-.67-2.217 1 1 0 0 1-.038-.225L.001 361.154a.998.998 0 0 1 .284-.752.968.968 0 0 1 .746-.3l267.61 8.344a.998.998 0 0 1 .966 1.071l-1.874 26.088c-.004.05-.011.1-.022.149-.04.176-.397 1.744-.66 2.475-13.144 36.17-68.767 62.422-132.261 62.422zM3.743 394.03c.101.348.421 1.442.617 2.038 11.927 36.262 66.781 62.582 130.431 62.582 62.682 0 117.515-25.697 130.38-61.102.177-.492.459-1.664.573-2.162l1.794-24.973-265.483-8.277z"/><path d="M1.002 361.105c0 43.126 59.898 78.086 133.785 78.086s134.303-34.96 134.303-78.086-60.416-78.086-134.303-78.086S1.002 317.979 1.002 361.105z" fill="#fff"/><path d="M134.788 440.191C60.467 440.191.002 404.713.002 361.105s60.464-79.086 134.785-79.086 135.303 35.478 135.303 79.086-60.697 79.086-135.303 79.086zm0-156.172c-73.218 0-132.785 34.581-132.785 77.086s59.567 77.086 132.785 77.086 133.303-34.581 133.303-77.086-59.799-77.086-133.303-77.086z"/><ellipse cx="134.788" cy="357.985" fill="#87c159" rx="116.566" ry="61.344"/><path d="M134.788 420.329c-64.826 0-117.566-27.968-117.566-62.344s52.74-62.344 117.566-62.344 117.566 27.968 117.566 62.344-52.74 62.344-117.566 62.344zm0-122.689c-63.724 0-115.566 27.07-115.566 60.344s51.843 60.344 115.566 60.344 115.566-27.07 115.566-60.344-51.843-60.344-115.566-60.344z"/><path d="M23.328 375.991c14.616 25.094 58.986 43.335 111.459 43.335s96.854-18.241 111.47-43.335c-14.627-25.083-58.997-43.324-111.47-43.324-52.462 0-96.831 18.241-111.459 43.324z" fill="#dbf301"/><path d="M134.787 420.327c-51.914 0-97.053-17.615-112.323-43.832a1.002 1.002 0 0 1 0-1.007c15.285-26.21 60.424-43.82 112.323-43.82s97.049 17.61 112.333 43.82a.997.997 0 0 1 0 1.007c-15.27 26.217-60.414 43.832-112.334 43.832zM24.49 375.992c7.151 11.89 21.589 22.581 40.738 30.148 20.177 7.973 44.23 12.187 69.559 12.187s49.384-4.214 69.564-12.187c19.153-7.568 33.593-18.258 40.744-30.148-7.157-11.886-21.598-22.573-40.748-30.139-20.18-7.972-44.233-12.186-69.56-12.186s-49.372 4.214-69.55 12.186c-19.149 7.566-33.59 18.253-40.747 30.139zm40.82-103.345c-12.201 0-20.944-3.258-22.891-9.5-1.645-5.272 1.87-11.721 9.896-18.158 7.778-6.238 18.943-11.82 31.438-15.718s24.852-5.654 34.799-4.945c10.262.732 16.82 4.038 18.464 9.311 1.645 5.272-1.87 11.721-9.896 18.158-7.778 6.238-18.943 11.82-31.438 15.718-11.081 3.457-21.617 5.135-30.373 5.135zm-20.982-10.096c2.911 9.329 26.154 10.727 50.759 3.052 12.263-3.825 23.195-9.284 30.783-15.369 7.233-5.801 10.601-11.634 9.238-16.002-1.362-4.368-7.449-7.252-16.697-7.911-9.704-.691-21.799 1.034-34.062 4.859-12.263 3.826-23.195 9.284-30.783 15.369-7.233 5.801-10.601 11.634-9.238 16.002z"/><path d="m20.152 10.863-.09-.341.045-.009c-.33-3.684 4.233-7.645 10.572-9.03 6.637-1.45 12.695.474 13.531 4.298l86.435 329.741 11.127 42.346s0 5.467-11.912 5.383c-10.448-.074-12.945-4.568-12.945-4.568l-9.761-36.73L20.317 11.49c-.052-.151-.108-.301-.143-.459-.012-.055-.012-.112-.021-.168z" fill="#fff"/><path d="M130.133 384.252h-.279c-10.907-.077-13.699-4.878-13.813-5.082a.989.989 0 0 1-.092-.229l-9.761-36.73L19.35 11.744a3.793 3.793 0 0 1-.153-.499 2.667 2.667 0 0 1-.029-.194l-.072-.274a1 1 0 0 1-.003-.498c-.114-4.153 4.693-8.314 11.374-9.773 7.287-1.592 13.753.631 14.721 5.061l86.425 329.701 11.127 42.346c.021.083.033.168.033.254 0 .171-.045 1.713-1.601 3.258-2.089 2.075-5.803 3.126-11.039 3.126zm-12.292-5.978c.396.552 3.174 3.915 12.026 3.977h.263c9.456 0 10.516-3.647 10.63-4.304l-11.082-42.173L43.243 6.034c-.714-3.264-6.366-4.882-12.35-3.574-5.68 1.241-10.072 4.813-9.79 7.964.004.046.005.091.003.135l.013.049a1.203 1.203 0 0 1 .038.241c.013.059.046.146.077.234.009.025.043.127.05.152l86.837 330.464 9.72 36.574z"/><path d="M134.788 440.191C60.467 440.191.002 404.713.002 361.105c0-14.954 2.334-53.281 23.957-86.123 23.459-35.631 61.658-53.741 113.536-53.827h.285c36.602 0 66.864 11.687 89.956 34.742 33.434 33.378 42.354 81.837 42.354 105.208 0 43.608-60.697 79.086-135.303 79.086zm2.992-217.036h-.282C8.535 223.369 2.002 338.106 2.002 361.105c0 42.505 59.567 77.086 132.785 77.086S268.09 403.61 268.09 361.105c0-23.063-8.797-70.878-41.767-103.793-22.703-22.665-52.494-34.157-88.544-34.157z"/></svg></g></svg>