<svg height="772.577" viewBox="0 0 978.017 772.577" width="978.017" xmlns="http://www.w3.org/2000/svg"><path d="m475.222 537.665s-110.289 201.256-122.667 220.812c-21.433 33.862-85.251-3.186-98.706-8.779-13.455-5.594-8.7-20.899 8.707-17.788-22.709-14.475-2.005-19.703 7.117-17.222-20.608-16.119-3.148-23.414 6.518-20.411s20.364 13.588 30.869 18.442c6.985 3.227 20.139 6.257 29.357-12.609 7.234-14.805 98.331-184.561 98.331-184.561l40.475 22.115z" fill="#2424ff"/><path d="m493.726 535.27s106.637 203.652 119.015 223.208c21.433 33.862 85.251-3.186 98.706-8.779 13.455-5.594 8.7-20.899-8.707-17.788 22.709-14.475 2.005-19.703-7.117-17.222 20.608-16.119 3.148-23.414-6.518-20.411-9.667 3.003-20.364 13.588-30.869 18.442-6.985 3.227-20.139 6.257-29.357-12.609-7.234-14.805-94.679-186.957-94.679-186.957l-40.475 22.115z" fill="#2424ff"/><rect fill="#2424ff" height="573.708" rx="121.376" width="242.751" x="360.796"/><rect fill="#2424ff" height="119.33" rx="59.665" transform="matrix(.99969592 .024659 -.024659 .99969592 2.771 -10.079)" width="202.929" x="308.468" y="47.609"/><rect fill="#2424ff" height="119.33" rx="59.665" transform="matrix(.99969592 .024659 -.024659 .99969592 2.814 -13.556)" width="202.929" x="449.387" y="47.609"/><path d="m479.914 134.755s9.097 26.613 20.287 38.539-5.441 31.865-18.14 13.67c-16.73-23.97-4.751-48.717-2.147-52.208z" fill="#27ffea"/><path d="m424.452 188.868c-19.192-2.671-38.312 12.889-25.839 33.44s39.262 23.391 61.972 19.885 25.9-28.024 11.396-36.635-31.687-14.484-47.528-16.689z" fill="#27ffea"/><path d="m442.282 97.077h72.68v16.046h-72.68z" fill="#ffe200"/><path d="m426.81 205.814c-13.822-3.204-18.242 9.016-11.096 15.147 7.147 6.13 23.841 7.17 30.246 5.148s10.865-9.944 1.351-14.676-15.324-4.419-20.501-5.619z" fill="#2424ff"/><circle cx="484.65" cy="513.939" fill="#ff24ff" r="227.253"/><path d="m484.65 749.192c-62.838 0-121.916-24.471-166.349-68.904-44.433-44.434-68.904-103.511-68.904-166.349s24.471-121.916 68.904-166.349c44.434-44.433 103.511-68.904 166.349-68.904s121.916 24.471 166.349 68.904c44.433 44.434 68.904 103.511 68.904 166.349s-24.471 121.916-68.904 166.349c-44.434 44.433-103.511 68.904-166.349 68.904zm0-454.506c-120.896 0-219.253 98.356-219.253 219.253s98.356 219.253 219.253 219.253 219.253-98.356 219.253-219.253-98.356-219.253-219.253-219.253z" fill="#ffe200"/><g fill="#fff"><path d="m418.367 394.202h-37.911c-3.866 0-7-3.134-7-7s3.134-7 7-7h37.911c3.866 0 7 3.134 7 7s-3.134 7-7 7z"/><path d="m579.501 459.979c-1.531 0-3.047-.142-4.522-.427-5.684-1.099-11.095-4.382-14.617-9.81-10.917 6.25-25.437 12.737-34.338 5.552-6.066-4.897-5.976-13.396-3.869-19.718.33-.991.743-2.229 1.21-3.637-2.586 2.644-5.477 5.619-8.705 8.966-20.958 21.734-34.212 17.99-38.936 15.371-5.494-3.045-8.324-9.195-6.884-14.956 1.046-4.183 2.409-8.837 3.852-13.765 1.04-3.551 2.114-7.222 3.166-11.035 1.357-4.919 1.045-7.491.745-8.289-.63-.066-2.301.08-5.004 1.391-9.425 4.57-22.088 18.355-29.654 39.051-.42 1.189-.659 1.86-.682 1.923-1.292 3.628-5.272 5.531-8.907 4.258-3.635-1.272-5.56-5.242-4.307-8.884.2-.581.403-1.156.611-1.73-23.472 18.021-36.904 12.545-41.725 9.201-7.749-5.374-10.321-15.804-6.552-26.571 6.057-17.307 34.427-92.874 35.631-96.082 1.359-3.619 5.396-5.45 9.014-4.092 3.62 1.359 5.452 5.395 4.093 9.014-.294.784-29.519 78.627-35.524 95.785-1.605 4.586-1.076 8.783 1.317 10.442 2.996 2.078 12.328 2.042 28.301-11.27 5.098-4.249 10.116-8.9 14.976-13.789 7.272-21.19 16.694-49.377 21.987-68.145 4.028-14.279 11.961-23.63 21.766-25.655 6.772-1.4 13.669 1.042 17.995 6.369 4.977 6.127 5.783 14.765 2.156 23.106-4.247 9.768-13.494 25.211-25.913 41.696 1.673-.028 3.274.186 4.765.647 3.328 1.03 13.769 5.902 8.405 25.346-1.081 3.918-2.171 7.643-3.227 11.246-1.326 4.528-2.582 8.82-3.542 12.581.239.112.667.24 1.333.261 1.791.051 8.688-.724 20.665-13.144 23.521-24.393 29.82-29.713 30.077-29.928 2.4-2.006 5.842-2.177 8.428-.417 2.587 1.76 3.692 5.023 2.706 7.993 0 0-7.742 23.323-10.356 31.168-.663 1.987-.659 3.667-.495 4.376 1.137.215 6.281.437 20.338-7.879.346-.204.69-.409 1.03-.612-.061-2.006.054-4.137.364-6.391.528-3.83 4.055-6.502 7.891-5.978 2.348.324 4.262 1.777 5.271 3.735 4.52-3.132 8.291-6.072 11.349-8.852-2.298-4.688-3.846-10.132-2.247-16.528 1.595-6.378 5.766-11.035 11.158-12.456 4.309-1.134 8.66.059 11.64 3.193 2.188 2.301 5.406 7.586 2.373 17.12-1.125 3.537-2.971 7.023-5.639 10.555 3.415 5.832 6.608 12.922 4.332 22.029-2.924 11.697-13.388 17.661-23.301 17.662zm-7.209-17.527c1.238 1.758 3.036 2.908 5.345 3.354 4.625.893 10.221-1.437 11.583-6.885.708-2.833.241-5.315-1.003-8.079-4.356 3.699-9.63 7.536-15.925 11.609zm-86.496-105.769c-.318 0-.657.033-1.02.108-3.43.708-8.153 5.216-11.123 15.745-2.934 10.401-7.104 23.618-11.481 36.953 12.855-16.526 22.716-32.468 27.085-42.516 1.502-3.455 1.433-6.706-.185-8.698-.519-.639-1.579-1.592-3.277-1.592z"/><ellipse cx="546.679" cy="381.645" rx="9.728" ry="8.597"/><path d="m462.628 673.836c-3.855 0-6.648-1.084-8.345-2.024-5.493-3.045-8.324-9.195-6.884-14.956.954-3.816 2.06-6.973 3.23-10.315 1.115-3.184 2.268-6.477 3.469-10.832 1.882-6.82 1.15-12.364-1.739-13.181-2.027-.574-5.154.235-8.778 2.765-3.306 3.689-6.809 7.416-10.496 11.143-4.719 6.842-9.407 16.429-13.134 29.295-1.067 3.683-4.899 5.823-8.594 4.798-3.695-1.024-5.878-4.831-4.896-8.537.061-.23.249-.937.551-2.057-23.342 17.828-36.71 12.377-41.518 9.043-7.749-5.375-10.321-15.804-6.553-26.572 6.036-17.245 33.406-94.39 33.682-95.167 1.293-3.644 5.296-5.548 8.938-4.256 3.643 1.293 5.549 5.294 4.256 8.938-.276.777-27.636 77.894-33.663 95.111-1.605 4.586-1.076 8.783 1.317 10.442 2.995 2.078 12.328 2.042 28.302-11.269 4.247-3.539 8.331-7.147 12.237-10.783 6.075-20.303 14.963-47.656 23.471-65.147 10.942-22.496 24.695-25.933 33.146-22.044 7.886 3.63 12.728 14.528 6.726 28.334-3.815 8.775-10.781 20.199-20.435 32.723 8.776 2.932 15.344 13.229 10.677 30.146-1.328 4.812-2.616 8.49-3.752 11.736-1.032 2.946-1.933 5.519-2.696 8.438.239.112.667.239 1.331.26 1.811.062 8.688-.724 20.664-13.143 2.683-2.783 7.114-2.864 9.898-.18 2.783 2.684 2.864 7.115.18 9.898-13.436 13.933-23.706 17.395-30.591 17.396zm1.564-112.995c-2.203 0-8.115 3.208-14.121 15.556-4.751 9.769-9.718 23.087-14.214 36.453 14.192-16.313 24.157-31.519 28.657-41.868 2.62-6.026 1.265-9.572.259-10.035-.147-.068-.342-.105-.581-.105z"/><path d="m396.679 606.928h-33.99c-3.866 0-7-3.134-7-7s3.134-7 7-7h33.99c3.866 0 7 3.134 7 7s-3.134 7-7 7z"/><path d="m598.712 603.751h-33.99c-3.866 0-7-3.134-7-7s3.134-7 7-7h33.99c3.866 0 7 3.134 7 7s-3.134 7-7 7z"/><path d="m504.322 671.91c-4.905 0-9.533-1.366-13.39-4.047-6.281-4.364-10.009-11.859-10.228-20.563-.202-8.021 2.498-16.483 7.601-23.828 5.104-7.345 12.094-12.825 19.682-15.433 8.234-2.83 16.558-1.949 22.839 2.417 6.28 4.364 10.008 11.859 10.228 20.563.202 8.02-2.498 16.483-7.602 23.827-5.104 7.345-12.094 12.826-19.682 15.433-3.177 1.091-6.368 1.631-9.449 1.631zm13.17-51.517c-1.94 0-3.736.467-4.956.887-4.724 1.623-9.366 5.334-12.735 10.182-3.368 4.847-5.228 10.492-5.102 15.486.062 2.465.693 6.967 4.222 9.419 3.529 2.453 7.969 1.475 10.3.673 4.725-1.624 9.366-5.334 12.734-10.182 3.369-4.847 5.229-10.492 5.103-15.485-.062-2.465-.693-6.967-4.222-9.419-1.683-1.17-3.575-1.56-5.345-1.56z"/><path d="m538.827 672.535c-3.298 0-6.258-.813-8.873-2.443-6.424-4.004-9.167-12.54-6.986-21.745 1.938-8.179 12.488-37.335 12.937-38.573 1.317-3.635 5.33-5.514 8.966-4.197 3.635 1.317 5.514 5.331 4.197 8.966-2.977 8.218-11.022 30.889-12.477 37.031-.818 3.455-.065 6.118.769 6.638 1.466.915 8.558.586 23.55-11.75 2.984-2.456 7.396-2.027 9.853.958s2.028 7.396-.958 9.853c-12.348 10.161-22.72 15.264-30.978 15.264z"/><path d="m577.917 673.087c-4.334 0-8.052-1.171-11.138-3.518-7.479-5.685-9.275-16.949-4.929-30.903 2.907-9.333 24.788-92.568 25.008-93.408.983-3.74 4.812-5.973 8.549-4.991 3.739.982 5.974 4.81 4.991 8.549-.904 3.441-22.182 84.382-25.182 94.012-2.546 8.176-1.883 14.137.035 15.595 1.914 1.455 9.145 1.341 24.114-8.312 3.247-2.094 7.581-1.161 9.676 2.089 2.095 3.249 1.16 7.581-2.089 9.676-11.577 7.466-21.289 11.208-29.035 11.209z"/><path d="m448.86 538.98c-4.799 0-9.421-1.33-13.439-4.122-12.658-8.796-13.812-28.295-2.627-44.391 11.187-16.095 29.865-21.813 42.521-13.016 12.658 8.796 13.812 28.295 2.627 44.391-7.635 10.986-18.762 17.138-29.081 17.138zm13.044-51.62c-5.768 0-12.808 4.181-17.614 11.097-6.481 9.327-6.885 20.732-.88 24.905 6.004 4.174 16.552-.183 23.035-9.509 6.482-9.328 6.885-20.732.881-24.905-1.552-1.079-3.41-1.588-5.421-1.588z"/><path d="m527.686 539.097c-4.438 0-8.054-1.169-10.91-3.506-6.642-5.435-5.49-14.197-4.979-16.752.48-2.401 1.304-4.551 5.484-13.263-4.149-.234-7.132-1.722-9.004-3.05-1.602-1.136-3.556-2.985-5.121-5.882-11.386 13.885-26.539 27.617-28.901 29.734-2.878 2.58-7.303 2.338-9.884-.541s-2.339-7.304.54-9.885c8.611-7.721 32.004-30.353 36.776-42.194 1.347-3.345 5.015-5.116 8.473-4.098 3.458 1.02 5.576 4.5 4.894 8.04-1.669 8.657.048 12.501 1.326 13.407 1.401.995 5.173.626 10.436-2.438 2.665-1.551 6.029-1.176 8.287.922 2.258 2.099 2.877 5.428 1.525 8.198-7.798 15.977-10.775 22.167-11.101 23.795-.285 1.428-.106 2.867.138 3.193.007 0 3.182 1.819 15.072-3.161 3.566-1.494 7.667.187 9.161 3.752 1.494 3.566-.187 7.667-3.752 9.161-7.271 3.045-13.397 4.567-18.457 4.567z"/></g><path d="m139.775 396.139c15.594-53.614 53.692-98.915 98.076-130.702 38.273-27.314 82.866-44.532 128.884-52.954 3.212-.578 10.72-1.713 13.963-2.268l8.172 39.156-8.066 2.452c-28.739 8.823-56.701 22.041-81.196 39.418-37.37 26.869-68.522 64.711-80.937 109.017-1.161 4.406-2.055 8.747-2.495 12.594z" fill="#2424ff"/><path d="m178.227 373.475c-44.728 2.17-75.095 85.957-75.095 85.957s-37.867 65.851-15.046 137.217c8.158 25.512 39.264 20.758 33.427-6.986-7.709-36.643 17.016-75.263 17.016-75.263s-7.609 30.463 4.748 79.185c7.984 31.48 36.341 18.382 34.872-2.567-4.433-63.228 2.985-67.92 2.985-67.92s1.24 32.394 18.092 76.869c8.974 23.686 45.839 16.903 33.424-12.702-20.628-49.19-12.783-82.919-10.391-117.429 3.552-51.239 7.924-98.88-44.032-96.36z" fill="#2424ff"/><rect fill="#fff" height="121.604" rx="60.802" transform="matrix(.99994929 .01007038 -.01007038 .99994929 5.07 -1.441)" width="275.105" x="7.996" y="441.722"/><path d="m68.789 440.949c.209 0 .416.001.625.003l153.493 1.546c33.578.338 60.525 27.833 60.186 61.411-.336 33.369-27.493 60.19-60.786 60.19-.209 0-.416-.001-.625-.003l-153.493-1.546c-33.578-.338-60.525-27.833-60.186-61.411.336-33.369 27.493-60.189 60.786-60.19m0-8c-18.231 0-35.412 7.066-48.378 19.895-12.976 12.838-20.224 29.961-20.407 48.214-.185 18.377 6.797 35.726 19.661 48.851 12.863 13.125 30.068 20.456 48.445 20.641l153.493 1.547c.236.002.471.004.706.004 18.231 0 35.412-7.065 48.379-19.894 12.976-12.838 20.223-29.961 20.407-48.215.185-18.377-6.797-35.726-19.661-48.851-12.863-13.125-30.068-20.456-48.445-20.641l-153.493-1.546c-.236-.002-.471-.004-.706-.004z" fill="#2424ff"/><path d="m766.595 412.852c-.95-8.296-4.49-16.201-8.267-23.705-15.618-29.646-38.568-54.057-64.897-75.712-17.995-14.681-37.907-27.346-58.939-38.188-21.247-10.772-43.608-19.369-66.621-25.876l8.172-39.156c53.507 8.003 105.094 26.169 151.358 54.854 40.108 25.11 78.674 58.518 102.808 100.499 5.395 9.489 9.902 19.886 12.787 30.571z" fill="#2424ff"/><path d="m801.572 373.046c44.435 2.428 74.188 85.87 74.188 85.87s37.296 65.666 14.258 136.444c-8.236 25.302-39.121 20.389-33.181-7.145 7.846-36.365-16.529-74.892-16.529-74.892s7.407 30.317-5.118 78.657c-8.093 31.233-36.205 18.046-34.64-2.762 4.725-62.803-2.623-67.51-2.623-67.51s-4.866 41.033-16.187 77.809c-7.434 24.147-46.852 15.412-34.366-13.931 20.746-48.755 12.16-82.747 9.957-117.054-3.271-50.937-7.375-98.305 44.242-95.485z" fill="#2424ff"/><rect fill="#fff" height="120.84" rx="60.42" transform="matrix(-.99998986 .00450293 -.00450293 -.99998986 1668.91 999.242)" width="273.375" x="696.642" y="441.08"/><path d="m909.603 440.737c33.24 0 60.264 26.873 60.413 60.148.15 33.369-26.778 60.541-60.147 60.691l-152.534.687c-.094 0-.185 0-.278 0-33.24 0-60.263-26.873-60.413-60.148-.15-33.369 26.778-60.541 60.147-60.691l152.534-.687zm0-8h-.314l-152.534.688c-37.726.17-68.281 31.001-68.111 68.727.082 18.22 7.24 35.333 20.154 48.186 12.911 12.849 30.049 19.925 48.259 19.925h.314l152.534-.688c18.275-.082 35.425-7.276 48.289-20.257s19.904-30.194 19.822-48.47c-.082-18.22-7.24-35.333-20.154-48.186-12.911-12.849-30.049-19.925-48.259-19.925z" fill="#2424ff"/><path d="m820.103 379.06s39.12 21.882 91.971.052c29.872-16.085 42.894 17.872 19.66 32.936-33.124 21.476-70.723 29.362-117.766 28.455-10.244-38.83 6.136-61.443 6.136-61.443z" fill="#2424ff"/><path d="m148.26 379.06s-42.484 23.541-99.676 11.796c-32.17-8.681-39.358 29.046-12.766 36.766 31.66 9.191 71.535 13.787 118.578 12.881 10.244-38.83-6.136-61.443-6.136-61.443z" fill="#2424ff"/><path d="m909.325 440.737-77.696.35v120.841l78.24-.352c33.369-.15 60.297-27.323 60.147-60.691-.15-33.369-27.323-60.297-60.691-60.147z" fill="#27ffea"/><path d="m145.331 441.717-75.917-.765c-33.578-.338-61.073 26.608-61.412 60.187-.338 33.579 26.608 61.073 60.187 61.412l77.142.777z" fill="#ff24ff"/><ellipse cx="410.116" cy="104.627" fill="#ffe200" rx="54.383" ry="34.195"/><ellipse cx="550.286" cy="104.627" fill="#ffe200" rx="54.383" ry="34.195"/></svg>