<svg height="414.128" viewBox="0 0 567.149 414.128" width="567.149" xmlns="http://www.w3.org/2000/svg"><path d="m549.042 234.492c-.033-.035-26.516-27.237-26.516-27.237l12.624-15.4c.113-.137.222-.276.329-.416a25.514 25.514 0 0 0 -10.949-39.215l-7.2-2.833 3.245-6.6a25.527 25.527 0 0 0 -22.817-36.792 25.633 25.633 0 0 0 -2.594.132 40.925 40.925 0 0 0 -29.955-13.431l-123-.847 15.653-21.353a28.2 28.2 0 1 0 -33.162-24.113l-15.836 21.594a79.308 79.308 0 0 0 -50.6-.085c-11.726-8.688-26.971-19.942-38.3-28.3a30.334 30.334 0 1 0 -24.821 32.644c9.108 6.717 17.8 13.132 25.426 18.772l-32.569-.223q-.912 0-1.814.039c-19.361.524-39.923 9.035-57.927 23.978-.143.116-.943.789-.943.789s-.406.345-.533.458l-10.1 9.08-43.065-9.57a25.768 25.768 0 0 0 -5.587-.617 25.411 25.411 0 0 0 -22.715 36.626l3.131 6.362-6.955 2.736a25.4 25.4 0 0 0 -10.9 39.038l12.008 15.754-25.411 26.611a25.4 25.4 0 0 0 9.94 41.5l21.983 7.735-3.35 6.465a25.4 25.4 0 0 0 18.712 36.8l5.8.886-3.629 12.841a25.161 25.161 0 0 0 4.155 22.2 25.295 25.295 0 0 0 30.015 8.163c2.064-.857 4.235-1.76 6.483-2.7a30.957 30.957 0 0 0 12.2 7.175l37.253 11.6c.6.187 1.212.357 1.873.519a144 144 0 0 0 38.113 5.226 138.373 138.373 0 0 0 13.869-.7l235.905-23.5a40.832 40.832 0 0 0 15.766-4.952l2.392.994a25.47 25.47 0 0 0 9.814 1.973 25.669 25.669 0 0 0 20.335-10.172 25.274 25.274 0 0 0 4.178-22.3l-3.717-13.171 6.045-.923a25.517 25.517 0 0 0 18.8-36.963l-3.476-6.707 22.41-7.883a25.519 25.519 0 0 0 9.984-41.693z" fill="#fff"/><path d="m161.256 380.342a128.171 128.171 0 0 0 47.906 4.44c8.152-.826-23.885-40.8-23.885-40.8l-26.554 1.7" fill="#60c"/><path d="m188.2 105.705c-26.176 0-46.995 17.774-51.343 21.419l15.743 23.238 26.723-5.447z" fill="#60c"/><path d="m199.455 43a5.5 5.5 0 0 0 -6.527 8.856c25.671 18.92 64.611 47.679 66.675 49.361a5.5 5.5 0 0 0 6.965-8.514c-2.835-2.322-60.543-44.862-67.113-49.703z" fill="#93f"/><path d="m352.125 43.628a5.5 5.5 0 0 0 -7.688 1.183l-33.7 45.958a5.5 5.5 0 0 0 8.87 6.506l33.7-45.958a5.5 5.5 0 0 0 -1.182-7.689z" fill="#93f"/><path d="m235.383 110.291c10.468-43.546 89.957-40.881 94.213.666" fill="#60c"/><path d="m396.068 324.925c1.36 2.813 47.087 22.133 74.394 33.47a10.512 10.512 0 0 0 14.138-12.573l-5.095-18.055a10.516 10.516 0 0 1 8.531-13.251l11.061-1.691a10.516 10.516 0 0 0 7.748-15.234l-5.845-11.291a10.517 10.517 0 0 1 5.847-14.759l27.275-9.594a10.516 10.516 0 0 0 4.115-17.183l-30.427-31.256c-3.574-3.742-4.286-6.482-1.149-10.6l16.933-20.652a10.516 10.516 0 0 0 -4.512-16.163l-11.731-4.614a10.516 10.516 0 0 1 -5.586-14.429l5.394-10.964a10.516 10.516 0 0 0 -11.717-14.909l-70.789 15.733" fill="#00ff97"/><path d="m168.688 331.626c-1.345 2.782-46.57 21.89-73.578 33.1a10.4 10.4 0 0 1 -13.987-12.435l5.04-17.856a10.4 10.4 0 0 0 -8.438-13.106l-10.94-1.673a10.4 10.4 0 0 1 -7.662-15.067l5.785-11.164a10.4 10.4 0 0 0 -5.783-14.6l-26.975-9.49a10.4 10.4 0 0 1 -4.07-16.994l28.127-29.441a10.4 10.4 0 0 0 .749-13.49l-14.394-18.881a10.4 10.4 0 0 1 4.463-15.986l11.6-4.564a10.4 10.4 0 0 0 5.525-14.27l-5.335-10.844a10.4 10.4 0 0 1 11.59-14.745l70.013 15.561" fill="#00ff97"/><path d="m136.854 127.124-54.918 49.365c-7.064 6.639-10.213 14.211-7.915 24.511l39.4 156.978a15.979 15.979 0 0 0 10.579 10.759l37.254 11.6c10.812 3.368 21.878-5.226 20.957-16.512l-18.466-226.314c-1.077-13.185-17.063-19.241-26.891-10.387z" fill="#60c"/><path d="m188.2 105.705 276.951 1.907a25.776 25.776 0 0 1 25.441 28.619l-22.46 202.246a25.776 25.776 0 0 1 -23.063 22.8l-235.907 23.5a25.776 25.776 0 0 1 -28.245-23.551l-18.588-227.649a25.775 25.775 0 0 1 25.871-27.872z" fill="#93f"/><path d="m192.983 144.136c-21.466 1.72-19.719 37 1.478 35.305s22.671-37.241-1.478-35.305z" fill="#60c"/><path d="m205.919 314.222c-21.466 1.719-19.719 37 1.478 35.305s22.671-37.24-1.478-35.305z" fill="#60c"/><path d="m195.564 213.259c-8.8.705-8.139 14.5.552 13.8s9.348-14.593-.552-13.8z" fill="#fff"/><path d="m197.405 238.32c-8.8.705-8.138 14.5.552 13.8s9.349-14.593-.552-13.8z" fill="#fff"/><path d="m199.544 265.016c-8.8.7-8.139 14.5.552 13.8s9.349-14.593-.552-13.8z" fill="#fff"/><path d="m424.489 133.254-164.595-1.591c-41.317 0-42.288 55.909-38.3 111.124 4.787 66.256 16.648 114.274 55.149 110.3l138.557-14.64c32.006-3.773 41.737-35.071 47.319-102.468 5.386-65.049 4.561-102.725-38.13-102.725z" fill="#00ff97"/><g fill="#60c"><path d="m372.865 215.7a29.631 29.631 0 0 0 4.648 15.744 17.164 17.164 0 0 0 15.053 7.725c11.5-.349 15.914-10.146 16.643-15.278a5.152 5.152 0 0 0 -10.194-1.5c-.171 1.053-1.308 6.313-6.762 6.479a6.824 6.824 0 0 1 -6.253-3.27 19.633 19.633 0 0 1 -2.835-10.211c-.246-8.107 3.113-16.968 8.97-17.146 4.917-.149 6.309 4.067 6.621 5.38a5.152 5.152 0 0 0 10.071-2.174c-1.017-4.819-5.879-13.842-17-13.5-12.855.385-19.363 14.587-18.962 27.751z"/><path d="m283.84 235.6c10.989-.335 16.354-14.886 16.883-45.8a5.152 5.152 0 1 0 -10.3-.176c-.571 33.382-6.826 35.669-6.929 35.671-.025-.006-2.565-1.108-4.689-11.62-1.532-7.577-2.142-16.448-2.587-22.925l-.044-.646a5.152 5.152 0 0 0 -10.261-.2c-.147 1.347-.3 2.834-.454 4.42-.706 7.055-1.584 15.836-3.345 22.838-2.1 8.351-4.268 9.24-4.288 9.24-.151 0-.444-.273-.53-.358-2.988-2.948-6.052-14.979-5.719-34.425a5.152 5.152 0 0 0 -10.3-.176c-.168 9.836.35 33.612 8.784 41.934a10.866 10.866 0 0 0 8.08 3.323c6.4-.194 10.274-5.417 12.772-12.8 2.554 7.027 6.535 11.9 12.927 11.7z"/><path d="m310.921 253.965a5.151 5.151 0 1 0 -10.3.313c.062 2.026.2 4.92.357 8.269.173 3.655.431 9.087.592 14.233-.846-1.461-1.68-2.908-2.452-4.249-11.9-20.656-13.661-23.279-17.888-23.15a6.343 6.343 0 0 0 -4.594 1.994c-2.338 2.514-2.246 4.692-1.651 18.865.23 5.457.544 12.931.849 22.979a5.152 5.152 0 1 0 10.3-.313c-.308-10.107-.623-17.617-.853-23.1q-.015-.322-.028-.641c1.71 2.9 3.464 5.949 4.937 8.508 10.388 18.034 11.722 20.351 15.83 20.226a5.415 5.415 0 0 0 3.835-1.761c2.3-2.485 2.739-6.158 1.416-34.079-.156-3.303-.291-6.159-.35-8.094z"/><path d="m337.567 245.936c-12.655.385-18.871 13.913-18.471 27.077a31.471 31.471 0 0 0 4.119 15.289c3.237 5.263 8.091 8.067 13.667 7.9 6.041-.184 11.211-3.8 14.555-10.187a37.037 37.037 0 0 0 3.762-17.776c-.415-13.649-7.499-22.611-17.632-22.303zm4.743 35.3c-1.587 3.031-3.519 4.6-5.741 4.67-.734.022-2.684.081-4.579-3a21.479 21.479 0 0 1 -2.6-10.2c-.242-7.96 2.866-16.294 8.486-16.465 5.242-.16 6.88 7.666 7.021 12.315a26.867 26.867 0 0 1 -2.587 12.676z"/><path d="m415.047 243.719a5.149 5.149 0 0 0 -5.239 5.063c-.486 28.437-5.434 34.741-6.63 34.782-.024-.009-2.519-1.166-4.584-11.656a185.088 185.088 0 0 1 -2.452-22.028l-.044-.635a5.151 5.151 0 0 0 -10.26-.2c-.144 1.317-.289 2.771-.444 4.322a177.811 177.811 0 0 1 -2.99 21.165c-2.113 9.134-4.351 10.1-4.385 10.107-.484-.147-2.62-2.3-4.214-10.113a115.239 115.239 0 0 1 -1.762-23.791 5.152 5.152 0 0 0 -10.3-.176c-.2 11.967.643 33.219 8.624 41.1a10.739 10.739 0 0 0 7.986 3.283c6.233-.19 10.031-5.193 12.492-12.3 2.521 6.753 6.423 11.411 12.645 11.222 10.822-.329 16.1-14.6 16.622-44.9a5.153 5.153 0 0 0 -5.065-5.245z"/><path d="m360.368 194.887c5.551-.157 9.234-.18 9.3-.18h.131a5.151 5.151 0 0 0 -.186-10.3c-.138 0-14.029.085-28.918 1.087a5.151 5.151 0 0 0 .5 10.289c.064 0 .128 0 .193-.01 2.942-.2 5.842-.359 8.6-.49a165.243 165.243 0 0 0 1.191 36.262 5.151 5.151 0 0 0 5.232 4.308 5.036 5.036 0 0 0 .687-.066 5.154 5.154 0 0 0 4.247-5.919 158.334 158.334 0 0 1 -.977-34.981z"/><path d="m447.831 185.006a5.152 5.152 0 0 0 -10.276-.758c-.371 5.037-.518 10.137-.531 14.95a58.97 58.97 0 0 0 -13.848.364c.008-4.228.117-8.74.384-13.366a5.152 5.152 0 0 0 -10.286-.594 274.465 274.465 0 0 0 .89 41.589 5.151 5.151 0 0 0 5.27 4.579c.139-.005.279-.015.419-.03a5.151 5.151 0 0 0 4.55-5.69c-.012-.108-.712-6.552-1.049-16.08a48.633 48.633 0 0 1 13.835-.388c.295 8.8.886 15.1.931 15.574a5.151 5.151 0 0 0 5.279 4.66c.113 0 .226-.011.339-.022a5.151 5.151 0 0 0 4.638-5.618c-.019-.203-1.922-20.501-.545-39.17z"/><path d="m305.562 242.525a5.146 5.146 0 0 0 6.233-3.771c.557-2.263 1.41-5.729 2.424-9.666a42.166 42.166 0 0 1 15.781-1.254c.7 2.781 1.452 5.838 2.251 9.2a5.152 5.152 0 0 0 10.024-2.385c-3.831-16.1-6.777-26.6-9.27-33.024-1.508-3.886-4.315-11.12-10.593-10.929-5.671.172-8.5 5.348-10.7 10.915-2.515 6.34-5.573 17.037-9.914 34.681a5.152 5.152 0 0 0 3.764 6.233zm21.647-25.214a53.79 53.79 0 0 0 -9.971.574c1.756-6.166 3.6-11.955 5.123-15.083a105.452 105.452 0 0 1 4.848 14.509z"/></g><path d="m327.515 159.541a4.738 4.738 0 0 0 -6.274 7.1 20.006 20.006 0 0 1 5.488 10.217 4.738 4.738 0 1 0 9.315-1.737 29.4 29.4 0 0 0 -8.529-15.58z" fill="#fff"/><path d="m362.86 175.926a4.733 4.733 0 0 0 6.361-2.1c4.231-8.409 1.5-18.149 1.179-19.232a4.738 4.738 0 0 0 -9.081 2.7c.021.071 2.027 7.122-.563 12.27a4.737 4.737 0 0 0 2.104 6.362z" fill="#fff"/><path d="m339.734 144.128a4.742 4.742 0 0 0 -1.761 6.462c.064.112 6.4 11.384 5.443 22.321a4.737 4.737 0 0 0 4.3 5.135 4.577 4.577 0 0 0 .56.016 4.737 4.737 0 0 0 4.575-4.32c1.228-13.954-6.339-27.3-6.661-27.866a4.734 4.734 0 0 0 -6.456-1.748z" fill="#fff"/><path d="m328.267 303.848a4.731 4.731 0 0 0 -4.356 5.091 20 20 0 0 1 -2.653 11.289 4.737 4.737 0 0 0 7.9 5.232 29.388 29.388 0 0 0 4.2-17.258 4.736 4.736 0 0 0 -5.091-4.354z" fill="#fff"/><path d="m365.739 300.861a4.737 4.737 0 1 0 -7.072 6.305c3.835 4.3 3.724 11.631 3.722 11.7a4.738 4.738 0 0 0 9.472.259c.039-1.125.139-11.239-6.122-18.264z" fill="#fff"/><path d="m344.413 302.192a4.683 4.683 0 0 0 -.536.161 4.736 4.736 0 0 0 -2.826 6.074c3.763 10.314.56 22.844.527 22.97a4.738 4.738 0 0 0 9.16 2.423c.166-.626 4.016-15.482-.786-28.641a4.739 4.739 0 0 0 -5.539-2.987z" fill="#fff"/><path d="m189.809 27a15.319 15.319 0 1 0 15.319 15.319 15.32 15.32 0 0 0 -15.319-15.319z" fill="#60c"/><path d="m352.7 29.511a13.192 13.192 0 1 0 13.194 13.189 13.191 13.191 0 0 0 -13.194-13.189z" fill="#60c"/></svg>